G04 #@! TF.GenerationSoftware,KiCad,Pcbnew,10.0.2*
G04 #@! TF.CreationDate,2026-05-18T20:10:03+07:00*
G04 #@! TF.ProjectId,klor1_4,6b6c6f72-315f-4342-9e6b-696361645f70,v1.5*
G04 #@! TF.SameCoordinates,Original*
G04 #@! TF.FileFunction,Profile,NP*
%FSLAX46Y46*%
G04 Gerber Fmt 4.6, Leading zero omitted, Abs format (unit mm)*
G04 Created by KiCad (PCBNEW 10.0.2) date 2026-05-18 20:10:03*
%MOMM*%
%LPD*%
G01*
G04 APERTURE LIST*
%ADD10C,0.010000*%
G04 #@! TA.AperFunction,Profile*
%ADD11C,0.010000*%
G04 #@! TD*
G04 #@! TA.AperFunction,Profile*
%ADD12C,0.100000*%
G04 #@! TD*
G04 APERTURE END LIST*
D10*
X71110685Y-152327386D02*
X71107870Y-152330215D01*
X71105074Y-152333054D01*
X71102295Y-152335903D01*
X71099535Y-152338762D01*
X71096792Y-152341632D01*
X71094068Y-152344510D01*
X71091361Y-152347400D01*
X71088674Y-152350298D01*
X71086004Y-152353207D01*
X71083353Y-152356125D01*
X71080719Y-152359054D01*
X71078104Y-152361991D01*
X71075507Y-152364938D01*
X71072929Y-152367895D01*
X71070368Y-152370861D01*
X71067826Y-152373836D01*
X71065302Y-152376822D01*
X71062797Y-152379815D01*
X71060309Y-152382819D01*
X71057841Y-152385831D01*
X71055390Y-152388853D01*
X71052958Y-152391884D01*
X71050544Y-152394924D01*
X71048149Y-152397972D01*
X71045772Y-152401030D01*
X71043414Y-152404096D01*
X71041073Y-152407172D01*
X71038752Y-152410255D01*
X71036449Y-152413348D01*
X71034165Y-152416449D01*
X71031898Y-152419559D01*
X71029651Y-152422677D01*
X71027422Y-152425804D01*
X71025212Y-152428938D01*
X71023020Y-152432082D01*
X71020847Y-152435233D01*
X71018692Y-152438393D01*
X71016556Y-152441561D01*
X71014439Y-152444737D01*
X71012341Y-152447921D01*
X71010260Y-152451113D01*
X71008200Y-152454312D01*
X71006157Y-152457520D01*
X71004133Y-152460735D01*
X71002128Y-152463958D01*
X71000142Y-152467189D01*
X70998175Y-152470427D01*
X70996226Y-152473673D01*
X70994297Y-152476926D01*
X70992386Y-152480186D01*
X70990494Y-152483455D01*
X70988621Y-152486729D01*
X70986766Y-152490012D01*
X70984931Y-152493301D01*
X70981318Y-152499901D01*
X70977780Y-152506529D01*
X70974318Y-152513184D01*
X70970933Y-152519866D01*
X70967623Y-152526574D01*
X70964390Y-152533307D01*
X70961234Y-152540066D01*
X70958155Y-152546849D01*
X70955152Y-152553656D01*
X70952227Y-152560486D01*
X70949378Y-152567340D01*
X70946607Y-152574215D01*
X70943913Y-152581113D01*
X70941297Y-152588031D01*
X70938758Y-152594971D01*
X70936297Y-152601930D01*
X70933915Y-152608908D01*
X70931610Y-152615906D01*
X70929383Y-152622921D01*
X70927234Y-152629955D01*
X70925164Y-152637005D01*
X70923173Y-152644072D01*
X70921260Y-152651155D01*
X70919425Y-152658252D01*
X70917670Y-152665365D01*
X70915993Y-152672491D01*
X70914396Y-152679631D01*
X70912877Y-152686784D01*
X70911438Y-152693948D01*
X70910078Y-152701124D01*
X70908797Y-152708311D01*
X70907595Y-152715509D01*
X70906473Y-152722715D01*
X70905431Y-152729931D01*
X70904468Y-152737155D01*
X70903585Y-152744386D01*
X70902782Y-152751625D01*
X70902058Y-152758870D01*
X70901414Y-152766120D01*
X70900850Y-152773376D01*
X70900366Y-152780636D01*
X70899962Y-152787900D01*
X70899638Y-152795166D01*
X70899393Y-152802435D01*
X70899229Y-152809706D01*
X70899145Y-152816978D01*
X70899140Y-152824251D01*
X70899168Y-152827887D01*
X70899216Y-152831523D01*
X70899284Y-152835158D01*
X70899372Y-152838794D01*
X70899480Y-152842429D01*
X70899607Y-152846064D01*
X70899755Y-152849698D01*
X70899923Y-152853331D01*
X70900111Y-152856964D01*
X70900319Y-152860596D01*
X70900546Y-152864226D01*
X70900794Y-152867857D01*
X70901062Y-152871485D01*
X70901350Y-152875113D01*
X70901657Y-152878740D01*
X70901985Y-152882365D01*
X70902333Y-152885989D01*
X70902700Y-152889612D01*
X70903088Y-152893233D01*
X70903495Y-152896852D01*
X70903923Y-152900470D01*
X70904370Y-152904086D01*
X70904837Y-152907700D01*
X70905324Y-152911312D01*
X70905831Y-152914922D01*
X70906358Y-152918530D01*
X70906905Y-152922135D01*
X70907472Y-152925739D01*
X70908059Y-152929340D01*
X70908665Y-152932939D01*
X70909292Y-152936535D01*
X70909938Y-152940128D01*
X70910604Y-152943719D01*
X70911290Y-152947308D01*
X70911996Y-152950893D01*
X70912721Y-152954475D01*
X70913467Y-152958054D01*
X70914232Y-152961631D01*
X70915017Y-152965204D01*
X70915822Y-152968774D01*
X70916646Y-152972341D01*
X70917491Y-152975904D01*
X70918355Y-152979464D01*
X70919238Y-152983020D01*
X70920142Y-152986573D01*
X70921065Y-152990122D01*
X70922008Y-152993667D01*
X70922971Y-152997209D01*
X70923953Y-153000746D01*
X70924955Y-153004280D01*
X70925976Y-153007809D01*
X70927017Y-153011334D01*
X70928078Y-153014855D01*
X70929159Y-153018372D01*
X70930259Y-153021884D01*
X70931378Y-153025392D01*
X70932517Y-153028895D01*
X70933676Y-153032394D01*
X70934854Y-153035888D01*
X70936052Y-153039378D01*
X70937269Y-153042862D01*
X70938506Y-153046342D01*
X70939762Y-153049816D01*
X70941038Y-153053286D01*
X70942333Y-153056750D01*
X70943647Y-153060209D01*
X70944981Y-153063663D01*
X70946335Y-153067112D01*
X70947707Y-153070555D01*
X70949099Y-153073993D01*
X70950510Y-153077425D01*
X70951941Y-153080852D01*
X70953391Y-153084272D01*
X70954861Y-153087688D01*
X70956349Y-153091097D01*
X70957857Y-153094500D01*
X70959384Y-153097897D01*
X70960931Y-153101289D01*
X70962496Y-153104674D01*
X70964081Y-153108053D01*
X70965685Y-153111426D01*
X70967308Y-153114793D01*
X70968950Y-153118152D01*
X70970612Y-153121506D01*
X70972292Y-153124853D01*
X70973992Y-153128194D01*
X70975710Y-153131528D01*
X70977448Y-153134855D01*
X70979204Y-153138175D01*
X70980980Y-153141489D01*
X70982775Y-153144795D01*
X70984589Y-153148095D01*
X70986421Y-153151387D01*
X70988273Y-153154673D01*
X70990144Y-153157951D01*
X70992033Y-153161222D01*
X70993941Y-153164486D01*
X70995869Y-153167743D01*
X70997815Y-153170991D01*
X70999780Y-153174233D01*
X71001764Y-153177466D01*
X71003766Y-153180693D01*
X71005788Y-153183911D01*
X71007828Y-153187122D01*
X71009887Y-153190325D01*
X71011965Y-153193520D01*
X71014061Y-153196707D01*
X71016176Y-153199886D01*
X71018309Y-153203057D01*
X71020462Y-153206220D01*
X71022633Y-153209375D01*
X71024823Y-153212522D01*
X71027031Y-153215659D01*
X71029258Y-153218790D01*
X71031503Y-153221911D01*
X71033768Y-153225024D01*
X71036050Y-153228128D01*
X71038352Y-153231224D01*
X71040671Y-153234311D01*
X71043009Y-153237390D01*
X71045366Y-153240459D01*
X71047741Y-153243520D01*
X71050134Y-153246572D01*
X71052547Y-153249615D01*
X71054977Y-153252649D01*
X71057426Y-153255674D01*
X71059893Y-153258690D01*
X71062378Y-153261697D01*
X71064882Y-153264694D01*
X71067405Y-153267682D01*
X71069945Y-153270661D01*
X71072504Y-153273630D01*
X71075081Y-153276590D01*
X71077676Y-153279541D01*
X71080290Y-153282481D01*
X71082922Y-153285413D01*
X71085572Y-153288334D01*
X71088240Y-153291246D01*
X71090926Y-153294148D01*
X71093632Y-153297041D01*
X71096354Y-153299922D01*
X71099095Y-153302795D01*
X71101854Y-153305657D01*
X71104632Y-153308510D01*
X71107427Y-153311352D01*
X71110241Y-153314184D01*
X71110685Y-153314629D01*
D11*
X71110685Y-153314629D02*
X84967353Y-167171297D01*
X77986130Y-145451940D02*
X71110685Y-152327386D01*
X80630534Y-53849845D02*
X80630534Y-137060370D01*
D10*
X80630534Y-137060370D02*
X80630574Y-137067903D01*
X80630694Y-137075428D01*
X80630893Y-137082945D01*
X80631172Y-137090453D01*
X80631531Y-137097951D01*
X80631969Y-137105440D01*
X80632487Y-137112918D01*
X80633084Y-137120386D01*
X80633760Y-137127843D01*
X80634515Y-137135288D01*
X80635349Y-137142721D01*
X80636263Y-137150142D01*
X80637255Y-137157549D01*
X80638326Y-137164943D01*
X80639475Y-137172323D01*
X80640704Y-137179689D01*
X80642010Y-137187039D01*
X80643395Y-137194374D01*
X80644858Y-137201692D01*
X80646400Y-137208994D01*
X80648019Y-137216279D01*
X80649716Y-137223545D01*
X80651491Y-137230793D01*
X80653344Y-137238022D01*
X80655274Y-137245231D01*
X80657281Y-137252420D01*
X80659365Y-137259588D01*
X80661526Y-137266735D01*
X80663764Y-137273859D01*
X80666079Y-137280960D01*
X80668470Y-137288038D01*
X80670937Y-137295092D01*
X80673480Y-137302120D01*
X80676099Y-137309123D01*
X80678793Y-137316100D01*
X80681563Y-137323050D01*
X80684407Y-137329972D01*
X80687326Y-137336866D01*
X80690320Y-137343731D01*
X80693388Y-137350565D01*
X80696530Y-137357369D01*
X80699745Y-137364142D01*
X80703033Y-137370883D01*
X80706395Y-137377591D01*
X80709829Y-137384265D01*
X80713335Y-137390905D01*
X80716913Y-137397510D01*
X80720563Y-137404079D01*
X80724283Y-137410611D01*
X80728075Y-137417106D01*
X80731936Y-137423562D01*
X80735867Y-137429979D01*
X80739868Y-137436357D01*
X80743938Y-137442694D01*
X80748076Y-137448990D01*
X80752282Y-137455243D01*
X80756555Y-137461454D01*
X80760896Y-137467620D01*
X80765302Y-137473742D01*
X80769775Y-137479819D01*
X80774313Y-137485850D01*
X80778916Y-137491834D01*
X80783583Y-137497770D01*
X80788314Y-137503658D01*
X80793108Y-137509496D01*
X80797964Y-137515285D01*
X80802882Y-137521022D01*
X80807861Y-137526709D01*
X80812901Y-137532343D01*
X80818001Y-137537924D01*
X80823160Y-137543451D01*
X80828377Y-137548923D01*
X80833653Y-137554341D01*
X80838985Y-137559702D01*
X80841673Y-137562362D01*
X80844374Y-137565007D01*
X80847090Y-137567638D01*
X80849819Y-137570255D01*
X80852562Y-137572857D01*
X80855319Y-137575445D01*
X80858090Y-137578017D01*
X80860874Y-137580575D01*
X80863671Y-137583118D01*
X80866481Y-137585647D01*
X80869305Y-137588160D01*
X80872142Y-137590658D01*
X80874992Y-137593141D01*
X80877855Y-137595609D01*
X80880731Y-137598061D01*
X80883619Y-137600498D01*
X80886520Y-137602920D01*
X80889434Y-137605326D01*
X80892360Y-137607716D01*
X80895299Y-137610090D01*
X80898250Y-137612449D01*
X80901213Y-137614792D01*
X80904188Y-137617119D01*
X80907175Y-137619430D01*
X80910174Y-137621724D01*
X80913185Y-137624003D01*
X80916207Y-137626265D01*
X80919242Y-137628511D01*
X80922287Y-137630741D01*
X80925344Y-137632954D01*
X80928412Y-137635150D01*
X80931492Y-137637331D01*
X80934582Y-137639494D01*
X80937684Y-137641641D01*
X80940796Y-137643770D01*
X80943920Y-137645884D01*
X80947053Y-137647980D01*
X80950198Y-137650059D01*
X80953353Y-137652121D01*
X80956519Y-137654166D01*
X80959694Y-137656194D01*
X80962881Y-137658205D01*
X80966076Y-137660198D01*
X80969283Y-137662174D01*
X80972499Y-137664132D01*
X80975725Y-137666074D01*
X80978960Y-137667997D01*
X80982206Y-137669904D01*
X80985461Y-137671792D01*
X80988725Y-137673663D01*
X80991998Y-137675516D01*
X80995282Y-137677351D01*
X80998573Y-137679169D01*
X81001875Y-137680969D01*
X81005184Y-137682750D01*
X81008504Y-137684514D01*
X81011830Y-137686259D01*
X81015167Y-137687987D01*
X81018511Y-137689696D01*
X81021865Y-137691388D01*
X81025226Y-137693061D01*
X81028597Y-137694716D01*
X81031974Y-137696353D01*
X81035361Y-137697971D01*
X81038754Y-137699571D01*
X81042157Y-137701153D01*
X81045566Y-137702715D01*
X81048984Y-137704260D01*
X81052408Y-137705786D01*
X81055842Y-137707294D01*
X81059281Y-137708782D01*
X81062729Y-137710253D01*
X81066183Y-137711704D01*
X81069645Y-137713137D01*
X81073113Y-137714551D01*
X81076590Y-137715947D01*
X81080072Y-137717323D01*
X81083562Y-137718681D01*
X81087057Y-137720019D01*
X81090561Y-137721340D01*
X81094069Y-137722640D01*
X81097586Y-137723923D01*
X81101107Y-137725185D01*
X81104636Y-137726429D01*
X81108170Y-137727654D01*
X81111711Y-137728860D01*
X81115257Y-137730046D01*
X81118811Y-137731214D01*
X81122368Y-137732362D01*
X81125933Y-137733492D01*
X81129502Y-137734602D01*
X81133078Y-137735693D01*
X81136658Y-137736764D01*
X81140245Y-137737817D01*
X81143836Y-137738849D01*
X81147434Y-137739863D01*
X81151035Y-137740857D01*
X81154643Y-137741832D01*
X81158254Y-137742787D01*
X81161873Y-137743724D01*
X81165494Y-137744640D01*
X81169122Y-137745538D01*
X81172752Y-137746415D01*
X81176390Y-137747274D01*
X81180029Y-137748112D01*
X81183676Y-137748932D01*
X81187324Y-137749731D01*
X81190979Y-137750512D01*
X81194637Y-137751272D01*
X81198300Y-137752014D01*
X81201966Y-137752735D01*
X81205638Y-137753437D01*
X81209311Y-137754119D01*
X81212991Y-137754782D01*
X81216672Y-137755424D01*
X81220360Y-137756048D01*
X81224049Y-137756651D01*
X81227744Y-137757235D01*
X81231439Y-137757799D01*
X81235142Y-137758344D01*
X81238844Y-137758868D01*
X81242553Y-137759373D01*
X81246263Y-137759858D01*
X81249978Y-137760324D01*
X81253694Y-137760769D01*
X81257416Y-137761195D01*
X81261138Y-137761601D01*
X81264866Y-137761988D01*
X81268595Y-137762354D01*
X81272328Y-137762700D01*
X81276062Y-137763027D01*
X81279802Y-137763334D01*
X81283541Y-137763621D01*
X81287286Y-137763888D01*
X81291030Y-137764135D01*
X81294780Y-137764362D01*
X81298530Y-137764569D01*
X81302284Y-137764757D01*
X81306039Y-137764924D01*
X81309798Y-137765072D01*
X81313557Y-137765199D01*
X81317321Y-137765307D01*
X81321085Y-137765394D01*
X81324853Y-137765462D01*
X81328620Y-137765510D01*
X81332393Y-137765537D01*
X81335706Y-137765545D01*
D11*
X80665792Y-138752788D02*
X80665792Y-142807538D01*
D10*
X80665792Y-142807538D02*
X80621675Y-142848315D01*
X80577328Y-142889414D01*
X80532751Y-142930836D01*
X80487943Y-142972581D01*
X80442902Y-143014651D01*
X80397630Y-143057047D01*
X80352125Y-143099770D01*
X80306387Y-143142822D01*
X80260415Y-143186203D01*
X80214209Y-143229915D01*
X80167769Y-143273958D01*
X80121093Y-143318335D01*
X80074182Y-143363045D01*
X80027036Y-143408091D01*
X79979652Y-143453473D01*
X79932032Y-143499192D01*
X79884175Y-143545250D01*
X79836080Y-143591647D01*
X79787747Y-143638384D01*
X79739176Y-143685463D01*
X79690366Y-143732884D01*
X79641317Y-143780649D01*
X79592028Y-143828758D01*
X79542500Y-143877213D01*
X79492731Y-143926014D01*
X79442723Y-143975163D01*
X79392473Y-144024660D01*
X79341983Y-144074507D01*
X79291251Y-144124703D01*
X79240278Y-144175251D01*
X79189062Y-144226151D01*
X79137605Y-144277404D01*
X79085906Y-144329010D01*
X79033964Y-144380971D01*
X78981780Y-144433288D01*
X78929353Y-144485961D01*
X78876682Y-144538991D01*
X78823769Y-144592379D01*
X78770612Y-144646126D01*
X78717211Y-144700233D01*
X78663567Y-144754699D01*
X78609679Y-144809527D01*
X78555548Y-144864717D01*
X78501172Y-144920269D01*
X78446552Y-144976184D01*
X78391688Y-145032463D01*
X78336580Y-145089107D01*
X78281227Y-145146116D01*
X78225630Y-145203491D01*
X78169789Y-145261233D01*
X78113703Y-145319343D01*
X78057372Y-145377820D01*
X78000796Y-145436667D01*
X77986130Y-145451940D01*
D11*
X81335706Y-137765545D02*
X88845809Y-137765545D01*
D10*
X81370965Y-53144670D02*
X81362751Y-53144710D01*
X81354556Y-53144830D01*
X81346381Y-53145029D01*
X81338227Y-53145307D01*
X81330093Y-53145665D01*
X81321981Y-53146102D01*
X81313890Y-53146617D01*
X81305821Y-53147212D01*
X81297775Y-53147884D01*
X81289751Y-53148635D01*
X81281750Y-53149464D01*
X81273773Y-53150370D01*
X81265820Y-53151355D01*
X81257892Y-53152417D01*
X81249988Y-53153555D01*
X81242110Y-53154771D01*
X81234257Y-53156064D01*
X81226431Y-53157434D01*
X81218632Y-53158879D01*
X81210859Y-53160401D01*
X81203115Y-53161999D01*
X81195398Y-53163673D01*
X81187710Y-53165422D01*
X81180052Y-53167247D01*
X81172423Y-53169146D01*
X81164824Y-53171121D01*
X81157255Y-53173170D01*
X81149718Y-53175293D01*
X81142212Y-53177490D01*
X81134739Y-53179761D01*
X81127298Y-53182106D01*
X81119891Y-53184524D01*
X81112517Y-53187015D01*
X81105178Y-53189578D01*
X81097873Y-53192215D01*
X81090604Y-53194923D01*
X81083371Y-53197703D01*
X81076175Y-53200555D01*
X81069015Y-53203477D01*
X81061894Y-53206471D01*
X81054810Y-53209536D01*
X81047766Y-53212670D01*
X81040760Y-53215875D01*
X81033795Y-53219149D01*
X81026871Y-53222492D01*
X81019987Y-53225905D01*
X81013145Y-53229385D01*
X81006346Y-53232934D01*
X80999590Y-53236551D01*
X80992877Y-53240234D01*
X80986208Y-53243985D01*
X80979584Y-53247803D01*
X80973006Y-53251686D01*
X80966473Y-53255635D01*
X80959987Y-53259649D01*
X80953548Y-53263729D01*
X80947157Y-53267872D01*
X80940814Y-53272079D01*
X80934520Y-53276350D01*
X80928276Y-53280684D01*
X80922082Y-53285080D01*
X80915939Y-53289539D01*
X80909847Y-53294058D01*
X80903807Y-53298639D01*
X80897820Y-53303280D01*
X80891886Y-53307981D01*
X80886006Y-53312742D01*
X80880180Y-53317561D01*
X80874409Y-53322439D01*
X80871544Y-53324900D01*
X80868693Y-53327374D01*
X80865856Y-53329864D01*
X80863034Y-53332367D01*
X80860225Y-53334885D01*
X80857431Y-53337416D01*
X80854651Y-53339962D01*
X80851886Y-53342522D01*
X80849134Y-53345095D01*
X80846398Y-53347683D01*
X80843676Y-53350284D01*
X80840968Y-53352899D01*
X80838276Y-53355527D01*
X80835598Y-53358169D01*
X80832935Y-53360824D01*
X80830287Y-53363493D01*
X80827654Y-53366174D01*
X80825036Y-53368870D01*
X80822433Y-53371578D01*
X80819845Y-53374299D01*
X80817273Y-53377033D01*
X80814716Y-53379780D01*
X80812174Y-53382540D01*
X80809648Y-53385313D01*
X80807137Y-53388098D01*
X80804642Y-53390896D01*
X80802163Y-53393706D01*
X80799699Y-53396529D01*
X80797251Y-53399364D01*
X80794819Y-53402212D01*
X80792402Y-53405071D01*
X80790002Y-53407943D01*
X80787618Y-53410827D01*
X80785250Y-53413723D01*
X80782898Y-53416630D01*
X80780562Y-53419549D01*
X80778242Y-53422480D01*
X80775939Y-53425423D01*
X80773652Y-53428377D01*
X80771382Y-53431343D01*
X80769128Y-53434319D01*
X80766890Y-53437308D01*
X80764670Y-53440307D01*
X80762465Y-53443318D01*
X80760278Y-53446339D01*
X80758107Y-53449372D01*
X80755954Y-53452415D01*
X80753816Y-53455470D01*
X80751697Y-53458534D01*
X80749593Y-53461610D01*
X80747507Y-53464696D01*
X80745438Y-53467793D01*
X80743387Y-53470899D01*
X80741352Y-53474017D01*
X80739335Y-53477144D01*
X80737334Y-53480282D01*
X80735352Y-53483429D01*
X80733386Y-53486587D01*
X80731438Y-53489753D01*
X80729507Y-53492931D01*
X80727595Y-53496117D01*
X80725699Y-53499314D01*
X80723821Y-53502520D01*
X80721961Y-53505736D01*
X80720119Y-53508960D01*
X80718294Y-53512195D01*
X80716487Y-53515438D01*
X80714698Y-53518691D01*
X80712927Y-53521951D01*
X80711173Y-53525222D01*
X80709438Y-53528501D01*
X80707720Y-53531790D01*
X80706021Y-53535086D01*
X80704340Y-53538392D01*
X80702677Y-53541705D01*
X80701031Y-53545028D01*
X80699405Y-53548359D01*
X80697796Y-53551698D01*
X80696206Y-53555045D01*
X80694633Y-53558401D01*
X80693080Y-53561764D01*
X80691544Y-53565136D01*
X80690027Y-53568514D01*
X80688528Y-53571902D01*
X80687049Y-53575296D01*
X80685587Y-53578700D01*
X80684144Y-53582109D01*
X80682719Y-53585527D01*
X80681314Y-53588952D01*
X80679926Y-53592385D01*
X80678558Y-53595823D01*
X80677207Y-53599271D01*
X80675876Y-53602724D01*
X80674564Y-53606185D01*
X80673270Y-53609652D01*
X80671995Y-53613128D01*
X80670739Y-53616608D01*
X80669502Y-53620097D01*
X80668284Y-53623591D01*
X80667084Y-53627093D01*
X80665904Y-53630600D01*
X80664742Y-53634115D01*
X80663600Y-53637635D01*
X80662476Y-53641163D01*
X80661372Y-53644695D01*
X80660286Y-53648234D01*
X80659220Y-53651779D01*
X80658173Y-53655331D01*
X80657145Y-53658887D01*
X80656136Y-53662450D01*
X80655147Y-53666018D01*
X80654176Y-53669593D01*
X80653225Y-53673172D01*
X80652293Y-53676758D01*
X80651380Y-53680347D01*
X80650487Y-53683944D01*
X80649613Y-53687545D01*
X80648758Y-53691152D01*
X80647922Y-53694763D01*
X80647106Y-53698381D01*
X80646310Y-53702002D01*
X80645532Y-53705630D01*
X80644774Y-53709261D01*
X80644036Y-53712898D01*
X80643317Y-53716539D01*
X80642617Y-53720186D01*
X80641938Y-53723835D01*
X80641277Y-53727492D01*
X80640636Y-53731150D01*
X80640015Y-53734816D01*
X80639413Y-53738483D01*
X80638831Y-53742157D01*
X80638268Y-53745833D01*
X80637725Y-53749516D01*
X80637202Y-53753200D01*
X80636698Y-53756890D01*
X80636214Y-53760583D01*
X80635750Y-53764281D01*
X80635305Y-53767982D01*
X80634880Y-53771688D01*
X80634475Y-53775396D01*
X80634089Y-53779109D01*
X80633723Y-53782824D01*
X80633377Y-53786545D01*
X80633051Y-53790267D01*
X80632745Y-53793995D01*
X80632458Y-53797724D01*
X80632191Y-53801459D01*
X80631945Y-53805195D01*
X80631717Y-53808936D01*
X80631510Y-53812678D01*
X80631323Y-53816425D01*
X80631156Y-53820173D01*
X80631008Y-53823927D01*
X80630880Y-53827681D01*
X80630773Y-53831440D01*
X80630685Y-53835200D01*
X80630617Y-53838965D01*
X80630570Y-53842731D01*
X80630542Y-53846501D01*
X80630534Y-53849845D01*
D11*
X82287690Y-53144670D02*
X81370965Y-53144670D01*
D10*
X84967353Y-167171297D02*
X84970182Y-167174112D01*
X84973021Y-167176908D01*
X84975870Y-167179687D01*
X84978729Y-167182447D01*
X84981599Y-167185190D01*
X84984477Y-167187914D01*
X84987367Y-167190621D01*
X84990265Y-167193308D01*
X84993174Y-167195978D01*
X84996092Y-167198629D01*
X84999021Y-167201263D01*
X85001958Y-167203878D01*
X85004905Y-167206475D01*
X85007862Y-167209053D01*
X85010828Y-167211614D01*
X85013803Y-167214156D01*
X85016789Y-167216680D01*
X85019782Y-167219185D01*
X85022786Y-167221673D01*
X85025798Y-167224141D01*
X85028820Y-167226592D01*
X85031851Y-167229024D01*
X85034891Y-167231438D01*
X85037939Y-167233833D01*
X85040997Y-167236210D01*
X85044063Y-167238568D01*
X85047139Y-167240909D01*
X85050222Y-167243230D01*
X85053315Y-167245533D01*
X85056416Y-167247817D01*
X85059526Y-167250084D01*
X85062644Y-167252331D01*
X85065771Y-167254560D01*
X85068905Y-167256770D01*
X85072049Y-167258962D01*
X85075200Y-167261135D01*
X85078360Y-167263290D01*
X85081528Y-167265426D01*
X85084704Y-167267543D01*
X85087888Y-167269641D01*
X85091080Y-167271722D01*
X85094279Y-167273782D01*
X85097487Y-167275825D01*
X85100702Y-167277849D01*
X85103925Y-167279854D01*
X85107156Y-167281840D01*
X85110394Y-167283807D01*
X85113640Y-167285756D01*
X85116893Y-167287685D01*
X85120153Y-167289596D01*
X85123422Y-167291488D01*
X85126696Y-167293361D01*
X85129979Y-167295216D01*
X85133268Y-167297051D01*
X85139868Y-167300664D01*
X85146496Y-167304202D01*
X85153151Y-167307664D01*
X85159833Y-167311049D01*
X85166541Y-167314359D01*
X85173274Y-167317592D01*
X85180033Y-167320748D01*
X85186816Y-167323827D01*
X85193623Y-167326830D01*
X85200453Y-167329755D01*
X85207307Y-167332604D01*
X85214182Y-167335375D01*
X85221080Y-167338069D01*
X85227998Y-167340685D01*
X85234938Y-167343224D01*
X85241897Y-167345685D01*
X85248875Y-167348067D01*
X85255873Y-167350372D01*
X85262888Y-167352599D01*
X85269922Y-167354748D01*
X85276972Y-167356818D01*
X85284039Y-167358809D01*
X85291122Y-167360722D01*
X85298219Y-167362557D01*
X85305332Y-167364312D01*
X85312458Y-167365989D01*
X85319598Y-167367586D01*
X85326751Y-167369105D01*
X85333915Y-167370544D01*
X85341091Y-167371904D01*
X85348278Y-167373185D01*
X85355476Y-167374387D01*
X85362682Y-167375509D01*
X85369898Y-167376551D01*
X85377122Y-167377514D01*
X85384353Y-167378397D01*
X85391592Y-167379200D01*
X85398837Y-167379924D01*
X85406087Y-167380568D01*
X85413343Y-167381132D01*
X85420603Y-167381616D01*
X85427867Y-167382020D01*
X85435133Y-167382344D01*
X85442402Y-167382589D01*
X85449673Y-167382753D01*
X85456945Y-167382837D01*
X85464218Y-167382842D01*
X85467854Y-167382814D01*
X85471490Y-167382766D01*
X85475125Y-167382698D01*
X85478761Y-167382610D01*
X85482396Y-167382502D01*
X85486031Y-167382375D01*
X85489665Y-167382227D01*
X85493298Y-167382059D01*
X85496931Y-167381871D01*
X85500563Y-167381663D01*
X85504193Y-167381436D01*
X85507824Y-167381188D01*
X85511452Y-167380920D01*
X85515080Y-167380632D01*
X85518707Y-167380325D01*
X85522332Y-167379997D01*
X85525956Y-167379649D01*
X85529579Y-167379282D01*
X85533200Y-167378894D01*
X85536819Y-167378487D01*
X85540437Y-167378059D01*
X85544053Y-167377612D01*
X85547667Y-167377145D01*
X85551279Y-167376658D01*
X85554889Y-167376151D01*
X85558497Y-167375624D01*
X85562102Y-167375077D01*
X85565706Y-167374510D01*
X85569307Y-167373923D01*
X85572906Y-167373317D01*
X85576502Y-167372690D01*
X85580095Y-167372044D01*
X85583686Y-167371378D01*
X85587275Y-167370692D01*
X85590860Y-167369986D01*
X85594442Y-167369261D01*
X85598021Y-167368515D01*
X85601598Y-167367750D01*
X85605171Y-167366965D01*
X85608741Y-167366160D01*
X85612308Y-167365336D01*
X85615871Y-167364491D01*
X85619431Y-167363627D01*
X85622987Y-167362744D01*
X85626540Y-167361840D01*
X85630089Y-167360917D01*
X85633634Y-167359974D01*
X85637176Y-167359011D01*
X85640713Y-167358029D01*
X85644247Y-167357027D01*
X85647776Y-167356006D01*
X85651301Y-167354965D01*
X85654822Y-167353904D01*
X85658339Y-167352823D01*
X85661851Y-167351723D01*
X85665359Y-167350604D01*
X85668862Y-167349465D01*
X85672361Y-167348306D01*
X85675855Y-167347128D01*
X85679345Y-167345930D01*
X85682829Y-167344713D01*
X85686309Y-167343476D01*
X85689783Y-167342220D01*
X85693253Y-167340944D01*
X85696717Y-167339649D01*
X85700176Y-167338335D01*
X85703630Y-167337001D01*
X85707079Y-167335647D01*
X85710522Y-167334275D01*
X85713960Y-167332883D01*
X85717392Y-167331472D01*
X85720819Y-167330041D01*
X85724239Y-167328591D01*
X85727655Y-167327121D01*
X85731064Y-167325633D01*
X85734467Y-167324125D01*
X85737864Y-167322598D01*
X85741256Y-167321051D01*
X85744641Y-167319486D01*
X85748020Y-167317901D01*
X85751393Y-167316297D01*
X85754760Y-167314674D01*
X85758119Y-167313032D01*
X85761473Y-167311370D01*
X85764820Y-167309690D01*
X85768161Y-167307990D01*
X85771495Y-167306272D01*
X85774822Y-167304534D01*
X85778142Y-167302778D01*
X85781456Y-167301002D01*
X85784762Y-167299207D01*
X85788062Y-167297393D01*
X85791354Y-167295561D01*
X85794640Y-167293709D01*
X85797918Y-167291838D01*
X85801189Y-167289949D01*
X85804453Y-167288041D01*
X85807710Y-167286113D01*
X85810958Y-167284167D01*
X85814200Y-167282202D01*
X85817433Y-167280218D01*
X85820660Y-167278216D01*
X85823878Y-167276194D01*
X85827089Y-167274154D01*
X85830292Y-167272095D01*
X85833487Y-167270017D01*
X85836674Y-167267921D01*
X85839853Y-167265806D01*
X85843024Y-167263673D01*
X85846187Y-167261520D01*
X85849342Y-167259349D01*
X85852489Y-167257159D01*
X85855626Y-167254951D01*
X85858757Y-167252724D01*
X85861878Y-167250479D01*
X85864991Y-167248214D01*
X85868095Y-167245932D01*
X85871191Y-167243630D01*
X85874278Y-167241311D01*
X85877357Y-167238973D01*
X85880426Y-167236616D01*
X85883487Y-167234241D01*
X85886539Y-167231848D01*
X85889582Y-167229435D01*
X85892616Y-167227005D01*
X85895641Y-167224556D01*
X85898657Y-167222089D01*
X85901664Y-167219604D01*
X85904661Y-167217100D01*
X85907649Y-167214577D01*
X85910628Y-167212037D01*
X85913597Y-167209478D01*
X85916557Y-167206901D01*
X85919508Y-167204306D01*
X85922448Y-167201692D01*
X85925380Y-167199060D01*
X85928301Y-167196410D01*
X85931213Y-167193742D01*
X85934115Y-167191056D01*
X85937008Y-167188350D01*
X85939889Y-167185628D01*
X85942762Y-167182887D01*
X85945624Y-167180128D01*
X85948477Y-167177350D01*
X85951319Y-167174555D01*
X85954151Y-167171741D01*
X85954596Y-167171297D01*
D11*
X85954596Y-167171297D02*
X92794784Y-160295850D01*
X88316928Y-138752788D02*
X80665792Y-138752788D01*
X88845809Y-137765545D02*
X89762535Y-139316927D01*
X88916326Y-139810549D02*
X88316928Y-138752788D01*
D10*
X89586243Y-139986841D02*
X89583227Y-139988553D01*
X89580208Y-139990244D01*
X89577185Y-139991914D01*
X89574158Y-139993563D01*
X89571128Y-139995191D01*
X89568094Y-139996799D01*
X89565056Y-139998386D01*
X89562016Y-139999952D01*
X89558972Y-140001498D01*
X89555925Y-140003022D01*
X89552874Y-140004526D01*
X89549821Y-140006009D01*
X89546764Y-140007472D01*
X89543705Y-140008913D01*
X89540642Y-140010334D01*
X89537577Y-140011734D01*
X89534509Y-140013114D01*
X89531439Y-140014473D01*
X89528366Y-140015811D01*
X89525290Y-140017128D01*
X89522212Y-140018425D01*
X89519132Y-140019700D01*
X89516050Y-140020956D01*
X89512965Y-140022190D01*
X89509878Y-140023404D01*
X89506790Y-140024597D01*
X89503699Y-140025770D01*
X89500606Y-140026922D01*
X89497512Y-140028053D01*
X89494416Y-140029163D01*
X89491318Y-140030253D01*
X89488219Y-140031322D01*
X89485118Y-140032371D01*
X89482016Y-140033399D01*
X89478912Y-140034406D01*
X89475808Y-140035393D01*
X89472702Y-140036359D01*
X89469595Y-140037305D01*
X89466487Y-140038230D01*
X89463378Y-140039135D01*
X89460268Y-140040018D01*
X89457158Y-140040882D01*
X89454047Y-140041725D01*
X89450935Y-140042547D01*
X89447823Y-140043349D01*
X89444710Y-140044130D01*
X89441597Y-140044891D01*
X89438483Y-140045631D01*
X89435369Y-140046350D01*
X89432256Y-140047050D01*
X89429142Y-140047728D01*
X89426028Y-140048387D01*
X89422914Y-140049025D01*
X89419801Y-140049642D01*
X89416687Y-140050239D01*
X89413574Y-140050816D01*
X89410462Y-140051372D01*
X89407350Y-140051907D01*
X89404238Y-140052423D01*
X89401128Y-140052918D01*
X89398018Y-140053393D01*
X89394909Y-140053847D01*
X89391800Y-140054281D01*
X89388693Y-140054695D01*
X89385587Y-140055088D01*
X89382482Y-140055461D01*
X89379378Y-140055814D01*
X89376275Y-140056146D01*
X89373174Y-140056459D01*
X89370074Y-140056751D01*
X89366976Y-140057022D01*
X89363880Y-140057274D01*
X89360785Y-140057505D01*
X89357692Y-140057717D01*
X89354601Y-140057908D01*
X89351512Y-140058079D01*
X89348425Y-140058229D01*
X89345340Y-140058360D01*
X89342257Y-140058471D01*
X89339176Y-140058561D01*
X89336098Y-140058631D01*
X89333022Y-140058682D01*
X89329949Y-140058712D01*
X89326878Y-140058722D01*
X89323810Y-140058713D01*
X89320745Y-140058683D01*
X89317683Y-140058633D01*
X89314623Y-140058564D01*
X89311567Y-140058474D01*
X89308514Y-140058365D01*
X89305463Y-140058235D01*
X89302416Y-140058086D01*
X89299373Y-140057917D01*
X89296332Y-140057728D01*
X89293296Y-140057519D01*
X89290262Y-140057291D01*
X89287233Y-140057043D01*
X89284207Y-140056774D01*
X89281185Y-140056487D01*
X89278167Y-140056179D01*
X89275152Y-140055852D01*
X89272142Y-140055505D01*
X89269136Y-140055138D01*
X89266134Y-140054752D01*
X89263136Y-140054346D01*
X89260143Y-140053921D01*
X89257154Y-140053476D01*
X89254169Y-140053011D01*
X89251190Y-140052527D01*
X89248214Y-140052024D01*
X89245244Y-140051501D01*
X89242278Y-140050958D01*
X89239318Y-140050396D01*
X89236362Y-140049815D01*
X89233411Y-140049214D01*
X89230465Y-140048594D01*
X89227525Y-140047955D01*
X89224589Y-140047296D01*
X89221660Y-140046618D01*
X89218735Y-140045920D01*
X89215816Y-140045204D01*
X89212903Y-140044468D01*
X89209995Y-140043713D01*
X89207093Y-140042938D01*
X89204197Y-140042145D01*
X89201306Y-140041332D01*
X89198422Y-140040501D01*
X89195543Y-140039650D01*
X89192671Y-140038780D01*
X89189805Y-140037891D01*
X89186945Y-140036984D01*
X89184092Y-140036057D01*
X89181245Y-140035111D01*
X89178404Y-140034146D01*
X89175570Y-140033163D01*
X89172742Y-140032160D01*
X89169921Y-140031139D01*
X89167107Y-140030098D01*
X89164299Y-140029040D01*
X89161499Y-140027962D01*
X89158706Y-140026865D01*
X89155919Y-140025750D01*
X89153140Y-140024616D01*
X89150367Y-140023463D01*
X89147603Y-140022292D01*
X89144845Y-140021102D01*
X89142095Y-140019893D01*
X89139352Y-140018666D01*
X89136617Y-140017420D01*
X89133889Y-140016156D01*
X89131169Y-140014874D01*
X89128457Y-140013572D01*
X89125753Y-140012253D01*
X89123056Y-140010914D01*
X89120367Y-140009558D01*
X89117687Y-140008183D01*
X89115014Y-140006790D01*
X89112350Y-140005378D01*
X89109694Y-140003949D01*
X89107046Y-140002501D01*
X89104406Y-140001034D01*
X89101775Y-139999550D01*
X89099153Y-139998047D01*
X89096538Y-139996526D01*
X89093933Y-139994987D01*
X89091336Y-139993430D01*
X89088748Y-139991855D01*
X89086169Y-139990261D01*
X89083599Y-139988650D01*
X89081037Y-139987021D01*
X89078485Y-139985373D01*
X89075942Y-139983708D01*
X89073408Y-139982025D01*
X89070883Y-139980324D01*
X89068367Y-139978605D01*
X89065861Y-139976868D01*
X89063364Y-139975113D01*
X89060876Y-139973340D01*
X89058399Y-139971550D01*
X89055930Y-139969742D01*
X89053472Y-139967916D01*
X89051022Y-139966072D01*
X89048583Y-139964211D01*
X89046154Y-139962332D01*
X89043735Y-139960436D01*
X89041325Y-139958521D01*
X89038926Y-139956590D01*
X89036536Y-139954640D01*
X89034157Y-139952673D01*
X89031788Y-139950689D01*
X89029430Y-139948687D01*
X89027081Y-139946667D01*
X89024743Y-139944631D01*
X89022416Y-139942576D01*
X89020099Y-139940505D01*
X89017792Y-139938415D01*
X89015497Y-139936309D01*
X89013211Y-139934185D01*
X89010937Y-139932044D01*
X89008674Y-139929885D01*
X89006421Y-139927710D01*
X89004180Y-139925517D01*
X89001949Y-139923307D01*
X88999730Y-139921079D01*
X88997521Y-139918834D01*
X88995324Y-139916572D01*
X88993138Y-139914294D01*
X88990964Y-139911997D01*
X88988801Y-139909684D01*
X88986649Y-139907354D01*
X88984508Y-139905007D01*
X88982380Y-139902642D01*
X88980263Y-139900261D01*
X88978157Y-139897862D01*
X88976063Y-139895447D01*
X88973981Y-139893014D01*
X88971911Y-139890565D01*
X88969853Y-139888099D01*
X88967807Y-139885616D01*
X88965772Y-139883115D01*
X88963750Y-139880599D01*
X88961740Y-139878065D01*
X88959743Y-139875514D01*
X88957757Y-139872946D01*
X88955784Y-139870362D01*
X88953823Y-139867761D01*
X88951875Y-139865143D01*
X88949939Y-139862509D01*
X88948016Y-139859858D01*
X88946105Y-139857189D01*
X88944207Y-139854505D01*
X88942321Y-139851803D01*
X88940449Y-139849085D01*
X88938589Y-139846351D01*
X88936743Y-139843599D01*
X88934909Y-139840831D01*
X88933088Y-139838047D01*
X88931280Y-139835246D01*
X88929486Y-139832428D01*
X88927704Y-139829594D01*
X88925936Y-139826743D01*
X88924182Y-139823876D01*
X88922440Y-139820992D01*
X88920712Y-139818092D01*
X88918998Y-139815175D01*
X88917297Y-139812242D01*
X88916326Y-139810549D01*
X89762535Y-139316927D02*
X89764247Y-139319943D01*
X89765938Y-139322962D01*
X89767608Y-139325985D01*
X89769257Y-139329012D01*
X89770885Y-139332042D01*
X89772493Y-139335076D01*
X89774080Y-139338114D01*
X89775646Y-139341154D01*
X89777192Y-139344198D01*
X89778716Y-139347245D01*
X89780220Y-139350296D01*
X89781703Y-139353349D01*
X89783166Y-139356406D01*
X89784607Y-139359465D01*
X89786028Y-139362528D01*
X89787428Y-139365593D01*
X89788808Y-139368661D01*
X89790167Y-139371731D01*
X89791505Y-139374804D01*
X89792822Y-139377880D01*
X89794119Y-139380958D01*
X89795394Y-139384038D01*
X89796650Y-139387120D01*
X89797884Y-139390205D01*
X89799098Y-139393292D01*
X89800291Y-139396381D01*
X89801464Y-139399471D01*
X89802616Y-139402564D01*
X89803747Y-139405658D01*
X89804857Y-139408754D01*
X89805947Y-139411852D01*
X89807016Y-139414951D01*
X89808065Y-139418052D01*
X89809093Y-139421154D01*
X89810100Y-139424258D01*
X89811087Y-139427362D01*
X89812053Y-139430468D01*
X89812999Y-139433575D01*
X89813924Y-139436683D01*
X89814829Y-139439792D01*
X89815712Y-139442902D01*
X89816576Y-139446012D01*
X89817419Y-139449123D01*
X89818241Y-139452235D01*
X89819043Y-139455348D01*
X89819824Y-139458460D01*
X89820585Y-139461573D01*
X89821325Y-139464687D01*
X89822044Y-139467801D01*
X89822744Y-139470914D01*
X89823422Y-139474028D01*
X89824081Y-139477142D01*
X89824719Y-139480256D01*
X89825336Y-139483369D01*
X89825933Y-139486483D01*
X89826510Y-139489596D01*
X89827066Y-139492708D01*
X89827601Y-139495820D01*
X89828117Y-139498932D01*
X89828612Y-139502042D01*
X89829087Y-139505152D01*
X89829541Y-139508261D01*
X89829975Y-139511370D01*
X89830389Y-139514477D01*
X89830782Y-139517583D01*
X89831155Y-139520688D01*
X89831508Y-139523792D01*
X89831840Y-139526895D01*
X89832153Y-139529996D01*
X89832445Y-139533096D01*
X89832716Y-139536194D01*
X89832968Y-139539290D01*
X89833199Y-139542385D01*
X89833411Y-139545478D01*
X89833602Y-139548569D01*
X89833773Y-139551658D01*
X89833923Y-139554745D01*
X89834054Y-139557830D01*
X89834165Y-139560913D01*
X89834255Y-139563994D01*
X89834325Y-139567072D01*
X89834376Y-139570148D01*
X89834406Y-139573221D01*
X89834416Y-139576292D01*
X89834407Y-139579359D01*
X89834377Y-139582425D01*
X89834327Y-139585487D01*
X89834258Y-139588547D01*
X89834168Y-139591603D01*
X89834059Y-139594656D01*
X89833929Y-139597707D01*
X89833780Y-139600754D01*
X89833611Y-139603797D01*
X89833422Y-139606838D01*
X89833213Y-139609874D01*
X89832985Y-139612908D01*
X89832737Y-139615937D01*
X89832468Y-139618963D01*
X89832181Y-139621985D01*
X89831873Y-139625003D01*
X89831546Y-139628017D01*
X89831199Y-139631028D01*
X89830832Y-139634034D01*
X89830446Y-139637036D01*
X89830040Y-139640033D01*
X89829615Y-139643027D01*
X89829170Y-139646016D01*
X89828705Y-139649000D01*
X89828221Y-139651980D01*
X89827718Y-139654955D01*
X89827195Y-139657926D01*
X89826652Y-139660892D01*
X89826090Y-139663852D01*
X89825509Y-139666808D01*
X89824908Y-139669759D01*
X89824288Y-139672705D01*
X89823649Y-139675645D01*
X89822990Y-139678580D01*
X89822312Y-139681510D01*
X89821614Y-139684435D01*
X89820898Y-139687353D01*
X89820162Y-139690267D01*
X89819407Y-139693174D01*
X89818632Y-139696077D01*
X89817839Y-139698973D01*
X89817026Y-139701863D01*
X89816195Y-139704747D01*
X89815344Y-139707626D01*
X89814474Y-139710498D01*
X89813585Y-139713365D01*
X89812678Y-139716224D01*
X89811751Y-139719078D01*
X89810805Y-139721925D01*
X89809840Y-139724766D01*
X89808857Y-139727600D01*
X89807854Y-139730428D01*
X89806833Y-139733248D01*
X89805792Y-139736063D01*
X89804734Y-139738870D01*
X89803656Y-139741671D01*
X89802559Y-139744464D01*
X89801444Y-139747251D01*
X89800310Y-139750030D01*
X89799157Y-139752802D01*
X89797986Y-139755567D01*
X89796796Y-139758325D01*
X89795587Y-139761075D01*
X89794360Y-139763818D01*
X89793115Y-139766552D01*
X89791850Y-139769280D01*
X89790568Y-139772000D01*
X89789266Y-139774713D01*
X89787947Y-139777417D01*
X89786609Y-139780113D01*
X89785252Y-139782802D01*
X89783877Y-139785483D01*
X89782484Y-139788155D01*
X89781072Y-139790819D01*
X89779643Y-139793475D01*
X89778195Y-139796123D01*
X89776728Y-139798763D01*
X89775244Y-139801394D01*
X89773741Y-139804016D01*
X89772220Y-139806631D01*
X89770681Y-139809236D01*
X89769124Y-139811833D01*
X89767549Y-139814420D01*
X89765955Y-139817000D01*
X89764344Y-139819570D01*
X89762715Y-139822131D01*
X89761068Y-139824684D01*
X89759402Y-139827227D01*
X89757719Y-139829761D01*
X89756018Y-139832286D01*
X89754299Y-139834801D01*
X89752562Y-139837308D01*
X89750807Y-139839805D01*
X89749034Y-139842292D01*
X89747244Y-139844770D01*
X89745436Y-139847239D01*
X89743610Y-139849697D01*
X89741767Y-139852146D01*
X89739905Y-139854585D01*
X89738026Y-139857015D01*
X89736130Y-139859434D01*
X89734216Y-139861843D01*
X89732284Y-139864243D01*
X89730334Y-139866632D01*
X89728368Y-139869011D01*
X89726383Y-139871380D01*
X89724381Y-139873739D01*
X89722362Y-139876087D01*
X89720325Y-139878425D01*
X89718271Y-139880753D01*
X89716199Y-139883069D01*
X89714110Y-139885376D01*
X89712003Y-139887671D01*
X89709879Y-139889957D01*
X89707738Y-139892231D01*
X89705580Y-139894494D01*
X89703404Y-139896747D01*
X89701211Y-139898988D01*
X89699001Y-139901219D01*
X89696773Y-139903438D01*
X89694529Y-139905646D01*
X89692267Y-139907844D01*
X89689988Y-139910029D01*
X89687692Y-139912204D01*
X89685379Y-139914367D01*
X89683048Y-139916519D01*
X89680701Y-139918659D01*
X89678337Y-139920788D01*
X89675955Y-139922905D01*
X89673557Y-139925011D01*
X89671142Y-139927104D01*
X89668709Y-139929186D01*
X89666260Y-139931256D01*
X89663793Y-139933315D01*
X89661310Y-139935361D01*
X89658810Y-139937395D01*
X89656293Y-139939417D01*
X89653759Y-139941427D01*
X89651209Y-139943425D01*
X89648641Y-139945410D01*
X89646057Y-139947383D01*
X89643456Y-139949344D01*
X89640838Y-139951292D01*
X89638203Y-139953228D01*
X89635552Y-139955151D01*
X89632884Y-139957062D01*
X89630200Y-139958960D01*
X89627498Y-139960846D01*
X89624780Y-139962718D01*
X89622045Y-139964578D01*
X89619294Y-139966424D01*
X89616526Y-139968258D01*
X89613742Y-139970079D01*
X89610940Y-139971886D01*
X89608123Y-139973681D01*
X89605289Y-139975462D01*
X89602438Y-139977230D01*
X89599571Y-139978985D01*
X89596687Y-139980726D01*
X89593786Y-139982454D01*
X89590870Y-139984169D01*
X89587937Y-139985869D01*
X89586243Y-139986841D01*
D11*
X92045000Y-53144670D02*
X82287690Y-53144670D01*
X92045000Y-60619514D02*
X92045000Y-53144670D01*
D10*
X92794784Y-160295850D02*
X92823533Y-160267115D01*
X92852297Y-160238394D01*
X92881033Y-160209728D01*
X92909784Y-160181077D01*
X92938507Y-160152481D01*
X92967244Y-160123900D01*
X92995953Y-160095373D01*
X93024677Y-160066862D01*
X93053374Y-160038405D01*
X93082085Y-160009963D01*
X93110768Y-159981575D01*
X93139466Y-159953202D01*
X93168136Y-159924884D01*
X93196821Y-159896580D01*
X93225478Y-159868331D01*
X93254150Y-159840096D01*
X93282794Y-159811916D01*
X93311453Y-159783750D01*
X93340085Y-159755639D01*
X93368730Y-159727542D01*
X93397349Y-159699499D01*
X93425982Y-159671471D01*
X93454588Y-159643497D01*
X93483208Y-159615537D01*
X93511801Y-159587632D01*
X93540408Y-159559741D01*
X93568989Y-159531903D01*
X93597583Y-159504080D01*
X93626151Y-159476311D01*
X93654733Y-159448557D01*
X93683288Y-159420855D01*
X93711857Y-159393169D01*
X93740400Y-159365536D01*
X93768956Y-159337917D01*
X93797487Y-159310352D01*
X93826031Y-159282801D01*
X93854548Y-159255304D01*
X93883080Y-159227821D01*
X93911585Y-159200391D01*
X93940104Y-159172975D01*
X93968597Y-159145613D01*
X93997103Y-159118265D01*
X94025584Y-159090970D01*
X94054078Y-159063689D01*
X94082546Y-159036461D01*
X94111028Y-159009248D01*
X94139484Y-158982087D01*
X94167953Y-158954941D01*
X94196397Y-158927847D01*
X94224854Y-158900768D01*
X94253286Y-158873741D01*
X94281731Y-158846729D01*
X94310150Y-158819768D01*
X94338583Y-158792823D01*
X94366991Y-158765929D01*
X94395411Y-158739050D01*
X94423806Y-158712223D01*
X94452215Y-158685411D01*
X94480598Y-158658650D01*
X94508995Y-158631904D01*
X94537366Y-158605210D01*
X94565750Y-158578530D01*
X94594110Y-158551902D01*
X94622482Y-158525289D01*
X94650830Y-158498727D01*
X94679190Y-158472180D01*
X94707526Y-158445683D01*
X94735874Y-158419202D01*
X94764198Y-158392771D01*
X94792535Y-158366356D01*
X94820847Y-158339991D01*
X94849172Y-158313642D01*
X94877472Y-158287343D01*
X94905785Y-158261059D01*
X94934074Y-158234825D01*
X94962375Y-158208607D01*
X94990652Y-158182439D01*
X95018942Y-158156286D01*
X95047207Y-158130183D01*
X95075485Y-158104095D01*
X95103739Y-158078057D01*
X95132005Y-158052035D01*
X95160248Y-158026062D01*
X95188502Y-158000105D01*
X95216733Y-157974197D01*
X95244976Y-157948304D01*
X95273196Y-157922461D01*
X95301427Y-157896634D01*
X95329635Y-157870856D01*
X95357855Y-157845093D01*
X95386052Y-157819379D01*
X95414260Y-157793681D01*
X95442445Y-157768032D01*
X95470643Y-157742399D01*
X95498816Y-157716814D01*
X95527002Y-157691245D01*
X95555165Y-157665725D01*
X95583339Y-157640220D01*
X95611490Y-157614764D01*
X95639654Y-157589323D01*
X95667794Y-157563931D01*
X95695946Y-157538555D01*
X95724075Y-157513227D01*
X95752215Y-157487914D01*
X95780333Y-157462650D01*
X95808463Y-157437402D01*
X95836569Y-157412201D01*
X95864688Y-157387017D01*
X95892783Y-157361880D01*
X95920890Y-157336759D01*
X95948975Y-157311686D01*
X95977071Y-157286628D01*
X96005144Y-157261619D01*
X96033229Y-157236625D01*
X96061292Y-157211679D01*
X96089366Y-157186748D01*
X96117417Y-157161865D01*
X96145481Y-157136998D01*
X96173521Y-157112178D01*
X96201573Y-157087374D01*
X96229603Y-157062617D01*
X96257644Y-157037877D01*
X96285663Y-157013183D01*
X96313693Y-156988505D01*
X96341701Y-156963874D01*
X96369721Y-156939259D01*
X96397718Y-156914691D01*
X96425727Y-156890139D01*
X96453713Y-156865633D01*
X96481711Y-156841144D01*
X96509687Y-156816701D01*
X96537674Y-156792274D01*
X96565639Y-156767893D01*
X96593616Y-156743529D01*
X96621570Y-156719211D01*
X96649536Y-156694909D01*
X96677479Y-156670653D01*
X96705435Y-156646413D01*
X96733368Y-156622219D01*
X96761312Y-156598042D01*
X96789235Y-156573910D01*
X96817169Y-156549795D01*
X96845081Y-156525725D01*
X96873004Y-156501672D01*
X96900906Y-156477664D01*
X96928819Y-156453673D01*
X96956710Y-156429727D01*
X96984612Y-156405797D01*
X97012493Y-156381913D01*
X97040385Y-156358045D01*
X97068255Y-156334222D01*
X97096137Y-156310416D01*
X97123997Y-156286654D01*
X97151868Y-156262910D01*
X97179717Y-156239210D01*
X97207578Y-156215526D01*
X97235417Y-156191888D01*
X97263268Y-156168266D01*
X97291097Y-156144688D01*
X97318937Y-156121128D01*
X97346755Y-156097611D01*
X97374585Y-156074112D01*
X97402394Y-156050657D01*
X97430214Y-156027218D01*
X97458012Y-156003824D01*
X97485821Y-155980446D01*
X97513609Y-155957113D01*
X97541409Y-155933796D01*
X97569187Y-155910523D01*
X97596976Y-155887267D01*
X97624744Y-155864055D01*
X97652523Y-155840860D01*
X97680280Y-155817708D01*
X97708049Y-155794574D01*
X97735797Y-155771483D01*
X97763556Y-155748408D01*
X97791294Y-155725378D01*
X97819043Y-155702364D01*
X97846770Y-155679394D01*
X97874509Y-155656440D01*
X97902227Y-155633530D01*
X97929956Y-155610636D01*
X97977813Y-155571186D01*
X96179617Y-152468420D02*
X96177905Y-152465404D01*
X96176215Y-152462385D01*
X96174544Y-152459362D01*
X96172895Y-152456335D01*
X96171267Y-152453304D01*
X96169659Y-152450271D01*
X96168072Y-152447233D01*
X96166506Y-152444192D01*
X96164960Y-152441148D01*
X96163436Y-152438101D01*
X96161932Y-152435050D01*
X96160449Y-152431997D01*
X96158986Y-152428940D01*
X96157545Y-152425881D01*
X96156124Y-152422818D01*
X96154724Y-152419753D01*
X96153344Y-152416685D01*
X96151986Y-152413615D01*
X96150648Y-152410542D01*
X96149330Y-152407466D01*
X96148034Y-152404388D01*
X96146758Y-152401308D01*
X96145503Y-152398225D01*
X96144268Y-152395141D01*
X96143054Y-152392054D01*
X96141861Y-152388965D01*
X96140689Y-152385874D01*
X96139537Y-152382782D01*
X96138406Y-152379687D01*
X96137295Y-152376591D01*
X96136205Y-152373493D01*
X96135136Y-152370394D01*
X96134087Y-152367293D01*
X96133059Y-152364191D01*
X96132052Y-152361088D01*
X96131065Y-152357983D01*
X96130099Y-152354877D01*
X96129154Y-152351770D01*
X96128228Y-152348662D01*
X96127324Y-152345553D01*
X96126440Y-152342443D01*
X96125577Y-152339333D01*
X96124734Y-152336222D01*
X96123912Y-152333110D01*
X96123110Y-152329997D01*
X96122329Y-152326885D01*
X96121568Y-152323771D01*
X96120828Y-152320658D01*
X96120108Y-152317544D01*
X96119409Y-152314430D01*
X96118730Y-152311317D01*
X96118072Y-152308203D01*
X96117434Y-152305089D01*
X96116817Y-152301975D01*
X96116220Y-152298862D01*
X96115643Y-152295749D01*
X96115087Y-152292637D01*
X96114551Y-152289524D01*
X96114036Y-152286413D01*
X96113541Y-152283302D01*
X96113066Y-152280192D01*
X96112612Y-152277083D01*
X96112178Y-152273975D01*
X96111764Y-152270867D01*
X96111371Y-152267761D01*
X96110998Y-152264656D01*
X96110645Y-152261552D01*
X96110313Y-152258450D01*
X96110001Y-152255348D01*
X96109709Y-152252249D01*
X96109437Y-152249151D01*
X96109185Y-152246054D01*
X96108954Y-152242959D01*
X96108743Y-152239866D01*
X96108552Y-152236775D01*
X96108381Y-152233686D01*
X96108230Y-152230599D01*
X96108099Y-152227514D01*
X96107989Y-152224431D01*
X96107898Y-152221350D01*
X96107828Y-152218272D01*
X96107778Y-152215196D01*
X96107747Y-152212123D01*
X96107737Y-152209052D01*
X96107747Y-152205985D01*
X96107776Y-152202919D01*
X96107826Y-152199857D01*
X96107896Y-152196797D01*
X96107985Y-152193741D01*
X96108095Y-152190688D01*
X96108224Y-152187637D01*
X96108373Y-152184590D01*
X96108543Y-152181547D01*
X96108732Y-152178506D01*
X96108940Y-152175470D01*
X96109169Y-152172436D01*
X96109417Y-152169407D01*
X96109685Y-152166381D01*
X96109973Y-152163359D01*
X96110281Y-152160341D01*
X96110608Y-152157326D01*
X96110955Y-152154316D01*
X96111321Y-152151310D01*
X96111708Y-152148308D01*
X96112113Y-152145310D01*
X96112539Y-152142317D01*
X96112984Y-152139328D01*
X96113448Y-152136344D01*
X96113933Y-152133364D01*
X96114436Y-152130388D01*
X96114959Y-152127418D01*
X96115502Y-152124452D01*
X96116064Y-152121492D01*
X96116645Y-152118536D01*
X96117246Y-152115585D01*
X96117866Y-152112639D01*
X96118506Y-152109699D01*
X96119164Y-152106764D01*
X96119842Y-152103834D01*
X96120540Y-152100909D01*
X96121257Y-152097991D01*
X96121992Y-152095077D01*
X96122748Y-152092169D01*
X96123522Y-152089267D01*
X96124315Y-152086371D01*
X96125128Y-152083481D01*
X96125959Y-152080596D01*
X96126810Y-152077718D01*
X96127680Y-152074846D01*
X96128569Y-152071979D01*
X96129477Y-152069120D01*
X96130404Y-152066266D01*
X96131349Y-152063419D01*
X96132314Y-152060578D01*
X96133298Y-152057744D01*
X96134300Y-152054916D01*
X96135322Y-152052096D01*
X96136362Y-152049281D01*
X96137421Y-152046474D01*
X96138499Y-152043673D01*
X96139595Y-152040880D01*
X96140711Y-152038093D01*
X96141845Y-152035314D01*
X96142997Y-152032542D01*
X96144169Y-152029777D01*
X96145359Y-152027020D01*
X96146567Y-152024270D01*
X96147795Y-152021527D01*
X96149040Y-152018792D01*
X96150304Y-152016064D01*
X96151587Y-152013344D01*
X96152888Y-152010632D01*
X96154208Y-152007928D01*
X96155546Y-152005231D01*
X96156903Y-152002542D01*
X96158278Y-151999862D01*
X96159671Y-151997189D01*
X96161082Y-151994525D01*
X96162512Y-151991869D01*
X96163960Y-151989221D01*
X96165426Y-151986582D01*
X96166911Y-151983950D01*
X96168414Y-151981328D01*
X96169935Y-151978714D01*
X96171474Y-151976109D01*
X96173031Y-151973512D01*
X96174606Y-151970924D01*
X96176199Y-151968345D01*
X96177811Y-151965775D01*
X96179440Y-151963213D01*
X96181087Y-151960661D01*
X96182753Y-151958117D01*
X96184436Y-151955584D01*
X96186137Y-151953058D01*
X96187856Y-151950543D01*
X96189593Y-151948037D01*
X96191348Y-151945540D01*
X96193121Y-151943052D01*
X96194911Y-151940575D01*
X96196719Y-151938106D01*
X96198545Y-151935648D01*
X96200388Y-151933198D01*
X96202250Y-151930760D01*
X96204129Y-151928330D01*
X96206025Y-151925911D01*
X96207940Y-151923501D01*
X96209871Y-151921102D01*
X96211821Y-151918712D01*
X96213787Y-151916334D01*
X96215772Y-151913964D01*
X96217774Y-151911606D01*
X96219794Y-151909257D01*
X96221830Y-151906920D01*
X96223885Y-151904592D01*
X96225956Y-151902275D01*
X96228046Y-151899969D01*
X96230152Y-151897673D01*
X96232276Y-151895388D01*
X96234417Y-151893114D01*
X96236576Y-151890851D01*
X96238751Y-151888598D01*
X96240944Y-151886357D01*
X96243154Y-151884126D01*
X96245382Y-151881907D01*
X96247627Y-151879699D01*
X96249889Y-151877501D01*
X96252167Y-151875316D01*
X96254464Y-151873141D01*
X96256777Y-151870978D01*
X96259107Y-151868826D01*
X96261454Y-151866686D01*
X96263819Y-151864557D01*
X96266200Y-151862440D01*
X96268599Y-151860334D01*
X96271014Y-151858241D01*
X96273447Y-151856159D01*
X96275896Y-151854089D01*
X96278362Y-151852030D01*
X96280845Y-151849984D01*
X96283346Y-151847950D01*
X96285862Y-151845928D01*
X96288397Y-151843918D01*
X96290947Y-151841921D01*
X96293515Y-151839935D01*
X96296099Y-151837962D01*
X96298700Y-151836001D01*
X96301318Y-151834053D01*
X96303953Y-151832117D01*
X96306604Y-151830194D01*
X96309272Y-151828283D01*
X96311956Y-151826385D01*
X96314658Y-151824500D01*
X96317376Y-151822627D01*
X96320111Y-151820767D01*
X96322862Y-151818921D01*
X96325630Y-151817087D01*
X96328414Y-151815266D01*
X96331216Y-151813459D01*
X96334033Y-151811664D01*
X96336868Y-151809883D01*
X96339718Y-151808115D01*
X96342586Y-151806360D01*
X96345469Y-151804619D01*
X96348370Y-151802891D01*
X96351287Y-151801177D01*
X96354220Y-151799476D01*
X96355912Y-151798505D01*
X96355912Y-151798505D02*
X96358928Y-151796793D01*
X96361947Y-151795103D01*
X96364970Y-151793432D01*
X96367997Y-151791783D01*
X96371027Y-151790155D01*
X96374061Y-151788547D01*
X96377099Y-151786960D01*
X96380139Y-151785394D01*
X96383184Y-151783848D01*
X96386231Y-151782324D01*
X96389281Y-151780820D01*
X96392335Y-151779337D01*
X96395392Y-151777875D01*
X96398451Y-151776433D01*
X96401513Y-151775012D01*
X96404578Y-151773612D01*
X96407646Y-151772232D01*
X96410717Y-151770874D01*
X96413790Y-151769536D01*
X96416865Y-151768218D01*
X96419943Y-151766922D01*
X96423023Y-151765646D01*
X96426106Y-151764391D01*
X96429191Y-151763156D01*
X96432278Y-151761942D01*
X96435366Y-151760749D01*
X96438457Y-151759577D01*
X96441550Y-151758425D01*
X96444644Y-151757294D01*
X96447740Y-151756183D01*
X96450838Y-151755093D01*
X96453937Y-151754024D01*
X96457038Y-151752976D01*
X96460140Y-151751948D01*
X96463244Y-151750940D01*
X96466348Y-151749953D01*
X96469454Y-151748987D01*
X96472561Y-151748042D01*
X96475669Y-151747117D01*
X96478778Y-151746212D01*
X96481888Y-151745328D01*
X96484998Y-151744465D01*
X96488110Y-151743622D01*
X96491221Y-151742800D01*
X96494334Y-151741998D01*
X96497446Y-151741217D01*
X96500560Y-151740456D01*
X96503673Y-151739716D01*
X96506787Y-151738997D01*
X96509901Y-151738297D01*
X96513015Y-151737619D01*
X96516128Y-151736960D01*
X96519242Y-151736322D01*
X96522356Y-151735705D01*
X96525469Y-151735108D01*
X96528582Y-151734532D01*
X96531695Y-151733975D01*
X96534807Y-151733440D01*
X96537918Y-151732924D01*
X96541029Y-151732429D01*
X96544139Y-151731955D01*
X96547248Y-151731500D01*
X96550356Y-151731066D01*
X96553464Y-151730653D01*
X96556570Y-151730259D01*
X96559675Y-151729886D01*
X96562779Y-151729534D01*
X96565881Y-151729201D01*
X96568983Y-151728889D01*
X96572082Y-151728597D01*
X96575180Y-151728325D01*
X96578277Y-151728073D01*
X96581372Y-151727842D01*
X96584465Y-151727631D01*
X96587556Y-151727440D01*
X96590645Y-151727269D01*
X96593732Y-151727118D01*
X96596817Y-151726988D01*
X96599900Y-151726877D01*
X96602981Y-151726787D01*
X96606059Y-151726716D01*
X96609135Y-151726666D01*
X96612208Y-151726636D01*
X96615279Y-151726625D01*
X96618346Y-151726635D01*
X96621412Y-151726665D01*
X96624474Y-151726714D01*
X96627534Y-151726784D01*
X96630590Y-151726874D01*
X96633643Y-151726983D01*
X96636694Y-151727112D01*
X96639741Y-151727262D01*
X96642784Y-151727431D01*
X96645825Y-151727620D01*
X96648861Y-151727828D01*
X96651895Y-151728057D01*
X96654924Y-151728305D01*
X96657950Y-151728574D01*
X96660972Y-151728861D01*
X96663990Y-151729169D01*
X96667005Y-151729496D01*
X96670015Y-151729843D01*
X96673021Y-151730210D01*
X96676023Y-151730596D01*
X96679021Y-151731002D01*
X96682014Y-151731427D01*
X96685003Y-151731872D01*
X96687987Y-151732337D01*
X96690967Y-151732821D01*
X96693943Y-151733324D01*
X96696913Y-151733847D01*
X96699879Y-151734390D01*
X96702839Y-151734952D01*
X96705795Y-151735533D01*
X96708746Y-151736134D01*
X96711692Y-151736754D01*
X96714632Y-151737394D01*
X96717567Y-151738053D01*
X96720497Y-151738731D01*
X96723422Y-151739428D01*
X96726341Y-151740145D01*
X96729254Y-151740881D01*
X96732162Y-151741636D01*
X96735064Y-151742410D01*
X96737960Y-151743203D01*
X96740850Y-151744016D01*
X96743735Y-151744848D01*
X96746613Y-151745699D01*
X96749485Y-151746568D01*
X96752352Y-151747457D01*
X96755211Y-151748365D01*
X96758065Y-151749292D01*
X96760912Y-151750238D01*
X96763753Y-151751202D01*
X96766587Y-151752186D01*
X96769415Y-151753189D01*
X96772236Y-151754210D01*
X96775050Y-151755250D01*
X96777857Y-151756309D01*
X96780658Y-151757387D01*
X96783451Y-151758484D01*
X96786238Y-151759599D01*
X96789017Y-151760733D01*
X96791789Y-151761886D01*
X96794554Y-151763057D01*
X96797312Y-151764247D01*
X96800062Y-151765456D01*
X96802805Y-151766683D01*
X96805540Y-151767928D01*
X96808267Y-151769193D01*
X96810987Y-151770475D01*
X96813700Y-151771777D01*
X96816404Y-151773096D01*
X96819100Y-151774434D01*
X96821789Y-151775791D01*
X96824470Y-151777166D01*
X96827142Y-151778559D01*
X96829806Y-151779971D01*
X96832462Y-151781400D01*
X96835110Y-151782848D01*
X96837750Y-151784315D01*
X96840381Y-151785799D01*
X96843003Y-151787302D01*
X96845617Y-151788823D01*
X96848223Y-151790362D01*
X96850820Y-151791919D01*
X96853407Y-151793494D01*
X96855987Y-151795088D01*
X96858557Y-151796699D01*
X96861118Y-151798328D01*
X96863670Y-151799976D01*
X96866214Y-151801641D01*
X96868748Y-151803324D01*
X96871273Y-151805026D01*
X96873788Y-151806744D01*
X96876295Y-151808482D01*
X96878791Y-151810236D01*
X96881279Y-151812009D01*
X96883757Y-151813799D01*
X96886225Y-151815607D01*
X96888684Y-151817433D01*
X96891133Y-151819277D01*
X96893572Y-151821138D01*
X96896001Y-151823017D01*
X96898420Y-151824913D01*
X96900830Y-151826828D01*
X96903229Y-151828759D01*
X96905619Y-151830709D01*
X96907998Y-151832676D01*
X96910367Y-151834660D01*
X96912725Y-151836662D01*
X96915074Y-151838682D01*
X96917411Y-151840718D01*
X96919739Y-151842773D01*
X96922056Y-151844845D01*
X96924362Y-151846934D01*
X96926658Y-151849040D01*
X96928943Y-151851164D01*
X96931217Y-151853305D01*
X96933481Y-151855464D01*
X96935733Y-151857639D01*
X96937975Y-151859833D01*
X96940205Y-151862043D01*
X96942425Y-151864270D01*
X96944633Y-151866515D01*
X96946830Y-151868777D01*
X96949016Y-151871056D01*
X96951190Y-151873352D01*
X96953353Y-151875665D01*
X96955505Y-151877995D01*
X96957645Y-151880342D01*
X96959774Y-151882707D01*
X96961891Y-151885088D01*
X96963997Y-151887487D01*
X96966090Y-151889902D01*
X96968172Y-151892335D01*
X96970242Y-151894784D01*
X96972301Y-151897251D01*
X96974347Y-151899734D01*
X96976381Y-151902234D01*
X96978403Y-151904751D01*
X96980413Y-151907285D01*
X96982411Y-151909835D01*
X96984396Y-151912403D01*
X96986369Y-151914987D01*
X96988330Y-151917588D01*
X96990278Y-151920206D01*
X96992214Y-151922841D01*
X96994137Y-151925492D01*
X96996048Y-151928160D01*
X96997946Y-151930844D01*
X96999831Y-151933546D01*
X97001704Y-151936264D01*
X97003564Y-151938999D01*
X97005410Y-151941750D01*
X97007244Y-151944518D01*
X97009065Y-151947302D01*
X97010872Y-151950104D01*
X97012667Y-151952921D01*
X97014448Y-151955756D01*
X97016216Y-151958606D01*
X97017971Y-151961474D01*
X97019712Y-151964357D01*
X97021440Y-151967258D01*
X97023154Y-151970174D01*
X97024855Y-151973108D01*
X97025826Y-151974800D01*
X97025826Y-151974800D02*
X97071690Y-152054270D01*
X97124836Y-152146324D01*
X97194407Y-152266786D01*
X97277613Y-152410799D01*
X97371665Y-152573509D01*
X97473774Y-152750060D01*
X97581151Y-152935599D01*
X97635944Y-153030221D01*
X97691008Y-153125269D01*
X97745994Y-153220137D01*
X97800554Y-153314216D01*
X97854340Y-153406902D01*
X97907002Y-153497586D01*
X97958192Y-153585661D01*
X98007562Y-153670522D01*
X98054762Y-153751561D01*
X98099444Y-153828170D01*
X98141260Y-153899744D01*
X98160985Y-153933453D01*
X98179861Y-153965676D01*
X98197847Y-153996336D01*
X98214898Y-154025358D01*
X98230972Y-154052665D01*
X98246023Y-154078183D01*
X98260009Y-154101835D01*
X98272887Y-154123546D01*
X98284612Y-154143239D01*
X98295141Y-154160838D01*
D11*
X97977813Y-155571186D02*
X96179617Y-152468420D01*
D10*
X98295141Y-154160838D02*
X98296364Y-154162047D01*
X98297587Y-154163228D01*
X98298810Y-154164382D01*
X98300034Y-154165508D01*
X98301258Y-154166608D01*
X98302483Y-154167682D01*
X98303709Y-154168731D01*
X98304935Y-154169753D01*
X98306164Y-154170752D01*
X98307393Y-154171725D01*
X98308625Y-154172676D01*
X98309857Y-154173602D01*
X98311094Y-154174506D01*
X98312331Y-154175385D01*
X98314815Y-154177079D01*
X98317312Y-154178686D01*
X98319824Y-154180209D01*
X98322354Y-154181650D01*
X98324905Y-154183012D01*
X98327479Y-154184297D01*
X98330080Y-154185507D01*
X98332711Y-154186643D01*
X98335377Y-154187709D01*
X98338082Y-154188705D01*
X98340830Y-154189633D01*
X98343627Y-154190494D01*
X98346481Y-154191290D01*
X98349397Y-154192022D01*
X98352385Y-154192691D01*
X98355455Y-154193297D01*
X98358619Y-154193842D01*
X98361892Y-154194326D01*
X98365294Y-154194749D01*
X98368850Y-154195114D01*
X98372594Y-154195419D01*
X98376574Y-154195666D01*
X98380865Y-154195856D01*
X98385591Y-154195989D01*
X98390996Y-154196067D01*
X98397713Y-154196095D01*
X98400916Y-154196096D01*
D11*
X98400916Y-154196096D02*
X105170585Y-150282382D01*
X102103080Y-53144670D02*
X102103080Y-60619514D01*
X102103080Y-60619514D02*
X92045000Y-60619514D01*
D10*
X105170585Y-150282382D02*
X105207295Y-150257957D01*
X105244190Y-150233504D01*
X105281272Y-150209024D01*
X105318540Y-150184516D01*
X105355996Y-150159980D01*
X105393640Y-150135416D01*
X105431474Y-150110825D01*
X105469497Y-150086205D01*
X105507712Y-150061556D01*
X105546118Y-150036879D01*
X105584718Y-150012173D01*
X105623510Y-149987437D01*
X105662497Y-149962673D01*
X105701679Y-149937879D01*
X105741058Y-149913056D01*
X105780633Y-149888202D01*
X105820407Y-149863319D01*
X105860380Y-149838405D01*
X105900552Y-149813461D01*
X105940926Y-149788486D01*
X105981501Y-149763480D01*
X106022279Y-149738442D01*
X106063262Y-149713374D01*
X106104449Y-149688273D01*
X106145842Y-149663140D01*
X106187443Y-149637975D01*
X106229251Y-149612778D01*
X106271269Y-149587547D01*
X106313497Y-149562283D01*
X106355937Y-149536986D01*
X106398589Y-149511654D01*
X106441456Y-149486289D01*
X106484538Y-149460889D01*
X106527836Y-149435454D01*
X106571351Y-149409984D01*
X106615086Y-149384478D01*
X106659041Y-149358936D01*
X106703218Y-149333357D01*
X106747618Y-149307741D01*
X106792242Y-149282089D01*
X106837092Y-149256398D01*
X106882169Y-149230669D01*
X106927476Y-149204901D01*
X106973012Y-149179094D01*
X107018781Y-149153248D01*
X107064784Y-149127361D01*
X107111021Y-149101433D01*
X107157496Y-149075463D01*
X107204210Y-149049452D01*
X107251164Y-149023398D01*
X107298361Y-148997300D01*
X107345802Y-148971159D01*
X107393490Y-148944972D01*
X107441426Y-148918741D01*
X107462400Y-148907292D01*
X107462400Y-148907292D02*
X107528086Y-148869266D01*
X107593839Y-148831293D01*
X107659660Y-148793373D01*
X107725548Y-148755507D01*
X107791502Y-148717695D01*
X107857523Y-148679937D01*
X107923610Y-148642233D01*
X107989762Y-148604584D01*
X108055979Y-148566991D01*
X108122262Y-148529452D01*
X108188608Y-148491969D01*
X108255018Y-148454542D01*
X108321492Y-148417170D01*
X108388030Y-148379855D01*
X108454629Y-148342597D01*
X108521292Y-148305395D01*
X108588016Y-148268250D01*
X108654801Y-148231162D01*
X108721648Y-148194132D01*
X108788556Y-148157160D01*
X108855523Y-148120246D01*
X108922551Y-148083390D01*
X108989638Y-148046593D01*
X109056784Y-148009855D01*
X109123989Y-147973176D01*
X109191252Y-147936556D01*
X109258573Y-147899995D01*
X109325951Y-147863495D01*
X109393386Y-147827055D01*
X109460877Y-147790675D01*
X109528425Y-147754355D01*
X109596028Y-147718097D01*
X109663687Y-147681900D01*
X109731400Y-147645764D01*
X109799167Y-147609690D01*
X109866989Y-147573678D01*
X109934863Y-147537728D01*
X110002791Y-147501840D01*
X110070772Y-147466015D01*
X110138804Y-147430253D01*
X110206888Y-147394555D01*
X110275023Y-147358919D01*
X110343209Y-147323348D01*
X110411446Y-147287840D01*
X110479732Y-147252397D01*
X110548068Y-147217018D01*
X110616452Y-147181704D01*
X110684885Y-147146455D01*
X110753366Y-147111271D01*
X110821895Y-147076153D01*
X110890470Y-147041100D01*
X110959092Y-147006113D01*
X111027761Y-146971193D01*
X111096475Y-146936339D01*
X111165234Y-146901552D01*
X111234038Y-146866832D01*
X111302886Y-146832179D01*
X111371778Y-146797594D01*
X111440713Y-146763076D01*
X111509691Y-146728626D01*
X111578712Y-146694245D01*
X111647774Y-146659932D01*
X111716877Y-146625688D01*
X111786022Y-146591513D01*
X111855207Y-146557408D01*
X111924431Y-146523371D01*
X111993695Y-146489405D01*
X112062999Y-146455508D01*
X112132340Y-146421682D01*
X112201719Y-146387926D01*
X112271136Y-146354241D01*
X112340590Y-146320627D01*
X112410080Y-146287084D01*
X112479607Y-146253613D01*
X112549168Y-146220213D01*
X112618765Y-146186886D01*
X112688396Y-146153630D01*
X112758061Y-146120447D01*
X112827759Y-146087337D01*
X112897490Y-146054299D01*
X112967254Y-146021335D01*
X113037049Y-145988444D01*
X113106876Y-145955626D01*
X113176734Y-145922883D01*
X113246622Y-145890214D01*
X113316540Y-145857619D01*
X113386487Y-145825098D01*
X113456463Y-145792653D01*
X113526467Y-145760282D01*
X113596499Y-145727987D01*
X113666559Y-145695767D01*
X113736645Y-145663623D01*
X113806757Y-145631555D01*
X113876895Y-145599563D01*
X113947058Y-145567648D01*
X114017245Y-145535809D01*
X114087457Y-145504048D01*
X114157692Y-145472363D01*
X114227950Y-145440756D01*
X114298231Y-145409226D01*
X114368534Y-145377774D01*
X114438858Y-145346400D01*
X114509203Y-145315105D01*
X114579568Y-145283888D01*
X114649953Y-145252749D01*
X114720358Y-145221690D01*
X114790781Y-145190710D01*
X114861222Y-145159809D01*
X114931681Y-145128988D01*
X115002158Y-145098246D01*
X115072650Y-145067585D01*
X115143159Y-145037003D01*
X115213683Y-145006503D01*
X115284223Y-144976083D01*
X115354776Y-144945743D01*
X115390059Y-144930604D01*
X115425344Y-144915485D01*
X115460633Y-144900386D01*
X115495924Y-144885309D01*
X115531220Y-144870250D01*
X115566518Y-144855213D01*
X115601820Y-144840196D01*
X115637124Y-144825200D01*
X115672432Y-144810224D01*
X115707741Y-144795268D01*
X115743055Y-144780333D01*
X115778370Y-144765419D01*
X115813688Y-144750525D01*
X115849009Y-144735652D01*
X115884333Y-144720799D01*
X115919658Y-144705968D01*
X115954986Y-144691156D01*
X115990316Y-144676366D01*
X116025649Y-144661596D01*
X116060984Y-144646847D01*
X116096321Y-144632119D01*
X116131660Y-144617412D01*
X116167001Y-144602725D01*
X116202343Y-144588060D01*
X116237688Y-144573415D01*
X116273034Y-144558791D01*
X116308383Y-144544188D01*
X116343732Y-144529606D01*
X116379083Y-144515045D01*
X116414436Y-144500506D01*
X116449790Y-144485987D01*
X116485145Y-144471489D01*
X116520502Y-144457013D01*
X116555859Y-144442557D01*
X116591218Y-144428123D01*
X116626578Y-144413710D01*
X116661939Y-144399318D01*
X116697301Y-144384947D01*
X116732664Y-144370597D01*
X116768027Y-144356269D01*
X116803391Y-144341962D01*
X116838756Y-144327676D01*
X116874121Y-144313412D01*
X116909487Y-144299169D01*
X116944854Y-144284948D01*
X116980220Y-144270748D01*
X117015587Y-144256569D01*
X117050954Y-144242412D01*
X117086321Y-144228276D01*
X117121689Y-144214162D01*
X117157056Y-144200069D01*
X117192423Y-144185998D01*
X117227790Y-144171948D01*
X117263157Y-144157920D01*
X117298524Y-144143914D01*
X117333890Y-144129929D01*
X117369256Y-144115966D01*
X117404622Y-144102025D01*
X117439986Y-144088105D01*
X117475351Y-144074207D01*
X117510714Y-144060331D01*
X117546077Y-144046477D01*
X117581439Y-144032644D01*
X117616800Y-144018833D01*
X117652160Y-144005045D01*
X117687519Y-143991277D01*
X117722876Y-143977532D01*
X117758234Y-143963809D01*
X117793589Y-143950108D01*
X117828943Y-143936429D01*
X117864295Y-143922771D01*
X117899647Y-143909136D01*
X117934996Y-143895523D01*
X117970345Y-143881932D01*
X118005691Y-143868363D01*
X118041036Y-143854815D01*
X118076378Y-143841291D01*
X118111720Y-143827788D01*
X118147058Y-143814307D01*
X118182396Y-143800848D01*
X118217730Y-143787412D01*
X118253063Y-143773998D01*
X118288393Y-143760607D01*
X118323722Y-143747237D01*
X118359047Y-143733890D01*
X118394371Y-143720565D01*
X118429691Y-143707262D01*
X118465010Y-143693982D01*
X118500325Y-143680724D01*
X118535638Y-143667488D01*
X118570948Y-143654275D01*
X118606255Y-143641084D01*
X118641559Y-143627916D01*
X118676861Y-143614770D01*
X118712158Y-143601647D01*
X118747454Y-143588546D01*
X118782745Y-143575468D01*
X118818034Y-143562412D01*
X118853318Y-143549379D01*
X118888601Y-143536369D01*
X118923878Y-143523381D01*
X118959154Y-143510415D01*
X118994424Y-143497473D01*
X119029692Y-143484553D01*
X119064954Y-143471656D01*
X119100215Y-143458781D01*
X119135469Y-143445929D01*
X119170722Y-143433100D01*
X119205969Y-143420294D01*
X119241213Y-143407510D01*
X119276451Y-143394749D01*
X119311687Y-143382011D01*
X119346917Y-143369296D01*
X119382144Y-143356603D01*
X119417365Y-143343934D01*
X119452583Y-143331287D01*
X119487795Y-143318664D01*
X119523004Y-143306063D01*
X119558206Y-143293486D01*
X119593405Y-143280930D01*
X119628597Y-143268399D01*
X119663787Y-143255890D01*
X119698969Y-143243404D01*
X119734149Y-143230941D01*
X119769321Y-143218502D01*
X119804490Y-143206085D01*
X119839651Y-143193692D01*
X119874809Y-143181321D01*
X119909960Y-143168974D01*
X119945107Y-143156649D01*
X119980246Y-143144349D01*
X120015383Y-143132070D01*
X120050510Y-143119816D01*
X120085635Y-143107584D01*
X120120751Y-143095377D01*
X120155864Y-143083191D01*
X120190968Y-143071030D01*
X120226069Y-143058891D01*
X120261161Y-143046776D01*
X120296250Y-143034684D01*
X120331329Y-143022616D01*
X120366405Y-143010570D01*
X120401471Y-142998549D01*
X120436534Y-142986550D01*
X120471588Y-142974575D01*
X120506637Y-142962623D01*
X120541677Y-142950695D01*
X120576714Y-142938790D01*
X120611740Y-142926909D01*
X120646763Y-142915050D01*
X120681775Y-142903216D01*
X120716784Y-142891405D01*
X120751782Y-142879618D01*
X120786777Y-142867854D01*
X120821760Y-142856114D01*
X120856740Y-142844396D01*
X120891709Y-142832704D01*
X120926674Y-142821033D01*
X120961628Y-142809388D01*
X120996578Y-142797765D01*
X121031517Y-142786166D01*
X121066452Y-142774591D01*
X121101375Y-142763040D01*
X121136294Y-142751511D01*
X121171201Y-142740008D01*
X121206104Y-142728526D01*
X121240995Y-142717070D01*
X121275882Y-142705636D01*
X121310757Y-142694228D01*
X121345628Y-142682842D01*
X121380486Y-142671480D01*
X121415339Y-142660142D01*
X121450181Y-142648828D01*
X121485017Y-142637537D01*
X121519841Y-142626271D01*
X121554661Y-142615027D01*
X121589467Y-142603809D01*
X121624269Y-142592613D01*
X121659058Y-142581443D01*
X121693842Y-142570295D01*
X121728613Y-142559172D01*
X121763379Y-142548072D01*
X121798132Y-142536997D01*
X121832879Y-142525944D01*
X121867613Y-142514917D01*
X121902343Y-142503913D01*
X121937058Y-142492934D01*
X121971768Y-142481977D01*
X122006464Y-142471046D01*
X122041155Y-142460137D01*
X122075832Y-142449254D01*
X122110504Y-142438394D01*
X122145161Y-142427558D01*
X122179813Y-142416746D01*
X122214450Y-142405959D01*
X122249082Y-142395195D01*
X122283699Y-142384456D01*
X122318311Y-142373740D01*
X122352908Y-142363049D01*
X122387499Y-142352381D01*
X122422076Y-142341739D01*
X122456646Y-142331119D01*
X122491201Y-142320525D01*
X122525751Y-142309953D01*
X122560285Y-142299407D01*
X122594813Y-142288884D01*
X122629326Y-142278387D01*
X122663833Y-142267912D01*
X122698324Y-142257463D01*
X122732809Y-142247037D01*
X122767278Y-142236636D01*
X122801741Y-142226258D01*
X122836187Y-142215906D01*
X122870628Y-142205577D01*
X122905052Y-142195273D01*
X122939470Y-142184992D01*
X122973872Y-142174737D01*
X123008267Y-142164505D01*
X123042645Y-142154298D01*
X123077017Y-142144115D01*
X123111373Y-142133957D01*
X123145721Y-142123822D01*
X123180053Y-142113713D01*
X123214378Y-142103626D01*
X123248686Y-142093566D01*
X123282988Y-142083528D01*
X123317271Y-142073516D01*
X123351549Y-142063527D01*
X123385808Y-142053564D01*
X123420061Y-142043624D01*
X123454296Y-142033710D01*
X123488524Y-142023818D01*
X123522735Y-142013953D01*
X123556938Y-142004110D01*
X123591123Y-141994294D01*
X123625301Y-141984500D01*
X123659461Y-141974732D01*
X123693614Y-141964987D01*
X123727748Y-141955269D01*
X123761876Y-141945573D01*
X123795984Y-141935903D01*
X123830086Y-141926256D01*
X123864168Y-141916635D01*
X123898243Y-141907037D01*
X123932299Y-141897465D01*
X123966348Y-141887915D01*
X124000378Y-141878393D01*
X124034400Y-141868892D01*
X124068403Y-141859419D01*
X124102398Y-141849967D01*
X124136374Y-141840543D01*
X124170342Y-141831141D01*
X124204291Y-141821765D01*
X124238232Y-141812412D01*
X124272152Y-141803085D01*
X124306066Y-141793781D01*
X124339959Y-141784504D01*
X124373844Y-141775249D01*
X124407709Y-141766020D01*
X124441567Y-141756815D01*
X124475403Y-141747636D01*
X124509233Y-141738479D01*
X124543041Y-141729349D01*
X124576841Y-141720242D01*
X124598127Y-141714517D01*
X124598127Y-141714517D02*
X124672787Y-141694507D01*
X124747483Y-141674570D01*
X124822216Y-141654706D01*
X124896986Y-141634915D01*
X124971791Y-141615197D01*
X125046631Y-141595553D01*
X125121507Y-141575982D01*
X125196417Y-141556485D01*
X125271362Y-141537061D01*
X125346341Y-141517711D01*
X125421354Y-141498435D01*
X125496400Y-141479234D01*
X125571479Y-141460106D01*
X125646590Y-141441052D01*
X125721734Y-141422073D01*
X125796910Y-141403169D01*
X125872117Y-141384338D01*
X125947355Y-141365583D01*
X126022625Y-141346902D01*
X126097924Y-141328296D01*
X126173254Y-141309765D01*
X126248614Y-141291309D01*
X126324003Y-141272928D01*
X126399420Y-141254623D01*
X126474867Y-141236393D01*
X126550342Y-141218238D01*
X126625844Y-141200159D01*
X126701374Y-141182155D01*
X126776932Y-141164228D01*
X126852516Y-141146376D01*
X126928126Y-141128600D01*
X127003762Y-141110900D01*
X127079424Y-141093276D01*
X127155112Y-141075729D01*
X127230824Y-141058258D01*
X127306560Y-141040863D01*
X127382321Y-141023545D01*
X127458105Y-141006303D01*
X127533913Y-140989139D01*
X127609744Y-140972051D01*
X127685597Y-140955040D01*
X127761472Y-140938106D01*
X127837370Y-140921249D01*
X127913288Y-140904469D01*
X127989228Y-140887766D01*
X128065188Y-140871141D01*
X128141169Y-140854593D01*
X128217169Y-140838123D01*
X128293189Y-140821730D01*
X128369228Y-140805416D01*
X128445285Y-140789178D01*
X128521361Y-140773019D01*
X128597455Y-140756938D01*
X128673566Y-140740935D01*
X128749694Y-140725010D01*
X128825839Y-140709163D01*
X128902000Y-140693395D01*
X128978177Y-140677705D01*
X129054370Y-140662093D01*
X129130578Y-140646560D01*
X129206800Y-140631105D01*
X129283037Y-140615730D01*
X129359287Y-140600433D01*
X129435551Y-140585215D01*
X129511828Y-140570076D01*
X129588118Y-140555016D01*
X129664420Y-140540035D01*
X129740734Y-140525133D01*
X129817059Y-140510310D01*
X129893395Y-140495567D01*
X129969742Y-140480904D01*
X130046099Y-140466319D01*
X130122466Y-140451815D01*
X130198842Y-140437390D01*
X130275227Y-140423044D01*
X130351621Y-140408779D01*
X130428023Y-140394593D01*
X130504433Y-140380487D01*
X130580850Y-140366461D01*
X130657274Y-140352515D01*
X130733704Y-140338650D01*
X130810140Y-140324864D01*
X130886583Y-140311159D01*
X130963030Y-140297534D01*
X131039482Y-140283990D01*
X131115939Y-140270526D01*
X131192399Y-140257142D01*
X131268863Y-140243839D01*
X131345330Y-140230617D01*
X131421800Y-140217475D01*
X131498272Y-140204414D01*
X131574747Y-140191434D01*
X131651222Y-140178535D01*
X131727699Y-140165717D01*
X131804176Y-140152980D01*
X131880653Y-140140324D01*
X131957130Y-140127749D01*
X132033607Y-140115255D01*
X132110082Y-140102842D01*
X132186556Y-140090511D01*
X132263028Y-140078261D01*
X132339497Y-140066092D01*
X132415964Y-140054005D01*
X132492427Y-140041999D01*
X132568887Y-140030075D01*
X132645343Y-140018232D01*
X132721794Y-140006471D01*
X132760018Y-140000621D01*
X132798240Y-139994792D01*
X132836462Y-139988983D01*
X132874681Y-139983194D01*
X132912900Y-139977426D01*
X132951116Y-139971679D01*
X132989332Y-139965951D01*
X133027545Y-139960245D01*
X133065757Y-139954558D01*
X133103967Y-139948893D01*
X133142176Y-139943247D01*
X133180382Y-139937623D01*
X133218587Y-139932018D01*
X133256790Y-139926434D01*
X133294991Y-139920871D01*
X133333189Y-139915328D01*
X133371386Y-139909806D01*
X133409580Y-139904304D01*
X133447773Y-139898823D01*
X133485963Y-139893362D01*
X133524151Y-139887922D01*
X133562336Y-139882502D01*
X133600519Y-139877103D01*
X133638699Y-139871724D01*
X133676878Y-139866366D01*
X133715053Y-139861029D01*
X133753226Y-139855712D01*
X133791395Y-139850416D01*
X133829563Y-139845140D01*
X133867727Y-139839885D01*
X133905889Y-139834650D01*
X133944047Y-139829436D01*
X133982204Y-139824242D01*
X134020356Y-139819069D01*
X134058506Y-139813917D01*
X134096652Y-139808786D01*
X134134796Y-139803674D01*
X134172936Y-139798584D01*
X134211073Y-139793514D01*
X134249206Y-139788465D01*
X134287336Y-139783436D01*
X134325463Y-139778428D01*
X134363586Y-139773441D01*
X134401706Y-139768474D01*
X134439822Y-139763528D01*
X134477934Y-139758603D01*
X134516043Y-139753698D01*
X134554147Y-139748814D01*
X134592248Y-139743950D01*
X134630345Y-139739107D01*
X134668439Y-139734285D01*
X134706528Y-139729484D01*
X134744613Y-139724703D01*
X134782694Y-139719943D01*
X134820771Y-139715203D01*
X134858843Y-139710484D01*
X134896912Y-139705786D01*
X134934976Y-139701109D01*
X134973035Y-139696452D01*
X135011091Y-139691816D01*
X135049141Y-139687201D01*
X135087188Y-139682606D01*
X135125229Y-139678032D01*
X135163266Y-139673479D01*
X135201299Y-139668946D01*
X135239326Y-139664434D01*
X135277349Y-139659943D01*
X135315367Y-139655472D01*
X135353380Y-139651023D01*
X135391388Y-139646594D01*
X135429390Y-139642185D01*
X135467389Y-139637798D01*
X135505381Y-139633431D01*
X135543369Y-139629085D01*
X135581351Y-139624759D01*
X135619328Y-139620455D01*
X135657300Y-139616171D01*
X135695266Y-139611907D01*
X135733227Y-139607665D01*
X135771182Y-139603443D01*
X135809132Y-139599242D01*
X135847076Y-139595062D01*
X135885014Y-139590902D01*
X135922947Y-139586764D01*
X135960873Y-139582646D01*
X135998795Y-139578548D01*
X136036710Y-139574472D01*
X136074619Y-139570416D01*
X136112522Y-139566381D01*
X136150419Y-139562367D01*
X136188310Y-139558373D01*
X136226195Y-139554401D01*
X136264074Y-139550449D01*
X136301946Y-139546517D01*
X136339812Y-139542607D01*
X136377672Y-139538717D01*
X136415525Y-139534849D01*
X136453372Y-139531000D01*
X136491212Y-139527173D01*
X136529046Y-139523366D01*
X136566872Y-139519581D01*
X136604693Y-139515815D01*
X136642506Y-139512071D01*
X136680313Y-139508348D01*
X136718112Y-139504645D01*
X136755905Y-139500963D01*
X136793691Y-139497302D01*
X136831470Y-139493661D01*
X136869241Y-139490042D01*
X136907006Y-139486443D01*
X136944763Y-139482865D01*
X136982514Y-139479307D01*
X137020256Y-139475771D01*
X137057992Y-139472255D01*
X137095719Y-139468760D01*
X137133441Y-139465286D01*
X137171153Y-139461832D01*
X137208859Y-139458399D01*
X137246556Y-139454988D01*
X137284247Y-139451596D01*
X137321929Y-139448226D01*
X137359604Y-139444877D01*
X137397270Y-139441548D01*
X137434930Y-139438240D01*
X137472580Y-139434952D01*
X137510224Y-139431686D01*
X137547858Y-139428440D01*
X137585486Y-139425215D01*
X137623104Y-139422011D01*
X137660715Y-139418828D01*
X137698316Y-139415665D01*
X137735911Y-139412523D01*
X137773495Y-139409402D01*
X137811073Y-139406302D01*
X137848641Y-139403222D01*
X137886202Y-139400164D01*
X137923752Y-139397126D01*
X137961296Y-139394108D01*
X137998829Y-139391112D01*
X138036355Y-139388136D01*
X138073871Y-139385181D01*
X138111379Y-139382247D01*
X138148877Y-139379334D01*
X138186368Y-139376441D01*
X138223847Y-139373569D01*
X138261320Y-139370718D01*
X138298781Y-139367887D01*
X138336236Y-139365078D01*
X138373679Y-139362289D01*
X138411115Y-139359521D01*
X138448539Y-139356773D01*
X138485956Y-139354046D01*
X138523362Y-139351341D01*
X138560760Y-139348655D01*
X138598146Y-139345991D01*
X138635526Y-139343347D01*
X138672893Y-139340724D01*
X138710252Y-139338122D01*
X138747600Y-139335540D01*
X138784940Y-139332979D01*
X138822268Y-139330439D01*
X138859589Y-139327920D01*
X138896897Y-139325421D01*
X138934197Y-139322943D01*
X138971485Y-139320486D01*
X139008765Y-139318050D01*
X139046033Y-139315634D01*
X139083293Y-139313239D01*
X139120540Y-139310864D01*
X139157779Y-139308511D01*
X139195005Y-139306178D01*
X139232224Y-139303865D01*
X139269429Y-139301574D01*
X139306626Y-139299303D01*
X139343811Y-139297052D01*
X139380987Y-139294823D01*
X139418149Y-139292614D01*
X139455304Y-139290426D01*
X139492445Y-139288258D01*
X139529578Y-139286111D01*
X139566698Y-139283985D01*
X139603809Y-139281880D01*
X139640906Y-139279795D01*
X139677995Y-139277730D01*
X139715070Y-139275687D01*
X139752137Y-139273664D01*
X139789190Y-139271662D01*
X139826234Y-139269680D01*
X139863264Y-139267719D01*
X139900286Y-139265778D01*
X139937293Y-139263859D01*
X139974292Y-139261960D01*
X140011276Y-139260081D01*
X140048252Y-139258223D01*
X140085212Y-139256386D01*
X140122165Y-139254569D01*
X140159102Y-139252773D01*
X140196031Y-139250998D01*
X140232945Y-139249243D01*
X140269850Y-139247508D01*
X140306740Y-139245795D01*
X140343621Y-139244101D01*
X140380487Y-139242429D01*
X140417344Y-139240777D01*
X140454185Y-139239145D01*
X140491018Y-139237534D01*
X140527835Y-139235944D01*
X140564643Y-139234374D01*
X140601436Y-139232825D01*
X140638219Y-139231296D01*
X140674986Y-139229788D01*
X140711745Y-139228301D01*
X140748487Y-139226834D01*
X140785221Y-139225387D01*
X140821938Y-139223961D01*
X140858646Y-139222555D01*
X140895337Y-139221170D01*
X140932020Y-139219806D01*
X140968686Y-139218462D01*
X141005342Y-139217138D01*
X141041982Y-139215835D01*
X141078613Y-139214552D01*
X141115227Y-139213290D01*
X141151831Y-139212049D01*
X141188419Y-139210827D01*
X141224997Y-139209627D01*
X141261558Y-139208446D01*
X141298110Y-139207286D01*
X141334644Y-139206147D01*
X141371169Y-139205028D01*
X141407677Y-139203929D01*
X141444175Y-139202851D01*
X141480655Y-139201793D01*
X141517126Y-139200756D01*
X141553579Y-139199739D01*
X141590023Y-139198742D01*
X141626448Y-139197766D01*
X141662864Y-139196810D01*
X141699262Y-139195875D01*
X141735650Y-139194960D01*
X141772020Y-139194065D01*
X141808380Y-139193191D01*
X141844722Y-139192337D01*
X141881055Y-139191503D01*
X141917368Y-139190690D01*
X141953672Y-139189897D01*
X141989957Y-139189124D01*
X142026233Y-139188372D01*
X142062489Y-139187640D01*
X142098736Y-139186928D01*
X142134963Y-139186236D01*
X142171181Y-139185565D01*
X142207380Y-139184914D01*
X142243568Y-139184283D01*
X142279737Y-139183673D01*
X142315897Y-139183083D01*
X142352037Y-139182513D01*
X142388167Y-139181963D01*
X142424277Y-139181434D01*
X142460377Y-139180924D01*
X142496457Y-139180435D01*
X142532528Y-139179966D01*
X142568578Y-139179518D01*
X142604618Y-139179089D01*
X142640639Y-139178681D01*
X142676649Y-139178293D01*
X142712638Y-139177925D01*
X142748618Y-139177577D01*
X142784577Y-139177250D01*
X142820526Y-139176942D01*
X142856455Y-139176655D01*
X142892373Y-139176388D01*
X142928270Y-139176141D01*
X142964157Y-139175914D01*
X142967909Y-139175891D01*
D11*
X142967909Y-139175891D02*
X152769828Y-139175891D01*
X148538783Y-49865612D02*
X148538783Y-53144670D01*
X148538783Y-53144670D02*
X102103080Y-53144670D01*
D10*
X149208697Y-49195697D02*
X149201845Y-49195737D01*
X149194987Y-49195857D01*
X149188124Y-49196057D01*
X149181255Y-49196336D01*
X149174381Y-49196696D01*
X149167503Y-49197137D01*
X149160622Y-49197657D01*
X149153736Y-49198258D01*
X149146848Y-49198939D01*
X149139957Y-49199701D01*
X149133064Y-49200543D01*
X149126170Y-49201466D01*
X149119275Y-49202470D01*
X149112379Y-49203554D01*
X149105483Y-49204720D01*
X149098588Y-49205966D01*
X149091695Y-49207293D01*
X149084804Y-49208701D01*
X149077915Y-49210190D01*
X149071029Y-49211761D01*
X149064148Y-49213412D01*
X149057271Y-49215144D01*
X149050399Y-49216957D01*
X149043534Y-49218852D01*
X149036675Y-49220827D01*
X149029825Y-49222883D01*
X149022982Y-49225021D01*
X149016149Y-49227238D01*
X149009326Y-49229537D01*
X149002513Y-49231917D01*
X148995713Y-49234377D01*
X148988925Y-49236917D01*
X148982151Y-49239537D01*
X148975391Y-49242238D01*
X148968647Y-49245019D01*
X148961919Y-49247879D01*
X148955208Y-49250819D01*
X148948515Y-49253838D01*
X148941842Y-49256936D01*
X148935189Y-49260113D01*
X148928558Y-49263368D01*
X148921948Y-49266701D01*
X148915362Y-49270112D01*
X148908801Y-49273600D01*
X148902265Y-49277166D01*
X148895756Y-49280807D01*
X148889274Y-49284525D01*
X148882821Y-49288319D01*
X148876398Y-49292188D01*
X148870006Y-49296131D01*
X148863646Y-49300149D01*
X148857320Y-49304240D01*
X148851028Y-49308404D01*
X148844771Y-49312640D01*
X148838551Y-49316948D01*
X148832369Y-49321327D01*
X148826226Y-49325777D01*
X148820124Y-49330296D01*
X148814062Y-49334884D01*
X148808043Y-49339540D01*
X148802067Y-49344264D01*
X148796137Y-49349054D01*
X148790252Y-49353910D01*
X148784414Y-49358831D01*
X148778624Y-49363816D01*
X148772884Y-49368864D01*
X148767194Y-49373974D01*
X148761555Y-49379146D01*
X148755969Y-49384378D01*
X148750436Y-49389669D01*
X148744958Y-49395019D01*
X148739536Y-49400426D01*
X148736846Y-49403151D01*
X148734171Y-49405890D01*
X148731510Y-49408642D01*
X148728863Y-49411409D01*
X148726231Y-49414188D01*
X148723614Y-49416982D01*
X148721012Y-49419788D01*
X148718425Y-49422608D01*
X148715853Y-49425441D01*
X148713297Y-49428287D01*
X148710756Y-49431145D01*
X148708230Y-49434016D01*
X148705721Y-49436899D01*
X148703226Y-49439796D01*
X148700748Y-49442703D01*
X148698286Y-49445624D01*
X148695840Y-49448556D01*
X148693410Y-49451500D01*
X148690997Y-49454455D01*
X148688599Y-49457423D01*
X148686219Y-49460401D01*
X148683854Y-49463391D01*
X148681508Y-49466391D01*
X148679177Y-49469404D01*
X148676864Y-49472426D01*
X148674567Y-49475459D01*
X148672288Y-49478502D01*
X148670026Y-49481557D01*
X148667782Y-49484621D01*
X148665554Y-49487696D01*
X148663345Y-49490779D01*
X148661152Y-49493874D01*
X148658978Y-49496977D01*
X148656821Y-49500091D01*
X148654683Y-49503213D01*
X148652561Y-49506346D01*
X148650459Y-49509486D01*
X148648374Y-49512637D01*
X148646308Y-49515794D01*
X148644259Y-49518963D01*
X148642230Y-49522137D01*
X148640218Y-49525322D01*
X148638225Y-49528514D01*
X148636250Y-49531715D01*
X148634295Y-49534923D01*
X148632357Y-49538140D01*
X148630440Y-49541362D01*
X148628539Y-49544595D01*
X148626660Y-49547832D01*
X148624797Y-49551080D01*
X148622955Y-49554331D01*
X148621131Y-49557593D01*
X148619327Y-49560858D01*
X148617541Y-49564133D01*
X148615776Y-49567412D01*
X148614028Y-49570699D01*
X148612302Y-49573991D01*
X148610593Y-49577291D01*
X148608905Y-49580594D01*
X148607235Y-49583906D01*
X148605586Y-49587221D01*
X148603956Y-49590545D01*
X148602346Y-49593871D01*
X148600755Y-49597205D01*
X148599185Y-49600542D01*
X148597633Y-49603886D01*
X148596102Y-49607233D01*
X148594589Y-49610587D01*
X148593098Y-49613943D01*
X148591626Y-49617307D01*
X148590174Y-49620672D01*
X148588742Y-49624045D01*
X148587330Y-49627418D01*
X148585938Y-49630799D01*
X148584566Y-49634181D01*
X148583214Y-49637570D01*
X148581882Y-49640959D01*
X148580570Y-49644355D01*
X148579279Y-49647751D01*
X148578007Y-49651155D01*
X148576756Y-49654557D01*
X148575524Y-49657967D01*
X148574314Y-49661376D01*
X148573122Y-49664792D01*
X148571952Y-49668206D01*
X148570801Y-49671628D01*
X148569672Y-49675048D01*
X148568561Y-49678474D01*
X148567472Y-49681899D01*
X148566403Y-49685330D01*
X148565354Y-49688759D01*
X148564325Y-49692195D01*
X148563317Y-49695628D01*
X148562329Y-49699067D01*
X148561362Y-49702504D01*
X148560414Y-49705947D01*
X148559488Y-49709387D01*
X148558580Y-49712833D01*
X148557695Y-49716277D01*
X148556828Y-49719725D01*
X148555983Y-49723171D01*
X148555158Y-49726622D01*
X148554353Y-49730070D01*
X148553568Y-49733523D01*
X148552804Y-49736973D01*
X148552060Y-49740427D01*
X148551337Y-49743879D01*
X148550634Y-49747335D01*
X148549951Y-49750787D01*
X148549288Y-49754244D01*
X148548647Y-49757697D01*
X148548024Y-49761155D01*
X148547423Y-49764609D01*
X148546842Y-49768067D01*
X148546281Y-49771521D01*
X148545740Y-49774979D01*
X148545221Y-49778433D01*
X148544720Y-49781890D01*
X148544241Y-49785344D01*
X148543781Y-49788801D01*
X148543342Y-49792254D01*
X148542923Y-49795711D01*
X148542525Y-49799163D01*
X148542146Y-49802618D01*
X148541788Y-49806069D01*
X148541450Y-49809523D01*
X148541132Y-49812972D01*
X148540835Y-49816425D01*
X148540557Y-49819873D01*
X148540300Y-49823323D01*
X148540063Y-49826769D01*
X148539846Y-49830218D01*
X148539649Y-49833662D01*
X148539473Y-49837108D01*
X148539316Y-49840549D01*
X148539180Y-49843993D01*
X148539064Y-49847432D01*
X148538968Y-49850873D01*
X148538892Y-49854309D01*
X148538836Y-49857748D01*
X148538800Y-49861181D01*
X148538784Y-49864616D01*
X148538783Y-49865612D01*
X152769828Y-139175891D02*
X152777361Y-139175851D01*
X152784886Y-139175731D01*
X152792403Y-139175532D01*
X152799911Y-139175253D01*
X152807409Y-139174894D01*
X152814898Y-139174456D01*
X152822376Y-139173938D01*
X152829844Y-139173341D01*
X152837301Y-139172665D01*
X152844746Y-139171910D01*
X152852179Y-139171076D01*
X152859599Y-139170162D01*
X152867007Y-139169170D01*
X152874401Y-139168099D01*
X152881781Y-139166950D01*
X152889147Y-139165721D01*
X152896497Y-139164415D01*
X152903832Y-139163030D01*
X152911150Y-139161567D01*
X152918452Y-139160025D01*
X152925736Y-139158406D01*
X152933003Y-139156709D01*
X152940251Y-139154934D01*
X152947480Y-139153081D01*
X152954689Y-139151151D01*
X152961878Y-139149144D01*
X152969046Y-139147060D01*
X152976192Y-139144899D01*
X152983317Y-139142661D01*
X152990418Y-139140346D01*
X152997496Y-139137955D01*
X153004549Y-139135488D01*
X153011578Y-139132945D01*
X153018581Y-139130326D01*
X153025558Y-139127632D01*
X153032507Y-139124863D01*
X153039430Y-139122018D01*
X153046323Y-139119099D01*
X153053188Y-139116105D01*
X153060023Y-139113037D01*
X153066827Y-139109896D01*
X153073599Y-139106680D01*
X153080340Y-139103392D01*
X153087048Y-139100030D01*
X153093722Y-139096596D01*
X153100362Y-139093090D01*
X153106967Y-139089512D01*
X153113536Y-139085862D01*
X153120068Y-139082142D01*
X153126562Y-139078351D01*
X153133019Y-139074489D01*
X153139436Y-139070558D01*
X153145814Y-139066557D01*
X153152151Y-139062487D01*
X153158446Y-139058349D01*
X153164700Y-139054143D01*
X153170910Y-139049870D01*
X153177077Y-139045530D01*
X153183199Y-139041123D01*
X153189276Y-139036650D01*
X153195306Y-139032112D01*
X153201290Y-139027509D01*
X153207226Y-139022842D01*
X153213114Y-139018111D01*
X153218953Y-139013317D01*
X153224741Y-139008461D01*
X153230479Y-139003543D01*
X153236165Y-138998564D01*
X153241799Y-138993524D01*
X153247380Y-138988424D01*
X153252907Y-138983265D01*
X153258380Y-138978048D01*
X153263797Y-138972773D01*
X153269159Y-138967440D01*
X153271818Y-138964752D01*
X153274463Y-138962051D01*
X153277094Y-138959335D01*
X153279711Y-138956606D01*
X153282313Y-138953863D01*
X153284901Y-138951106D01*
X153287473Y-138948336D01*
X153290031Y-138945552D01*
X153292574Y-138942755D01*
X153295103Y-138939944D01*
X153297616Y-138937120D01*
X153300114Y-138934283D01*
X153302597Y-138931433D01*
X153305065Y-138928570D01*
X153307517Y-138925695D01*
X153309954Y-138922806D01*
X153312375Y-138919905D01*
X153314781Y-138916991D01*
X153317171Y-138914065D01*
X153319546Y-138911126D01*
X153321905Y-138908176D01*
X153324248Y-138905212D01*
X153326574Y-138902237D01*
X153328885Y-138899250D01*
X153331180Y-138896251D01*
X153333459Y-138893240D01*
X153335721Y-138890218D01*
X153337967Y-138887184D01*
X153340196Y-138884139D01*
X153342410Y-138881081D01*
X153344606Y-138878013D01*
X153346786Y-138874933D01*
X153348950Y-138871843D01*
X153351097Y-138868741D01*
X153353226Y-138865629D01*
X153355339Y-138862506D01*
X153357435Y-138859372D01*
X153359515Y-138856227D01*
X153361577Y-138853072D01*
X153363622Y-138849906D01*
X153365649Y-138846731D01*
X153367660Y-138843544D01*
X153369653Y-138840349D01*
X153371630Y-138837142D01*
X153373588Y-138833926D01*
X153375529Y-138830700D01*
X153377453Y-138827465D01*
X153379359Y-138824219D01*
X153381247Y-138820965D01*
X153383118Y-138817700D01*
X153384971Y-138814427D01*
X153386807Y-138811143D01*
X153388624Y-138807852D01*
X153390424Y-138804550D01*
X153392205Y-138801241D01*
X153393969Y-138797922D01*
X153395715Y-138794595D01*
X153397443Y-138791258D01*
X153399152Y-138787914D01*
X153400844Y-138784560D01*
X153402516Y-138781199D01*
X153404172Y-138777828D01*
X153405808Y-138774451D01*
X153407427Y-138771064D01*
X153409026Y-138767671D01*
X153410608Y-138764268D01*
X153412171Y-138760859D01*
X153413716Y-138757441D01*
X153415241Y-138754017D01*
X153416749Y-138750583D01*
X153418238Y-138747144D01*
X153419708Y-138743696D01*
X153421159Y-138740242D01*
X153422593Y-138736780D01*
X153424006Y-138733312D01*
X153425402Y-138729835D01*
X153426778Y-138726353D01*
X153428136Y-138722863D01*
X153429475Y-138719368D01*
X153430795Y-138715864D01*
X153432095Y-138712356D01*
X153433378Y-138708839D01*
X153434640Y-138705318D01*
X153435885Y-138701789D01*
X153437109Y-138698255D01*
X153438315Y-138694713D01*
X153439502Y-138691168D01*
X153440670Y-138687614D01*
X153441818Y-138684057D01*
X153442947Y-138680492D01*
X153444057Y-138676923D01*
X153445148Y-138673347D01*
X153446219Y-138669767D01*
X153447272Y-138666179D01*
X153448304Y-138662589D01*
X153449318Y-138658991D01*
X153450312Y-138655390D01*
X153451287Y-138651781D01*
X153452243Y-138648170D01*
X153453179Y-138644552D01*
X153454095Y-138640931D01*
X153454993Y-138637303D01*
X153455870Y-138633672D01*
X153456729Y-138630035D01*
X153457568Y-138626395D01*
X153458387Y-138622749D01*
X153459187Y-138619100D01*
X153459967Y-138615445D01*
X153460727Y-138611788D01*
X153461469Y-138608124D01*
X153462190Y-138604459D01*
X153462892Y-138600787D01*
X153463574Y-138597113D01*
X153464237Y-138593433D01*
X153464880Y-138589752D01*
X153465503Y-138586064D01*
X153466106Y-138582376D01*
X153466690Y-138578681D01*
X153467254Y-138574985D01*
X153467799Y-138571283D01*
X153468323Y-138567580D01*
X153468829Y-138563871D01*
X153469314Y-138560161D01*
X153469779Y-138556446D01*
X153470225Y-138552730D01*
X153470651Y-138549008D01*
X153471056Y-138545285D01*
X153471443Y-138541558D01*
X153471809Y-138537829D01*
X153472156Y-138534096D01*
X153472482Y-138530362D01*
X153472789Y-138526622D01*
X153473076Y-138522883D01*
X153473343Y-138519138D01*
X153473590Y-138515394D01*
X153473817Y-138511644D01*
X153474024Y-138507894D01*
X153474212Y-138504139D01*
X153474379Y-138500385D01*
X153474527Y-138496625D01*
X153474654Y-138492866D01*
X153474762Y-138489102D01*
X153474849Y-138485339D01*
X153474917Y-138481571D01*
X153474965Y-138477803D01*
X153474992Y-138474031D01*
X153475000Y-138470718D01*
D11*
X153475000Y-125425000D02*
X169447190Y-125425000D01*
X153475000Y-138470718D02*
X153475000Y-125425000D01*
X168883051Y-49195697D02*
X149208697Y-49195697D01*
X169447190Y-125425000D02*
X184537912Y-126482762D01*
D10*
X169552968Y-49865612D02*
X169552928Y-49858760D01*
X169552808Y-49851902D01*
X169552608Y-49845039D01*
X169552329Y-49838170D01*
X169551969Y-49831296D01*
X169551528Y-49824418D01*
X169551008Y-49817536D01*
X169550407Y-49810651D01*
X169549726Y-49803763D01*
X169548964Y-49796872D01*
X169548122Y-49789979D01*
X169547199Y-49783085D01*
X169546195Y-49776189D01*
X169545111Y-49769294D01*
X169543945Y-49762398D01*
X169542699Y-49755503D01*
X169541372Y-49748610D01*
X169539964Y-49741718D01*
X169538475Y-49734830D01*
X169536904Y-49727944D01*
X169535253Y-49721062D01*
X169533521Y-49714185D01*
X169531708Y-49707314D01*
X169529813Y-49700449D01*
X169527838Y-49693590D01*
X169525782Y-49686739D01*
X169523645Y-49679897D01*
X169521427Y-49673063D01*
X169519128Y-49666240D01*
X169516748Y-49659428D01*
X169514288Y-49652628D01*
X169511748Y-49645840D01*
X169509128Y-49639066D01*
X169506427Y-49632306D01*
X169503646Y-49625561D01*
X169500786Y-49618833D01*
X169497846Y-49612123D01*
X169494827Y-49605430D01*
X169491729Y-49598757D01*
X169488552Y-49592104D01*
X169485297Y-49585472D01*
X169481964Y-49578863D01*
X169478553Y-49572277D01*
X169475065Y-49565715D01*
X169471499Y-49559180D01*
X169467858Y-49552670D01*
X169464140Y-49546188D01*
X169460346Y-49539736D01*
X169456477Y-49533313D01*
X169452534Y-49526921D01*
X169448516Y-49520561D01*
X169444425Y-49514234D01*
X169440261Y-49507942D01*
X169436025Y-49501686D01*
X169431717Y-49495466D01*
X169427338Y-49489284D01*
X169422888Y-49483141D01*
X169418369Y-49477038D01*
X169413781Y-49470977D01*
X169409125Y-49464958D01*
X169404401Y-49458982D01*
X169399611Y-49453051D01*
X169394755Y-49447166D01*
X169389834Y-49441329D01*
X169384849Y-49435539D01*
X169379801Y-49429798D01*
X169374691Y-49424108D01*
X169369519Y-49418469D01*
X169364287Y-49412883D01*
X169358996Y-49407351D01*
X169353646Y-49401873D01*
X169348239Y-49396451D01*
X169345514Y-49393761D01*
X169342776Y-49391085D01*
X169340023Y-49388424D01*
X169337257Y-49385778D01*
X169334477Y-49383146D01*
X169331684Y-49380529D01*
X169328877Y-49377927D01*
X169326057Y-49375340D01*
X169323225Y-49372768D01*
X169320379Y-49370211D01*
X169317520Y-49367671D01*
X169314649Y-49365145D01*
X169311766Y-49362635D01*
X169308870Y-49360141D01*
X169305962Y-49357663D01*
X169303041Y-49355200D01*
X169300109Y-49352755D01*
X169297165Y-49350324D01*
X169294210Y-49347911D01*
X169291242Y-49345514D01*
X169288264Y-49343133D01*
X169285274Y-49340769D01*
X169282274Y-49338422D01*
X169279262Y-49336091D01*
X169276240Y-49333779D01*
X169273206Y-49331482D01*
X169270163Y-49329203D01*
X169267108Y-49326940D01*
X169264045Y-49324696D01*
X169260969Y-49322469D01*
X169257886Y-49320259D01*
X169254791Y-49318067D01*
X169251688Y-49315893D01*
X169248574Y-49313736D01*
X169245452Y-49311597D01*
X169242319Y-49309476D01*
X169239179Y-49307374D01*
X169236029Y-49305288D01*
X169232871Y-49303223D01*
X169229703Y-49301174D01*
X169226528Y-49299144D01*
X169223343Y-49297132D01*
X169220152Y-49295140D01*
X169216950Y-49293165D01*
X169213743Y-49291210D01*
X169210525Y-49289272D01*
X169207303Y-49287354D01*
X169204070Y-49285454D01*
X169200833Y-49283574D01*
X169197586Y-49281712D01*
X169194334Y-49279870D01*
X169191073Y-49278045D01*
X169187807Y-49276242D01*
X169184532Y-49274456D01*
X169181254Y-49272690D01*
X169177966Y-49270943D01*
X169174675Y-49269216D01*
X169171374Y-49267507D01*
X169168071Y-49265820D01*
X169164759Y-49264150D01*
X169161444Y-49262501D01*
X169158120Y-49260870D01*
X169154794Y-49259261D01*
X169151460Y-49257669D01*
X169148124Y-49256099D01*
X169144779Y-49254547D01*
X169141432Y-49253016D01*
X169138078Y-49251504D01*
X169134722Y-49250013D01*
X169131358Y-49248540D01*
X169127993Y-49247089D01*
X169124620Y-49245656D01*
X169121247Y-49244245D01*
X169117866Y-49242852D01*
X169114484Y-49241481D01*
X169111095Y-49240128D01*
X169107706Y-49238797D01*
X169104310Y-49237484D01*
X169100914Y-49236193D01*
X169097511Y-49234921D01*
X169094108Y-49233670D01*
X169090698Y-49232438D01*
X169087289Y-49231228D01*
X169083873Y-49230037D01*
X169080459Y-49228867D01*
X169077038Y-49227716D01*
X169073618Y-49226586D01*
X169070191Y-49225476D01*
X169066766Y-49224387D01*
X169063335Y-49223317D01*
X169059906Y-49222269D01*
X169056471Y-49221240D01*
X169053037Y-49220232D01*
X169049598Y-49219243D01*
X169046161Y-49218276D01*
X169042718Y-49217328D01*
X169039278Y-49216402D01*
X169035832Y-49215495D01*
X169032388Y-49214609D01*
X169028940Y-49213743D01*
X169025494Y-49212898D01*
X169022043Y-49212072D01*
X169018595Y-49211267D01*
X169015142Y-49210482D01*
X169011692Y-49209719D01*
X169008238Y-49208974D01*
X169004786Y-49208251D01*
X169001330Y-49207548D01*
X168997878Y-49206865D01*
X168994421Y-49206203D01*
X168990968Y-49205561D01*
X168987510Y-49204939D01*
X168984056Y-49204338D01*
X168980598Y-49203756D01*
X168977144Y-49203196D01*
X168973686Y-49202655D01*
X168970232Y-49202135D01*
X168966774Y-49201634D01*
X168963321Y-49201155D01*
X168959863Y-49200695D01*
X168956411Y-49200256D01*
X168952954Y-49199837D01*
X168949502Y-49199439D01*
X168946047Y-49199060D01*
X168942596Y-49198702D01*
X168939142Y-49198364D01*
X168935692Y-49198046D01*
X168932240Y-49197749D01*
X168928792Y-49197471D01*
X168925341Y-49197214D01*
X168921895Y-49196977D01*
X168918447Y-49196760D01*
X168915003Y-49196564D01*
X168911556Y-49196387D01*
X168908115Y-49196230D01*
X168904671Y-49196094D01*
X168901232Y-49195978D01*
X168897791Y-49195882D01*
X168894355Y-49195806D01*
X168890917Y-49195750D01*
X168887484Y-49195714D01*
X168884048Y-49195698D01*
X168883051Y-49195697D01*
D11*
X169552968Y-53144670D02*
X169552968Y-49865612D01*
D10*
X183938514Y-129973373D02*
X183937821Y-129980704D01*
X183937208Y-129988037D01*
X183936675Y-129995372D01*
X183936222Y-130002707D01*
X183935849Y-130010042D01*
X183935556Y-130017378D01*
X183935343Y-130024714D01*
X183935210Y-130032049D01*
X183935156Y-130039383D01*
X183935183Y-130046716D01*
X183935289Y-130054047D01*
X183935475Y-130061376D01*
X183935741Y-130068701D01*
X183936087Y-130076024D01*
X183936512Y-130083343D01*
X183937018Y-130090658D01*
X183937603Y-130097969D01*
X183938267Y-130105274D01*
X183939012Y-130112574D01*
X183939836Y-130119867D01*
X183940739Y-130127154D01*
X183941723Y-130134433D01*
X183942785Y-130141705D01*
X183943928Y-130148968D01*
X183945149Y-130156222D01*
X183946450Y-130163466D01*
X183947831Y-130170700D01*
X183949290Y-130177923D01*
X183950829Y-130185135D01*
X183952447Y-130192334D01*
X183954144Y-130199520D01*
X183955919Y-130206693D01*
X183957774Y-130213851D01*
X183959707Y-130220995D01*
X183961718Y-130228122D01*
X183963808Y-130235233D01*
X183965976Y-130242327D01*
X183968222Y-130249402D01*
X183970546Y-130256459D01*
X183972947Y-130263496D01*
X183975426Y-130270513D01*
X183977982Y-130277508D01*
X183980616Y-130284481D01*
X183983325Y-130291431D01*
X183986112Y-130298357D01*
X183988974Y-130305259D01*
X183991913Y-130312135D01*
X183994927Y-130318985D01*
X183998016Y-130325807D01*
X184001181Y-130332601D01*
X184004419Y-130339366D01*
X184007733Y-130346100D01*
X184011119Y-130352804D01*
X184014580Y-130359476D01*
X184018113Y-130366114D01*
X184021719Y-130372719D01*
X184025396Y-130379289D01*
X184029146Y-130385824D01*
X184032966Y-130392321D01*
X184036857Y-130398781D01*
X184040819Y-130405203D01*
X184044849Y-130411584D01*
X184048949Y-130417925D01*
X184053117Y-130424225D01*
X184057352Y-130430482D01*
X184061655Y-130436695D01*
X184066024Y-130442864D01*
X184070459Y-130448988D01*
X184074959Y-130455065D01*
X184079523Y-130461095D01*
X184084151Y-130467076D01*
X184088842Y-130473008D01*
X184093596Y-130478890D01*
X184098411Y-130484721D01*
X184103286Y-130490499D01*
X184108221Y-130496225D01*
X184113216Y-130501897D01*
X184115735Y-130504712D01*
X184118269Y-130507514D01*
X184120817Y-130510301D01*
X184123379Y-130513075D01*
X184125956Y-130515834D01*
X184128546Y-130518579D01*
X184131150Y-130521310D01*
X184133769Y-130524027D01*
X184136401Y-130526728D01*
X184139046Y-130529415D01*
X184141705Y-130532088D01*
X184144378Y-130534745D01*
X184147063Y-130537387D01*
X184149762Y-130540015D01*
X184152474Y-130542626D01*
X184155199Y-130545223D01*
X184157937Y-130547805D01*
X184160688Y-130550371D01*
X184163450Y-130552921D01*
X184166226Y-130555455D01*
X184169014Y-130557974D01*
X184171814Y-130560477D01*
X184174626Y-130562963D01*
X184177451Y-130565434D01*
X184180286Y-130567889D01*
X184183135Y-130570327D01*
X184185994Y-130572749D01*
X184188865Y-130575155D01*
X184191748Y-130577543D01*
X184194642Y-130579916D01*
X184197546Y-130582271D01*
X184200463Y-130584611D01*
X184203390Y-130586932D01*
X184206328Y-130589238D01*
X184209276Y-130591525D01*
X184212236Y-130593796D01*
X184215205Y-130596050D01*
X184218185Y-130598286D01*
X184221175Y-130600505D01*
X184224176Y-130602707D01*
X184227185Y-130604891D01*
X184230206Y-130607058D01*
X184233235Y-130609206D01*
X184236275Y-130611338D01*
X184239323Y-130613451D01*
X184242383Y-130615547D01*
X184245449Y-130617624D01*
X184248527Y-130619684D01*
X184251612Y-130621725D01*
X184254707Y-130623749D01*
X184257809Y-130625753D01*
X184260922Y-130627741D01*
X184264042Y-130629709D01*
X184267172Y-130631660D01*
X184270308Y-130633591D01*
X184273454Y-130635505D01*
X184276607Y-130637400D01*
X184279769Y-130639277D01*
X184282937Y-130641134D01*
X184286115Y-130642973D01*
X184289299Y-130644793D01*
X184292492Y-130646595D01*
X184295690Y-130648377D01*
X184298898Y-130650142D01*
X184302110Y-130651886D01*
X184305332Y-130653612D01*
X184308558Y-130655318D01*
X184311794Y-130657007D01*
X184315034Y-130658675D01*
X184318282Y-130660325D01*
X184321535Y-130661955D01*
X184324797Y-130663566D01*
X184328062Y-130665157D01*
X184331336Y-130666731D01*
X184334613Y-130668283D01*
X184337899Y-130669818D01*
X184341188Y-130671331D01*
X184344485Y-130672827D01*
X184347786Y-130674302D01*
X184351094Y-130675759D01*
X184354405Y-130677195D01*
X184357724Y-130678612D01*
X184361045Y-130680009D01*
X184364375Y-130681387D01*
X184367706Y-130682745D01*
X184371045Y-130684084D01*
X184374386Y-130685402D01*
X184377734Y-130686702D01*
X184381084Y-130687981D01*
X184384441Y-130689241D01*
X184387800Y-130690480D01*
X184391166Y-130691701D01*
X184394533Y-130692901D01*
X184397908Y-130694082D01*
X184401283Y-130695242D01*
X184404665Y-130696383D01*
X184408047Y-130697503D01*
X184411437Y-130698605D01*
X184414827Y-130699686D01*
X184418223Y-130700747D01*
X184421620Y-130701788D01*
X184425024Y-130702810D01*
X184428427Y-130703811D01*
X184431837Y-130704793D01*
X184435246Y-130705754D01*
X184438662Y-130706696D01*
X184442077Y-130707617D01*
X184445499Y-130708519D01*
X184448920Y-130709400D01*
X184452347Y-130710262D01*
X184455773Y-130711104D01*
X184459205Y-130711926D01*
X184462636Y-130712727D01*
X184466072Y-130713509D01*
X184467395Y-130713804D01*
D11*
X184467395Y-130713804D02*
X203824420Y-134133898D01*
X184537912Y-126482762D02*
X183938514Y-129973373D01*
D12*
X192800000Y-60550000D02*
X207200000Y-60550000D01*
X207200000Y-71950000D01*
X192800000Y-71950000D01*
X192800000Y-60550000D01*
D10*
X203824420Y-134133898D02*
X203831344Y-134135242D01*
X203838279Y-134136507D01*
X203845224Y-134137693D01*
X203852180Y-134138799D01*
X203859145Y-134139826D01*
X203866120Y-134140774D01*
X203873104Y-134141642D01*
X203880096Y-134142431D01*
X203887097Y-134143140D01*
X203894106Y-134143771D01*
X203901121Y-134144321D01*
X203908144Y-134144792D01*
X203915174Y-134145183D01*
X203922209Y-134145495D01*
X203929250Y-134145727D01*
X203936296Y-134145879D01*
X203943347Y-134145952D01*
X203950401Y-134145944D01*
X203957460Y-134145857D01*
X203964521Y-134145690D01*
X203971584Y-134145443D01*
X203978650Y-134145116D01*
X203985716Y-134144708D01*
X203992784Y-134144221D01*
X203999851Y-134143654D01*
X204006918Y-134143007D01*
X204013984Y-134142279D01*
X204021048Y-134141471D01*
X204028109Y-134140584D01*
X204035167Y-134139616D01*
X204042221Y-134138568D01*
X204049271Y-134137439D01*
X204056315Y-134136231D01*
X204063353Y-134134943D01*
X204070385Y-134133575D01*
X204077409Y-134132127D01*
X204084424Y-134130599D01*
X204091431Y-134128991D01*
X204098427Y-134127303D01*
X204105413Y-134125536D01*
X204112387Y-134123689D01*
X204119349Y-134121763D01*
X204126297Y-134119758D01*
X204133231Y-134117674D01*
X204140150Y-134115510D01*
X204147053Y-134113268D01*
X204153940Y-134110948D01*
X204160808Y-134108549D01*
X204167658Y-134106071D01*
X204174488Y-134103516D01*
X204181298Y-134100884D01*
X204188086Y-134098173D01*
X204194852Y-134095386D01*
X204201594Y-134092522D01*
X204208312Y-134089581D01*
X204215005Y-134086565D01*
X204221671Y-134083472D01*
X204228309Y-134080304D01*
X204234920Y-134077061D01*
X204241501Y-134073743D01*
X204248051Y-134070351D01*
X204254571Y-134066886D01*
X204261058Y-134063346D01*
X204267511Y-134059734D01*
X204273930Y-134056050D01*
X204280314Y-134052294D01*
X204286661Y-134048466D01*
X204292971Y-134044568D01*
X204299242Y-134040599D01*
X204305474Y-134036560D01*
X204311665Y-134032453D01*
X204317815Y-134028277D01*
X204323923Y-134024033D01*
X204329987Y-134019722D01*
X204336007Y-134015344D01*
X204341981Y-134010901D01*
X204347909Y-134006392D01*
X204350855Y-134004113D01*
X204353790Y-134001818D01*
X204356712Y-133999508D01*
X204359622Y-133997181D01*
X204362520Y-133994839D01*
X204365406Y-133992481D01*
X204368278Y-133990107D01*
X204371139Y-133987718D01*
X204373986Y-133985314D01*
X204376821Y-133982894D01*
X204379642Y-133980459D01*
X204382451Y-133978008D01*
X204385246Y-133975543D01*
X204388029Y-133973063D01*
X204390797Y-133970568D01*
X204393552Y-133968058D01*
X204396294Y-133965534D01*
X204399022Y-133962995D01*
X204401735Y-133960442D01*
X204404435Y-133957874D01*
X204407121Y-133955292D01*
X204409793Y-133952696D01*
X204412450Y-133950086D01*
X204415093Y-133947462D01*
X204417722Y-133944824D01*
X204420336Y-133942172D01*
X204422935Y-133939507D01*
X204425520Y-133936828D01*
X204428089Y-133934136D01*
X204430644Y-133931431D01*
X204433184Y-133928712D01*
X204435709Y-133925980D01*
X204438218Y-133923236D01*
X204440712Y-133920478D01*
X204443190Y-133917708D01*
X204445654Y-133914924D01*
X204448101Y-133912129D01*
X204450533Y-133909320D01*
X204452949Y-133906500D01*
X204455350Y-133903666D01*
X204457733Y-133900822D01*
X204460102Y-133897964D01*
X204462454Y-133895096D01*
X204464790Y-133892215D01*
X204467109Y-133889323D01*
X204469413Y-133886418D01*
X204471700Y-133883503D01*
X204473971Y-133880575D01*
X204476224Y-133877638D01*
X204478462Y-133874687D01*
X204480682Y-133871727D01*
X204482886Y-133868755D01*
X204485072Y-133865773D01*
X204487243Y-133862779D01*
X204489395Y-133859776D01*
X204491532Y-133856761D01*
X204493650Y-133853737D01*
X204495752Y-133850700D01*
X204497836Y-133847656D01*
X204499903Y-133844599D01*
X204501952Y-133841534D01*
X204503985Y-133838458D01*
X204505999Y-133835373D01*
X204507997Y-133832277D01*
X204509975Y-133829173D01*
X204511938Y-133826058D01*
X204513881Y-133822935D01*
X204515808Y-133819801D01*
X204517716Y-133816660D01*
X204519607Y-133813507D01*
X204521479Y-133810348D01*
X204523334Y-133807178D01*
X204525170Y-133804001D01*
X204526989Y-133800813D01*
X204528789Y-133797618D01*
X204530571Y-133794413D01*
X204532335Y-133791202D01*
X204534081Y-133787980D01*
X204535808Y-133784752D01*
X204537517Y-133781514D01*
X204539207Y-133778270D01*
X204540880Y-133775016D01*
X204542533Y-133771756D01*
X204544168Y-133768487D01*
X204545784Y-133765212D01*
X204547383Y-133761926D01*
X204548961Y-133758636D01*
X204550522Y-133755336D01*
X204552064Y-133752032D01*
X204553587Y-133748717D01*
X204555091Y-133745398D01*
X204556577Y-133742070D01*
X204558043Y-133738737D01*
X204559492Y-133735394D01*
X204560920Y-133732048D01*
X204562331Y-133728692D01*
X204563721Y-133725332D01*
X204565094Y-133721963D01*
X204566446Y-133718591D01*
X204567781Y-133715209D01*
X204569095Y-133711824D01*
X204570391Y-133708429D01*
X204571667Y-133705032D01*
X204572926Y-133701625D01*
X204574163Y-133698216D01*
X204575383Y-133694798D01*
X204576583Y-133691377D01*
X204577764Y-133687947D01*
X204578925Y-133684515D01*
X204580068Y-133681074D01*
X204581190Y-133677631D01*
X204582294Y-133674179D01*
X204583378Y-133670725D01*
X204584444Y-133667263D01*
X204585489Y-133663798D01*
X204586516Y-133660326D01*
X204587522Y-133656851D01*
X204588510Y-133653369D01*
X204589477Y-133649884D01*
X204590426Y-133646392D01*
X204591355Y-133642898D01*
X204592265Y-133639396D01*
X204593155Y-133635893D01*
X204594026Y-133632382D01*
X204594876Y-133628869D01*
X204595708Y-133625349D01*
X204596520Y-133621828D01*
X204597312Y-133618299D01*
X204598085Y-133614770D01*
X204598838Y-133611233D01*
X204600113Y-133605017D01*
D11*
X204600113Y-133605017D02*
X206830861Y-120807845D01*
X206292528Y-129515009D02*
X223322479Y-132547258D01*
D10*
X206830861Y-120807845D02*
X206831660Y-120801778D01*
X206832536Y-120795734D01*
X206833489Y-120789713D01*
X206834520Y-120783714D01*
X206835627Y-120777739D01*
X206836811Y-120771787D01*
X206838072Y-120765859D01*
X206839409Y-120759956D01*
X206840823Y-120754077D01*
X206842312Y-120748223D01*
X206843878Y-120742395D01*
X206845519Y-120736593D01*
X206847236Y-120730817D01*
X206849027Y-120725067D01*
X206850894Y-120719345D01*
X206852836Y-120713651D01*
X206854853Y-120707985D01*
X206856944Y-120702348D01*
X206859109Y-120696740D01*
X206861349Y-120691161D01*
X206863662Y-120685614D01*
X206866049Y-120680097D01*
X206868509Y-120674611D01*
X206871042Y-120669158D01*
X206873648Y-120663737D01*
X206876327Y-120658350D01*
X206879078Y-120652997D01*
X206881900Y-120647678D01*
X206884795Y-120642395D01*
X206887760Y-120637149D01*
X206890797Y-120631938D01*
X206893904Y-120626766D01*
X206897081Y-120621632D01*
X206900328Y-120616537D01*
X206903644Y-120611481D01*
X206907030Y-120606466D01*
X206910483Y-120601493D01*
X206914005Y-120596562D01*
X206917593Y-120591674D01*
X206921249Y-120586830D01*
X206924971Y-120582031D01*
X206928759Y-120577277D01*
X206932612Y-120572570D01*
X206936529Y-120567910D01*
X206940510Y-120563298D01*
X206944554Y-120558736D01*
X206948661Y-120554223D01*
X206952829Y-120549761D01*
X206957059Y-120545351D01*
X206961348Y-120540994D01*
X206965697Y-120536691D01*
X206970104Y-120532442D01*
X206974569Y-120528248D01*
X206979091Y-120524111D01*
X206983668Y-120520031D01*
X206988301Y-120516010D01*
X206992987Y-120512047D01*
X206997726Y-120508144D01*
X207002517Y-120504302D01*
X207007359Y-120500522D01*
X207012250Y-120496804D01*
X207017191Y-120493150D01*
X207022178Y-120489560D01*
X207027212Y-120486036D01*
X207032292Y-120482577D01*
X207037415Y-120479185D01*
X207042581Y-120475860D01*
X207047789Y-120472604D01*
X207053037Y-120469417D01*
X207058324Y-120466300D01*
X207060982Y-120464767D01*
X207063649Y-120463253D01*
X207066325Y-120461756D01*
X207069010Y-120460277D01*
X207071704Y-120458817D01*
X207074407Y-120457374D01*
X207077118Y-120455949D01*
X207079837Y-120454543D01*
X207082565Y-120453155D01*
X207085301Y-120451785D01*
X207088044Y-120450434D01*
X207090795Y-120449101D01*
X207093554Y-120447787D01*
X207096320Y-120446491D01*
X207099092Y-120445215D01*
X207101873Y-120443957D01*
X207104659Y-120442718D01*
X207107453Y-120441498D01*
X207110253Y-120440297D01*
X207113059Y-120439114D01*
X207115871Y-120437952D01*
X207118690Y-120436808D01*
X207121514Y-120435683D01*
X207124344Y-120434578D01*
X207127178Y-120433492D01*
X207130020Y-120432426D01*
X207132865Y-120431379D01*
X207135716Y-120430351D01*
X207138571Y-120429344D01*
X207141431Y-120428355D01*
X207144295Y-120427387D01*
X207147164Y-120426437D01*
X207150037Y-120425508D01*
X207152914Y-120424598D01*
X207155794Y-120423709D01*
X207158679Y-120422839D01*
X207161566Y-120421989D01*
X207164458Y-120421158D01*
X207167351Y-120420348D01*
X207170249Y-120419558D01*
X207173148Y-120418788D01*
X207176051Y-120418037D01*
X207178955Y-120417307D01*
X207181864Y-120416597D01*
X207184772Y-120415907D01*
X207187685Y-120415237D01*
X207190597Y-120414587D01*
X207193513Y-120413957D01*
X207196429Y-120413347D01*
X207199348Y-120412758D01*
X207202266Y-120412189D01*
X207205188Y-120411639D01*
X207208108Y-120411111D01*
X207211031Y-120410602D01*
X207213953Y-120410113D01*
X207216877Y-120409645D01*
X207219800Y-120409197D01*
X207222725Y-120408769D01*
X207225647Y-120408362D01*
X207228573Y-120407974D01*
X207231495Y-120407607D01*
X207234420Y-120407260D01*
X207237341Y-120406934D01*
X207240265Y-120406627D01*
X207243185Y-120406341D01*
X207246107Y-120406075D01*
X207249025Y-120405829D01*
X207251945Y-120405603D01*
X207254860Y-120405398D01*
X207257778Y-120405213D01*
X207260690Y-120405048D01*
X207263604Y-120404903D01*
X207266514Y-120404778D01*
X207269424Y-120404673D01*
X207272330Y-120404589D01*
X207275236Y-120404524D01*
X207278137Y-120404480D01*
X207281039Y-120404456D01*
X207283935Y-120404451D01*
X207286831Y-120404467D01*
X207289722Y-120404503D01*
X207292613Y-120404559D01*
X207295498Y-120404635D01*
X207298384Y-120404731D01*
X207301263Y-120404846D01*
X207304142Y-120404982D01*
X207307014Y-120405138D01*
X207309886Y-120405313D01*
X207312752Y-120405508D01*
X207315617Y-120405724D01*
X207318475Y-120405958D01*
X207321332Y-120406213D01*
X207324182Y-120406488D01*
X207327032Y-120406782D01*
X207329874Y-120407096D01*
X207332716Y-120407430D01*
X207335549Y-120407783D01*
X207338382Y-120408156D01*
X207341207Y-120408549D01*
X207344031Y-120408961D01*
X207346847Y-120409393D01*
X207349661Y-120409844D01*
X207352468Y-120410315D01*
X207355273Y-120410806D01*
X207358070Y-120411315D01*
X207360865Y-120411845D01*
X207363651Y-120412394D01*
X207366436Y-120412962D01*
X207369213Y-120413549D01*
X207371987Y-120414157D01*
X207374753Y-120414783D01*
X207377516Y-120415429D01*
X207380271Y-120416093D01*
X207383024Y-120416778D01*
X207385768Y-120417481D01*
X207388509Y-120418204D01*
X207391241Y-120418946D01*
X207393971Y-120419707D01*
X207395000Y-120420000D01*
X207395000Y-120420000D02*
X207401067Y-120420799D01*
X207407111Y-120421675D01*
X207413133Y-120422628D01*
X207419132Y-120423659D01*
X207425108Y-120424766D01*
X207431062Y-120425951D01*
X207436991Y-120427212D01*
X207442897Y-120428550D01*
X207448779Y-120429964D01*
X207454636Y-120431454D01*
X207460468Y-120433020D01*
X207466275Y-120434662D01*
X207472057Y-120436380D01*
X207477813Y-120438173D01*
X207483542Y-120440042D01*
X207489245Y-120441986D01*
X207494920Y-120444005D01*
X207500568Y-120446099D01*
X207506187Y-120448267D01*
X207511778Y-120450510D01*
X207517340Y-120452828D01*
X207522872Y-120455219D01*
X207528374Y-120457685D01*
X207533845Y-120460224D01*
X207539285Y-120462836D01*
X207544693Y-120465522D01*
X207550068Y-120468281D01*
X207555410Y-120471112D01*
X207560719Y-120474016D01*
X207565993Y-120476993D01*
X207571232Y-120480041D01*
X207576435Y-120483160D01*
X207581602Y-120486351D01*
X207586731Y-120489613D01*
X207591822Y-120492945D01*
X207596875Y-120496347D01*
X207601888Y-120499819D01*
X207606861Y-120503360D01*
X207611793Y-120506970D01*
X207616683Y-120510649D01*
X207621530Y-120514395D01*
X207626334Y-120518208D01*
X207631094Y-120522088D01*
X207635808Y-120526035D01*
X207640476Y-120530047D01*
X207645097Y-120534124D01*
X207649670Y-120538265D01*
X207654195Y-120542470D01*
X207658670Y-120546738D01*
X207663094Y-120551068D01*
X207667467Y-120555459D01*
X207671787Y-120559911D01*
X207676054Y-120564423D01*
X207680267Y-120568994D01*
X207684425Y-120573623D01*
X207688526Y-120578309D01*
X207692571Y-120583051D01*
X207696558Y-120587849D01*
X207700486Y-120592701D01*
X207704354Y-120597606D01*
X207708161Y-120602563D01*
X207711907Y-120607571D01*
X207715591Y-120612629D01*
X207719211Y-120617736D01*
X207722767Y-120622891D01*
X207726258Y-120628093D01*
X207729683Y-120633339D01*
X207733041Y-120638630D01*
X207736332Y-120643963D01*
X207739555Y-120649338D01*
X207742708Y-120654754D01*
X207745792Y-120660208D01*
X207748805Y-120665700D01*
X207751747Y-120671228D01*
X207753191Y-120674005D01*
X207754616Y-120676791D01*
X207756024Y-120679585D01*
X207757413Y-120682387D01*
X207758784Y-120685198D01*
X207760137Y-120688016D01*
X207761471Y-120690842D01*
X207762787Y-120693675D01*
X207764083Y-120696516D01*
X207765362Y-120699364D01*
X207766621Y-120702219D01*
X207767862Y-120705081D01*
X207769083Y-120707949D01*
X207770286Y-120710824D01*
X207771469Y-120713704D01*
X207772634Y-120716592D01*
X207773779Y-120719485D01*
X207774905Y-120722384D01*
X207776011Y-120725287D01*
X207777099Y-120728198D01*
X207778166Y-120731112D01*
X207779215Y-120734032D01*
X207780244Y-120736956D01*
X207781253Y-120739886D01*
X207782242Y-120742819D01*
X207783213Y-120745758D01*
X207784163Y-120748700D01*
X207785093Y-120751647D01*
X207786004Y-120754596D01*
X207786895Y-120757550D01*
X207787766Y-120760506D01*
X207788617Y-120763467D01*
X207789448Y-120766429D01*
X207790259Y-120769396D01*
X207791050Y-120772364D01*
X207791822Y-120775337D01*
X207792572Y-120778309D01*
X207793304Y-120781286D01*
X207794014Y-120784263D01*
X207794705Y-120787244D01*
X207795376Y-120790224D01*
X207796026Y-120793208D01*
X207796656Y-120796192D01*
X207797266Y-120799178D01*
X207797856Y-120802164D01*
X207798425Y-120805152D01*
X207798974Y-120808139D01*
X207799504Y-120811129D01*
X207800012Y-120814117D01*
X207800501Y-120817108D01*
X207800969Y-120820096D01*
X207801417Y-120823086D01*
X207801844Y-120826074D01*
X207802252Y-120829064D01*
X207802639Y-120832050D01*
X207803006Y-120835039D01*
X207803352Y-120838024D01*
X207803678Y-120841011D01*
X207803984Y-120843994D01*
X207804270Y-120846978D01*
X207804535Y-120849958D01*
X207804780Y-120852940D01*
X207805005Y-120855917D01*
X207805210Y-120858895D01*
X207805394Y-120861868D01*
X207805558Y-120864841D01*
X207805702Y-120867810D01*
X207805826Y-120870779D01*
X207805930Y-120873743D01*
X207806014Y-120876707D01*
X207806077Y-120879665D01*
X207806120Y-120882623D01*
X207806144Y-120885575D01*
X207806147Y-120888527D01*
X207806130Y-120891473D01*
X207806093Y-120894419D01*
X207806037Y-120897357D01*
X207805960Y-120900296D01*
X207805863Y-120903227D01*
X207805746Y-120906158D01*
X207805610Y-120909081D01*
X207805453Y-120912004D01*
X207805277Y-120914919D01*
X207805081Y-120917834D01*
X207804865Y-120920740D01*
X207804630Y-120923646D01*
X207804374Y-120926543D01*
X207804099Y-120929439D01*
X207803805Y-120932327D01*
X207803490Y-120935214D01*
X207803156Y-120938091D01*
X207802803Y-120940968D01*
X207802430Y-120943836D01*
X207802037Y-120946702D01*
X207801625Y-120949559D01*
X207801193Y-120952414D01*
X207800742Y-120955260D01*
X207800272Y-120958104D01*
X207799782Y-120960939D01*
X207799273Y-120963771D01*
X207798745Y-120966594D01*
X207798196Y-120969415D01*
X207797630Y-120972226D01*
X207797043Y-120975035D01*
X207796438Y-120977834D01*
X207795813Y-120980630D01*
X207795000Y-120984139D01*
D11*
X207795000Y-120984139D02*
X206292528Y-129515009D01*
X208549085Y-53144670D02*
X169552968Y-53144670D01*
X209501072Y-53144670D02*
X208549085Y-53144670D01*
D10*
X210241503Y-53885104D02*
X210241493Y-53880995D01*
X210241463Y-53876894D01*
X210241413Y-53872802D01*
X210241343Y-53868720D01*
X210241254Y-53864646D01*
X210241145Y-53860581D01*
X210241015Y-53856525D01*
X210240867Y-53852478D01*
X210240698Y-53848440D01*
X210240510Y-53844411D01*
X210240302Y-53840391D01*
X210240075Y-53836380D01*
X210239829Y-53832377D01*
X210239562Y-53828384D01*
X210239277Y-53824400D01*
X210238972Y-53820425D01*
X210238647Y-53816458D01*
X210238304Y-53812501D01*
X210237941Y-53808552D01*
X210237559Y-53804613D01*
X210237157Y-53800683D01*
X210236737Y-53796762D01*
X210236297Y-53792849D01*
X210235838Y-53788946D01*
X210235361Y-53785051D01*
X210234864Y-53781166D01*
X210234348Y-53777290D01*
X210233813Y-53773423D01*
X210233260Y-53769565D01*
X210232687Y-53765716D01*
X210232096Y-53761875D01*
X210231485Y-53758045D01*
X210230856Y-53754223D01*
X210230209Y-53750410D01*
X210229542Y-53746606D01*
X210228857Y-53742812D01*
X210228153Y-53739026D01*
X210227431Y-53735250D01*
X210226690Y-53731482D01*
X210225930Y-53727725D01*
X210225152Y-53723975D01*
X210224355Y-53720236D01*
X210223540Y-53716505D01*
X210222707Y-53712784D01*
X210221855Y-53709071D01*
X210220984Y-53705368D01*
X210220095Y-53701674D01*
X210219188Y-53697990D01*
X210218263Y-53694314D01*
X210217319Y-53690648D01*
X210216357Y-53686990D01*
X210215377Y-53683343D01*
X210214379Y-53679704D01*
X210213362Y-53676075D01*
X210212328Y-53672455D01*
X210211275Y-53668844D01*
X210210204Y-53665243D01*
X210209115Y-53661651D01*
X210208008Y-53658068D01*
X210206883Y-53654495D01*
X210205740Y-53650930D01*
X210204579Y-53647376D01*
X210202203Y-53640295D01*
X210199756Y-53633251D01*
X210197237Y-53626245D01*
X210194646Y-53619277D01*
X210191985Y-53612347D01*
X210189253Y-53605456D01*
X210186450Y-53598602D01*
X210183576Y-53591787D01*
X210180632Y-53585010D01*
X210177617Y-53578272D01*
X210174533Y-53571573D01*
X210171378Y-53564913D01*
X210168154Y-53558292D01*
X210164860Y-53551710D01*
X210161496Y-53545168D01*
X210158063Y-53538666D01*
X210154560Y-53532203D01*
X210150988Y-53525781D01*
X210147348Y-53519399D01*
X210143638Y-53513057D01*
X210139860Y-53506757D01*
X210136013Y-53500497D01*
X210132097Y-53494278D01*
X210128113Y-53488101D01*
X210124061Y-53481965D01*
X210119940Y-53475871D01*
X210115752Y-53469819D01*
X210111496Y-53463810D01*
X210107172Y-53457843D01*
X210102780Y-53451919D01*
X210098321Y-53446039D01*
X210093794Y-53440202D01*
X210089201Y-53434408D01*
X210084540Y-53428659D01*
X210079812Y-53422954D01*
X210075017Y-53417294D01*
X210070156Y-53411679D01*
X210065228Y-53406109D01*
X210060234Y-53400584D01*
X210055173Y-53395106D01*
X210050047Y-53389674D01*
X210044854Y-53384288D01*
X210039596Y-53378950D01*
X210034272Y-53373659D01*
X210028882Y-53368415D01*
X210023428Y-53363220D01*
X210017908Y-53358073D01*
X210012323Y-53352975D01*
X210006674Y-53347926D01*
X210000960Y-53342927D01*
X209995182Y-53337978D01*
X209989339Y-53333079D01*
X209983433Y-53328231D01*
X209977463Y-53323434D01*
X209971429Y-53318689D01*
X209965332Y-53313995D01*
X209959172Y-53309355D01*
X209952950Y-53304767D01*
X209946665Y-53300232D01*
X209940317Y-53295751D01*
X209933908Y-53291324D01*
X209927437Y-53286952D01*
X209920904Y-53282635D01*
X209914310Y-53278374D01*
X209907655Y-53274168D01*
X209900940Y-53270019D01*
X209894164Y-53265926D01*
X209887329Y-53261891D01*
X209880434Y-53257913D01*
X209873479Y-53253994D01*
X209866466Y-53250133D01*
X209859394Y-53246332D01*
X209852264Y-53242590D01*
X209845075Y-53238908D01*
X209837830Y-53235286D01*
X209830527Y-53231726D01*
X209823168Y-53228226D01*
X209815752Y-53224789D01*
X209808280Y-53221414D01*
X209800753Y-53218102D01*
X209793171Y-53214853D01*
X209785534Y-53211667D01*
X209777843Y-53208546D01*
X209770098Y-53205490D01*
X209762300Y-53202498D01*
X209754450Y-53199572D01*
X209746547Y-53196712D01*
X209738592Y-53193918D01*
X209730585Y-53191191D01*
X209722528Y-53188532D01*
X209714421Y-53185940D01*
X209706264Y-53183416D01*
X209698057Y-53180961D01*
X209689802Y-53178574D01*
X209681499Y-53176258D01*
X209673148Y-53174011D01*
X209664749Y-53171834D01*
X209656305Y-53169728D01*
X209647814Y-53167693D01*
X209639278Y-53165729D01*
X209630697Y-53163838D01*
X209622072Y-53162018D01*
X209613403Y-53160271D01*
X209604691Y-53158598D01*
X209595937Y-53156997D01*
X209587141Y-53155471D01*
X209578303Y-53154018D01*
X209569425Y-53152640D01*
X209560507Y-53151337D01*
X209556033Y-53150714D01*
X209551550Y-53150109D01*
X209547056Y-53149524D01*
X209542554Y-53148957D01*
X209538041Y-53148409D01*
X209533520Y-53147880D01*
X209528988Y-53147371D01*
X209524448Y-53146880D01*
X209519898Y-53146409D01*
X209515340Y-53145956D01*
X209510772Y-53145523D01*
X209506195Y-53145109D01*
X209501072Y-53144670D01*
D11*
X210241503Y-75251875D02*
X210241503Y-53885104D01*
X211307155Y-95605861D02*
X214014183Y-80117575D01*
D10*
X211695000Y-96170000D02*
X211688933Y-96169201D01*
X211682889Y-96168325D01*
X211676868Y-96167372D01*
X211670869Y-96166342D01*
X211664894Y-96165234D01*
X211658942Y-96164050D01*
X211653014Y-96162789D01*
X211647111Y-96161452D01*
X211641232Y-96160038D01*
X211635378Y-96158549D01*
X211629550Y-96156983D01*
X211623748Y-96155342D01*
X211617972Y-96153626D01*
X211612223Y-96151834D01*
X211606501Y-96149967D01*
X211600806Y-96148025D01*
X211595140Y-96146009D01*
X211589503Y-96143918D01*
X211583895Y-96141752D01*
X211578317Y-96139513D01*
X211572769Y-96137200D01*
X211567252Y-96134813D01*
X211561766Y-96132353D01*
X211556313Y-96129819D01*
X211550892Y-96127213D01*
X211545505Y-96124535D01*
X211540152Y-96121784D01*
X211534834Y-96118961D01*
X211529551Y-96116067D01*
X211524304Y-96113101D01*
X211519094Y-96110065D01*
X211513921Y-96106958D01*
X211508787Y-96103780D01*
X211503692Y-96100533D01*
X211498636Y-96097217D01*
X211493622Y-96093832D01*
X211488648Y-96090379D01*
X211483717Y-96086857D01*
X211478829Y-96083268D01*
X211473985Y-96079613D01*
X211469186Y-96075891D01*
X211464432Y-96072103D01*
X211459725Y-96068250D01*
X211455065Y-96064333D01*
X211450453Y-96060352D01*
X211445891Y-96056308D01*
X211441378Y-96052201D01*
X211436916Y-96048032D01*
X211432506Y-96043803D01*
X211428149Y-96039514D01*
X211423846Y-96035165D01*
X211419597Y-96030758D01*
X211415403Y-96026293D01*
X211411266Y-96021771D01*
X211407186Y-96017193D01*
X211403164Y-96012561D01*
X211399202Y-96007875D01*
X211395299Y-96003136D01*
X211391457Y-95998345D01*
X211387677Y-95993503D01*
X211383959Y-95988612D01*
X211380305Y-95983671D01*
X211376715Y-95978684D01*
X211373190Y-95973650D01*
X211369732Y-95968570D01*
X211366339Y-95963447D01*
X211363015Y-95958281D01*
X211359759Y-95953073D01*
X211356572Y-95947825D01*
X211353454Y-95942538D01*
X211351922Y-95939881D01*
X211350408Y-95937213D01*
X211348911Y-95934537D01*
X211347432Y-95931852D01*
X211345971Y-95929158D01*
X211344528Y-95926455D01*
X211343104Y-95923744D01*
X211341697Y-95921025D01*
X211340309Y-95918297D01*
X211338940Y-95915561D01*
X211337588Y-95912818D01*
X211336256Y-95910067D01*
X211334942Y-95907309D01*
X211333646Y-95904543D01*
X211332369Y-95901770D01*
X211331111Y-95898990D01*
X211329872Y-95896203D01*
X211328652Y-95893409D01*
X211327451Y-95890610D01*
X211326269Y-95887803D01*
X211325106Y-95884991D01*
X211323962Y-95882172D01*
X211322838Y-95879349D01*
X211321733Y-95876518D01*
X211320647Y-95873684D01*
X211319580Y-95870843D01*
X211318534Y-95867998D01*
X211317506Y-95865147D01*
X211316498Y-95862292D01*
X211315509Y-95859431D01*
X211314541Y-95856567D01*
X211313592Y-95853698D01*
X211312663Y-95850826D01*
X211311753Y-95847948D01*
X211310863Y-95845069D01*
X211309993Y-95842183D01*
X211309143Y-95839297D01*
X211308313Y-95836405D01*
X211307503Y-95833512D01*
X211306712Y-95830614D01*
X211305942Y-95827715D01*
X211305192Y-95824811D01*
X211304462Y-95821907D01*
X211303751Y-95818999D01*
X211303061Y-95816090D01*
X211302391Y-95813178D01*
X211301741Y-95810266D01*
X211301111Y-95807349D01*
X211300502Y-95804434D01*
X211299912Y-95801515D01*
X211299343Y-95798597D01*
X211298794Y-95795675D01*
X211298265Y-95792755D01*
X211297756Y-95789832D01*
X211297268Y-95786910D01*
X211296799Y-95783985D01*
X211296351Y-95781063D01*
X211295923Y-95778138D01*
X211295516Y-95775215D01*
X211295129Y-95772290D01*
X211294762Y-95769368D01*
X211294414Y-95766443D01*
X211294088Y-95763522D01*
X211293781Y-95760598D01*
X211293495Y-95757678D01*
X211293229Y-95754756D01*
X211292983Y-95751838D01*
X211292758Y-95748918D01*
X211292552Y-95746003D01*
X211292367Y-95743085D01*
X211292202Y-95740173D01*
X211292057Y-95737258D01*
X211291932Y-95734349D01*
X211291828Y-95731439D01*
X211291743Y-95728533D01*
X211291679Y-95725627D01*
X211291634Y-95722726D01*
X211291610Y-95719824D01*
X211291606Y-95716928D01*
X211291622Y-95714032D01*
X211291657Y-95711141D01*
X211291713Y-95708250D01*
X211291789Y-95705365D01*
X211291885Y-95702479D01*
X211292001Y-95699600D01*
X211292136Y-95696722D01*
X211292292Y-95693849D01*
X211292467Y-95690977D01*
X211292663Y-95688112D01*
X211292878Y-95685247D01*
X211293113Y-95682389D01*
X211293368Y-95679531D01*
X211293642Y-95676681D01*
X211293936Y-95673831D01*
X211294250Y-95670989D01*
X211294584Y-95668148D01*
X211294937Y-95665314D01*
X211295310Y-95662481D01*
X211295703Y-95659656D01*
X211296115Y-95656832D01*
X211296547Y-95654016D01*
X211296999Y-95651202D01*
X211297469Y-95648395D01*
X211297960Y-95645591D01*
X211298470Y-95642794D01*
X211298999Y-95639999D01*
X211299548Y-95637212D01*
X211300116Y-95634427D01*
X211300704Y-95631651D01*
X211301311Y-95628877D01*
X211301937Y-95626111D01*
X211302583Y-95623347D01*
X211303248Y-95620592D01*
X211303932Y-95617840D01*
X211304635Y-95615096D01*
X211305359Y-95612355D01*
X211306100Y-95609622D01*
X211306862Y-95606893D01*
X211307155Y-95605861D01*
X212259139Y-95782155D02*
X212258340Y-95788222D01*
X212257464Y-95794266D01*
X212256511Y-95800287D01*
X212255481Y-95806286D01*
X212254373Y-95812261D01*
X212253189Y-95818213D01*
X212251928Y-95824141D01*
X212250591Y-95830044D01*
X212249177Y-95835923D01*
X212247688Y-95841777D01*
X212246122Y-95847605D01*
X212244481Y-95853407D01*
X212242765Y-95859183D01*
X212240973Y-95864932D01*
X212239106Y-95870654D01*
X212237164Y-95876349D01*
X212235148Y-95882015D01*
X212233057Y-95887652D01*
X212230891Y-95893260D01*
X212228652Y-95898838D01*
X212226339Y-95904386D01*
X212223952Y-95909903D01*
X212221492Y-95915388D01*
X212218958Y-95920842D01*
X212216352Y-95926262D01*
X212213674Y-95931650D01*
X212210923Y-95937003D01*
X212208100Y-95942321D01*
X212205206Y-95947604D01*
X212202240Y-95952851D01*
X212199204Y-95958061D01*
X212196097Y-95963234D01*
X212192919Y-95968368D01*
X212189673Y-95973463D01*
X212186356Y-95978518D01*
X212182971Y-95983533D01*
X212179518Y-95988506D01*
X212175996Y-95993437D01*
X212172407Y-95998325D01*
X212168752Y-96003169D01*
X212165030Y-96007969D01*
X212161242Y-96012722D01*
X212157389Y-96017430D01*
X212153472Y-96022090D01*
X212149491Y-96026701D01*
X212145447Y-96031264D01*
X212141340Y-96035776D01*
X212137172Y-96040238D01*
X212132942Y-96044648D01*
X212128653Y-96049005D01*
X212124304Y-96053309D01*
X212119897Y-96057558D01*
X212115432Y-96061751D01*
X212110910Y-96065888D01*
X212106333Y-96069968D01*
X212101700Y-96073990D01*
X212097014Y-96077953D01*
X212092275Y-96081855D01*
X212087484Y-96085697D01*
X212082642Y-96089477D01*
X212077751Y-96093195D01*
X212072810Y-96096849D01*
X212067823Y-96100439D01*
X212062789Y-96103964D01*
X212057710Y-96107423D01*
X212052586Y-96110815D01*
X212047420Y-96114139D01*
X212042213Y-96117395D01*
X212036965Y-96120583D01*
X212031677Y-96123700D01*
X212029020Y-96125232D01*
X212026352Y-96126747D01*
X212023676Y-96128243D01*
X212020991Y-96129722D01*
X212018297Y-96131183D01*
X212015594Y-96132626D01*
X212012883Y-96134050D01*
X212010164Y-96135457D01*
X212007436Y-96136845D01*
X212004700Y-96138215D01*
X212001957Y-96139566D01*
X211999206Y-96140899D01*
X211996448Y-96142213D01*
X211993681Y-96143508D01*
X211990909Y-96144785D01*
X211988128Y-96146043D01*
X211985342Y-96147282D01*
X211982548Y-96148502D01*
X211979749Y-96149703D01*
X211976942Y-96150885D01*
X211974130Y-96152048D01*
X211971311Y-96153192D01*
X211968488Y-96154316D01*
X211965657Y-96155422D01*
X211962823Y-96156507D01*
X211959982Y-96157574D01*
X211957137Y-96158621D01*
X211954285Y-96159648D01*
X211951431Y-96160656D01*
X211948570Y-96161645D01*
X211945706Y-96162613D01*
X211942837Y-96163562D01*
X211939965Y-96164492D01*
X211937087Y-96165401D01*
X211934207Y-96166291D01*
X211931322Y-96167161D01*
X211928435Y-96168011D01*
X211925543Y-96168841D01*
X211922650Y-96169651D01*
X211919752Y-96170442D01*
X211916853Y-96171212D01*
X211913950Y-96171963D01*
X211911046Y-96172693D01*
X211908137Y-96173403D01*
X211905229Y-96174093D01*
X211902316Y-96174763D01*
X211899404Y-96175413D01*
X211896488Y-96176043D01*
X211893572Y-96176652D01*
X211890653Y-96177242D01*
X211887735Y-96177811D01*
X211884813Y-96178361D01*
X211881893Y-96178889D01*
X211878970Y-96179398D01*
X211876048Y-96179886D01*
X211873124Y-96180355D01*
X211870201Y-96180803D01*
X211867276Y-96181231D01*
X211864354Y-96181638D01*
X211861428Y-96182026D01*
X211858506Y-96182393D01*
X211855581Y-96182740D01*
X211852660Y-96183066D01*
X211849736Y-96183373D01*
X211846816Y-96183659D01*
X211843894Y-96183925D01*
X211840976Y-96184171D01*
X211838056Y-96184397D01*
X211835141Y-96184602D01*
X211832223Y-96184787D01*
X211829311Y-96184952D01*
X211826397Y-96185097D01*
X211823487Y-96185222D01*
X211820577Y-96185327D01*
X211817671Y-96185411D01*
X211814765Y-96185476D01*
X211811864Y-96185520D01*
X211808962Y-96185544D01*
X211806066Y-96185549D01*
X211803170Y-96185533D01*
X211800279Y-96185497D01*
X211797388Y-96185441D01*
X211794502Y-96185365D01*
X211791617Y-96185269D01*
X211788738Y-96185154D01*
X211785859Y-96185018D01*
X211782987Y-96184863D01*
X211780115Y-96184687D01*
X211777249Y-96184492D01*
X211774384Y-96184277D01*
X211771526Y-96184042D01*
X211768669Y-96183787D01*
X211765818Y-96183512D01*
X211762969Y-96183218D01*
X211760127Y-96182904D01*
X211757285Y-96182570D01*
X211754451Y-96182217D01*
X211751619Y-96181844D01*
X211748794Y-96181452D01*
X211745970Y-96181039D01*
X211743154Y-96180607D01*
X211740339Y-96180156D01*
X211737533Y-96179685D01*
X211734728Y-96179194D01*
X211731931Y-96178685D01*
X211729136Y-96178155D01*
X211726350Y-96177607D01*
X211723565Y-96177038D01*
X211720788Y-96176451D01*
X211718014Y-96175843D01*
X211715248Y-96175217D01*
X211712485Y-96174571D01*
X211709730Y-96173907D01*
X211706977Y-96173222D01*
X211704233Y-96172519D01*
X211701492Y-96171796D01*
X211698760Y-96171054D01*
X211696030Y-96170293D01*
X211695000Y-96170000D01*
D11*
X213273752Y-90131044D02*
X212259139Y-95782155D01*
X214014183Y-80117575D02*
X214613581Y-76697481D01*
X214084700Y-75921789D02*
X210241503Y-75251875D01*
D10*
X214613581Y-76697481D02*
X214614854Y-76690912D01*
X214616048Y-76684330D01*
X214617164Y-76677735D01*
X214618201Y-76671126D01*
X214619159Y-76664504D01*
X214620038Y-76657869D01*
X214620839Y-76651221D01*
X214621561Y-76644561D01*
X214622203Y-76637888D01*
X214622767Y-76631203D01*
X214623252Y-76624506D01*
X214623657Y-76617796D01*
X214623983Y-76611076D01*
X214624230Y-76604343D01*
X214624397Y-76597600D01*
X214624485Y-76590845D01*
X214624493Y-76584080D01*
X214624421Y-76577304D01*
X214624269Y-76570519D01*
X214624037Y-76563723D01*
X214623725Y-76556918D01*
X214623333Y-76550104D01*
X214622860Y-76543282D01*
X214622306Y-76536450D01*
X214621672Y-76529611D01*
X214620956Y-76522765D01*
X214620160Y-76515911D01*
X214619282Y-76509051D01*
X214618324Y-76502184D01*
X214617283Y-76495312D01*
X214616162Y-76488435D01*
X214614958Y-76481553D01*
X214613673Y-76474667D01*
X214612306Y-76467778D01*
X214610856Y-76460886D01*
X214609325Y-76453991D01*
X214607712Y-76447095D01*
X214606016Y-76440199D01*
X214604238Y-76433301D01*
X214602378Y-76426405D01*
X214600435Y-76419509D01*
X214598410Y-76412616D01*
X214596302Y-76405725D01*
X214594112Y-76398838D01*
X214591839Y-76391956D01*
X214589484Y-76385078D01*
X214587047Y-76378207D01*
X214584527Y-76371343D01*
X214581926Y-76364487D01*
X214579242Y-76357639D01*
X214576476Y-76350802D01*
X214573629Y-76343976D01*
X214570700Y-76337161D01*
X214567689Y-76330360D01*
X214564597Y-76323572D01*
X214561425Y-76316800D01*
X214558171Y-76310043D01*
X214554838Y-76303305D01*
X214551424Y-76296584D01*
X214547931Y-76289883D01*
X214544358Y-76283204D01*
X214540707Y-76276546D01*
X214536977Y-76269911D01*
X214533170Y-76263301D01*
X214529285Y-76256717D01*
X214525323Y-76250159D01*
X214521284Y-76243630D01*
X214517170Y-76237131D01*
X214512981Y-76230662D01*
X214508718Y-76224226D01*
X214504381Y-76217823D01*
X214499971Y-76211455D01*
X214495489Y-76205123D01*
X214490936Y-76198829D01*
X214486312Y-76192574D01*
X214481618Y-76186359D01*
X214476856Y-76180185D01*
X214472026Y-76174055D01*
X214467128Y-76167969D01*
X214462166Y-76161928D01*
X214457138Y-76155935D01*
X214452046Y-76149990D01*
X214446892Y-76144095D01*
X214441676Y-76138250D01*
X214436400Y-76132458D01*
X214431064Y-76126720D01*
X214425671Y-76121037D01*
X214420220Y-76115410D01*
X214414714Y-76109840D01*
X214411941Y-76107077D01*
X214409154Y-76104329D01*
X214406354Y-76101596D01*
X214403540Y-76098879D01*
X214400714Y-76096176D01*
X214397875Y-76093489D01*
X214395024Y-76090818D01*
X214392159Y-76088162D01*
X214389283Y-76085522D01*
X214386395Y-76082898D01*
X214383495Y-76080291D01*
X214380582Y-76077700D01*
X214377659Y-76075125D01*
X214374723Y-76072567D01*
X214371777Y-76070025D01*
X214368820Y-76067501D01*
X214365852Y-76064993D01*
X214362872Y-76062503D01*
X214359883Y-76060030D01*
X214356883Y-76057574D01*
X214353873Y-76055136D01*
X214350853Y-76052715D01*
X214347823Y-76050312D01*
X214344783Y-76047927D01*
X214341735Y-76045561D01*
X214338676Y-76043211D01*
X214335609Y-76040881D01*
X214332532Y-76038568D01*
X214329448Y-76036275D01*
X214326353Y-76033999D01*
X214323252Y-76031744D01*
X214320141Y-76029505D01*
X214317023Y-76027287D01*
X214313896Y-76025086D01*
X214310764Y-76022906D01*
X214307621Y-76020744D01*
X214304474Y-76018602D01*
X214301317Y-76016479D01*
X214298156Y-76014376D01*
X214294985Y-76012291D01*
X214291810Y-76010228D01*
X214288627Y-76008182D01*
X214285440Y-76006158D01*
X214282244Y-76004152D01*
X214279044Y-76002168D01*
X214275837Y-76000202D01*
X214272627Y-75998258D01*
X214269408Y-75996333D01*
X214266187Y-75994429D01*
X214262959Y-75992544D01*
X214259728Y-75990681D01*
X214256490Y-75988837D01*
X214253250Y-75987015D01*
X214250003Y-75985211D01*
X214246755Y-75983431D01*
X214243499Y-75981668D01*
X214240244Y-75979929D01*
X214236981Y-75978208D01*
X214233718Y-75976510D01*
X214230448Y-75974831D01*
X214227179Y-75973175D01*
X214223903Y-75971538D01*
X214220628Y-75969924D01*
X214217346Y-75968329D01*
X214214066Y-75966756D01*
X214210780Y-75965203D01*
X214207495Y-75963673D01*
X214204204Y-75962162D01*
X214200915Y-75960675D01*
X214197621Y-75959206D01*
X214194329Y-75957761D01*
X214191031Y-75956335D01*
X214187736Y-75954932D01*
X214184436Y-75953549D01*
X214181139Y-75952188D01*
X214177837Y-75950847D01*
X214174538Y-75949530D01*
X214171235Y-75948231D01*
X214167935Y-75946956D01*
X214164631Y-75945701D01*
X214161331Y-75944468D01*
X214158026Y-75943256D01*
X214154726Y-75942066D01*
X214151421Y-75940896D01*
X214148122Y-75939749D01*
X214144818Y-75938622D01*
X214141520Y-75937517D01*
X214138217Y-75936433D01*
X214134920Y-75935371D01*
X214131619Y-75934329D01*
X214128324Y-75933310D01*
X214125025Y-75932311D01*
X214121733Y-75931335D01*
X214118437Y-75930378D01*
X214115147Y-75929445D01*
X214111854Y-75928531D01*
X214108567Y-75927639D01*
X214105278Y-75926768D01*
X214101995Y-75925919D01*
X214098709Y-75925091D01*
X214095431Y-75924284D01*
X214092150Y-75923498D01*
X214088876Y-75922734D01*
X214085599Y-75921990D01*
X214084700Y-75921789D01*
X223322479Y-132547258D02*
X223326358Y-132547953D01*
X223330232Y-132548627D01*
X223334101Y-132549280D01*
X223337966Y-132549912D01*
X223341827Y-132550523D01*
X223345683Y-132551113D01*
X223349535Y-132551682D01*
X223353381Y-132552230D01*
X223357223Y-132552757D01*
X223361061Y-132553263D01*
X223364893Y-132553749D01*
X223368721Y-132554214D01*
X223372544Y-132554658D01*
X223376362Y-132555082D01*
X223380176Y-132555485D01*
X223383984Y-132555867D01*
X223387788Y-132556229D01*
X223391587Y-132556570D01*
X223395381Y-132556891D01*
X223399169Y-132557191D01*
X223402953Y-132557471D01*
X223406731Y-132557730D01*
X223410505Y-132557970D01*
X223414273Y-132558188D01*
X223418037Y-132558387D01*
X223421794Y-132558565D01*
X223425548Y-132558723D01*
X223429295Y-132558860D01*
X223433037Y-132558978D01*
X223436774Y-132559075D01*
X223440506Y-132559152D01*
X223444232Y-132559209D01*
X223447953Y-132559246D01*
X223451668Y-132559263D01*
X223455378Y-132559260D01*
X223459083Y-132559237D01*
X223462782Y-132559194D01*
X223466475Y-132559132D01*
X223470163Y-132559049D01*
X223473845Y-132558946D01*
X223477521Y-132558824D01*
X223481192Y-132558682D01*
X223484857Y-132558520D01*
X223488516Y-132558338D01*
X223492170Y-132558136D01*
X223495817Y-132557915D01*
X223499459Y-132557674D01*
X223503094Y-132557414D01*
X223506725Y-132557134D01*
X223510348Y-132556834D01*
X223513966Y-132556515D01*
X223517578Y-132556177D01*
X223521184Y-132555818D01*
X223524783Y-132555441D01*
X223528377Y-132555044D01*
X223531964Y-132554627D01*
X223535546Y-132554191D01*
X223539120Y-132553736D01*
X223542689Y-132553261D01*
X223546251Y-132552767D01*
X223549807Y-132552254D01*
X223553356Y-132551722D01*
X223556900Y-132551170D01*
X223560436Y-132550599D01*
X223563967Y-132550009D01*
X223567490Y-132549399D01*
X223571007Y-132548771D01*
X223574517Y-132548123D01*
X223578021Y-132547457D01*
X223581518Y-132546771D01*
X223588492Y-132545343D01*
X223595438Y-132543838D01*
X223602357Y-132542258D01*
X223609248Y-132540602D01*
X223616111Y-132538871D01*
X223622945Y-132537064D01*
X223629751Y-132535183D01*
X223636527Y-132533226D01*
X223643274Y-132531195D01*
X223649991Y-132529090D01*
X223656677Y-132526910D01*
X223663334Y-132524656D01*
X223669959Y-132522329D01*
X223676553Y-132519927D01*
X223683115Y-132517452D01*
X223689646Y-132514904D01*
X223696144Y-132512282D01*
X223702609Y-132509588D01*
X223709041Y-132506820D01*
X223715440Y-132503981D01*
X223721805Y-132501068D01*
X223728135Y-132498084D01*
X223734431Y-132495027D01*
X223740692Y-132491898D01*
X223746917Y-132488698D01*
X223753107Y-132485427D01*
X223759260Y-132482084D01*
X223765377Y-132478670D01*
X223771456Y-132475185D01*
X223777498Y-132471630D01*
X223783502Y-132468004D01*
X223789467Y-132464308D01*
X223795394Y-132460541D01*
X223801281Y-132456706D01*
X223807129Y-132452800D01*
X223812937Y-132448825D01*
X223818704Y-132444781D01*
X223824430Y-132440668D01*
X223830114Y-132436487D01*
X223835756Y-132432237D01*
X223841356Y-132427918D01*
X223846914Y-132423532D01*
X223852427Y-132419078D01*
X223857897Y-132414557D01*
X223863323Y-132409969D01*
X223868704Y-132405313D01*
X223874040Y-132400591D01*
X223879330Y-132395803D01*
X223884573Y-132390948D01*
X223889771Y-132386028D01*
X223894920Y-132381042D01*
X223900023Y-132375991D01*
X223905077Y-132370875D01*
X223910082Y-132365694D01*
X223915039Y-132360449D01*
X223919946Y-132355140D01*
X223924803Y-132349767D01*
X223929609Y-132344330D01*
X223934364Y-132338831D01*
X223939068Y-132333269D01*
X223943719Y-132327644D01*
X223948318Y-132321958D01*
X223952864Y-132316209D01*
X223957357Y-132310400D01*
X223961795Y-132304529D01*
X223966179Y-132298597D01*
X223970508Y-132292606D01*
X223974782Y-132286554D01*
X223978999Y-132280443D01*
X223983160Y-132274273D01*
X223987265Y-132268043D01*
X223991312Y-132261756D01*
X223995301Y-132255410D01*
X223999231Y-132249007D01*
X224003103Y-132242547D01*
X224006915Y-132236030D01*
X224008799Y-132232750D01*
X224010668Y-132229456D01*
X224012522Y-132226148D01*
X224014360Y-132222827D01*
X224016184Y-132219491D01*
X224017992Y-132216141D01*
X224019785Y-132212778D01*
X224021562Y-132209401D01*
X224023325Y-132206010D01*
X224025071Y-132202606D01*
X224026803Y-132199188D01*
X224028518Y-132195757D01*
X224030218Y-132192312D01*
X224031902Y-132188854D01*
X224033571Y-132185382D01*
X224035223Y-132181898D01*
X224036860Y-132178399D01*
X224038481Y-132174888D01*
X224040086Y-132171364D01*
X224041675Y-132167826D01*
X224043248Y-132164276D01*
X224044804Y-132160712D01*
X224046345Y-132157136D01*
X224047869Y-132153547D01*
X224049377Y-132149945D01*
X224050868Y-132146330D01*
X224052343Y-132142703D01*
X224053802Y-132139063D01*
X224055244Y-132135410D01*
X224056669Y-132131745D01*
X224058078Y-132128067D01*
X224059470Y-132124377D01*
X224060846Y-132120675D01*
X224062204Y-132116960D01*
X224063546Y-132113234D01*
X224064871Y-132109495D01*
X224066179Y-132105744D01*
X224067470Y-132101981D01*
X224068744Y-132098206D01*
X224070001Y-132094419D01*
X224071241Y-132090620D01*
X224072463Y-132086809D01*
X224073668Y-132082987D01*
X224074856Y-132079153D01*
X224076027Y-132075307D01*
X224077180Y-132071450D01*
X224078316Y-132067581D01*
X224079434Y-132063701D01*
X224080535Y-132059809D01*
X224081618Y-132055906D01*
X224082683Y-132051992D01*
X224083731Y-132048066D01*
X224084761Y-132044130D01*
X224085773Y-132040182D01*
X224086767Y-132036224D01*
X224087744Y-132032254D01*
X224088702Y-132028273D01*
X224089643Y-132024282D01*
X224090565Y-132020280D01*
X224091470Y-132016267D01*
X224092356Y-132012243D01*
X224093225Y-132008209D01*
X224094074Y-132004164D01*
X224094906Y-132000109D01*
X224095720Y-131996043D01*
X224096515Y-131991967D01*
X224097291Y-131987881D01*
X224098050Y-131983784D01*
X224098171Y-131983119D01*
D11*
X224098171Y-131983119D02*
X230832582Y-93903724D01*
X230374220Y-93128032D02*
X213273752Y-90131044D01*
D10*
X230832582Y-93903724D02*
X230833895Y-93900085D01*
X230835185Y-93896450D01*
X230836452Y-93892820D01*
X230837696Y-93889193D01*
X230838918Y-93885571D01*
X230840118Y-93881954D01*
X230841295Y-93878340D01*
X230842449Y-93874731D01*
X230843582Y-93871126D01*
X230844692Y-93867526D01*
X230845780Y-93863929D01*
X230846845Y-93860337D01*
X230847889Y-93856750D01*
X230848910Y-93853167D01*
X230849909Y-93849588D01*
X230850887Y-93846013D01*
X230851842Y-93842443D01*
X230852776Y-93838878D01*
X230853688Y-93835316D01*
X230854578Y-93831760D01*
X230855446Y-93828207D01*
X230856293Y-93824660D01*
X230857118Y-93821116D01*
X230857922Y-93817577D01*
X230858704Y-93814043D01*
X230859465Y-93810513D01*
X230860204Y-93806987D01*
X230860922Y-93803467D01*
X230861619Y-93799950D01*
X230862294Y-93796439D01*
X230862948Y-93792931D01*
X230863581Y-93789429D01*
X230864193Y-93785930D01*
X230864784Y-93782437D01*
X230865354Y-93778948D01*
X230865902Y-93775464D01*
X230866430Y-93771984D01*
X230866937Y-93768509D01*
X230867423Y-93765038D01*
X230867888Y-93761573D01*
X230868333Y-93758111D01*
X230868757Y-93754655D01*
X230869160Y-93751203D01*
X230869542Y-93747757D01*
X230869904Y-93744314D01*
X230870245Y-93740877D01*
X230870566Y-93737444D01*
X230870866Y-93734017D01*
X230871146Y-93730593D01*
X230871405Y-93727175D01*
X230871644Y-93723761D01*
X230871862Y-93720353D01*
X230872060Y-93716948D01*
X230872238Y-93713550D01*
X230872396Y-93710155D01*
X230872533Y-93706766D01*
X230872651Y-93703381D01*
X230872748Y-93700002D01*
X230872825Y-93696627D01*
X230872882Y-93693257D01*
X230872919Y-93689892D01*
X230872935Y-93686533D01*
X230872932Y-93683177D01*
X230872909Y-93679828D01*
X230872866Y-93676483D01*
X230872803Y-93673144D01*
X230872720Y-93669808D01*
X230872617Y-93666479D01*
X230872353Y-93659835D01*
X230872009Y-93653212D01*
X230871586Y-93646609D01*
X230871084Y-93640026D01*
X230870505Y-93633465D01*
X230869846Y-93626925D01*
X230869110Y-93620406D01*
X230868296Y-93613909D01*
X230867404Y-93607433D01*
X230866434Y-93600979D01*
X230865387Y-93594547D01*
X230864263Y-93588138D01*
X230863062Y-93581751D01*
X230861783Y-93575386D01*
X230860428Y-93569045D01*
X230858996Y-93562726D01*
X230857488Y-93556431D01*
X230855903Y-93550160D01*
X230854241Y-93543912D01*
X230852504Y-93537689D01*
X230850690Y-93531490D01*
X230848800Y-93525316D01*
X230846835Y-93519167D01*
X230844794Y-93513043D01*
X230842677Y-93506945D01*
X230840484Y-93500873D01*
X230838217Y-93494828D01*
X230835873Y-93488809D01*
X230833455Y-93482817D01*
X230830962Y-93476852D01*
X230828393Y-93470916D01*
X230825750Y-93465007D01*
X230823032Y-93459127D01*
X230820239Y-93453276D01*
X230817372Y-93447455D01*
X230814430Y-93441663D01*
X230811415Y-93435902D01*
X230808325Y-93430171D01*
X230805161Y-93424472D01*
X230801923Y-93418804D01*
X230798612Y-93413169D01*
X230795227Y-93407566D01*
X230791769Y-93401996D01*
X230788238Y-93396460D01*
X230784633Y-93390958D01*
X230780956Y-93385491D01*
X230777206Y-93380059D01*
X230773384Y-93374664D01*
X230769490Y-93369304D01*
X230765523Y-93363981D01*
X230761485Y-93358696D01*
X230757376Y-93353450D01*
X230753195Y-93348241D01*
X230748943Y-93343073D01*
X230744621Y-93337944D01*
X230740228Y-93332856D01*
X230735766Y-93327809D01*
X230731233Y-93322803D01*
X230726631Y-93317841D01*
X230721960Y-93312921D01*
X230717221Y-93308046D01*
X230712413Y-93303214D01*
X230707537Y-93298428D01*
X230702593Y-93293688D01*
X230697583Y-93288994D01*
X230692506Y-93284347D01*
X230687362Y-93279748D01*
X230682153Y-93275198D01*
X230676879Y-93270697D01*
X230671540Y-93266246D01*
X230666136Y-93261845D01*
X230660669Y-93257496D01*
X230655139Y-93253198D01*
X230649546Y-93248953D01*
X230643890Y-93244762D01*
X230638174Y-93240625D01*
X230632396Y-93236542D01*
X230626559Y-93232515D01*
X230620662Y-93228544D01*
X230614705Y-93224629D01*
X230608691Y-93220772D01*
X230602619Y-93216973D01*
X230596490Y-93213233D01*
X230590304Y-93209553D01*
X230584064Y-93205932D01*
X230577768Y-93202373D01*
X230571418Y-93198874D01*
X230565016Y-93195438D01*
X230558560Y-93192065D01*
X230552053Y-93188754D01*
X230545496Y-93185508D01*
X230538888Y-93182326D01*
X230532230Y-93179209D01*
X230525525Y-93176159D01*
X230518772Y-93173174D01*
X230511972Y-93170256D01*
X230508554Y-93168822D01*
X230505126Y-93167406D01*
X230501686Y-93166006D01*
X230498235Y-93164623D01*
X230494773Y-93163258D01*
X230491300Y-93161910D01*
X230487816Y-93160578D01*
X230484321Y-93159265D01*
X230480816Y-93157968D01*
X230477300Y-93156690D01*
X230473774Y-93155428D01*
X230470238Y-93154184D01*
X230466692Y-93152958D01*
X230463135Y-93151750D01*
X230459569Y-93150559D01*
X230455993Y-93149386D01*
X230452407Y-93148231D01*
X230448811Y-93147094D01*
X230445206Y-93145975D01*
X230441592Y-93144874D01*
X230437968Y-93143791D01*
X230434336Y-93142726D01*
X230430694Y-93141680D01*
X230427043Y-93140652D01*
X230423384Y-93139642D01*
X230419716Y-93138650D01*
X230416039Y-93137677D01*
X230412354Y-93136722D01*
X230408661Y-93135786D01*
X230404959Y-93134868D01*
X230401250Y-93133969D01*
X230397532Y-93133089D01*
X230393806Y-93132227D01*
X230390073Y-93131384D01*
X230386332Y-93130560D01*
X230382583Y-93129755D01*
X230378828Y-93128969D01*
X230375064Y-93128201D01*
X230374220Y-93128032D01*
D12*
X88247299Y-158167469D02*
X87253330Y-157173500D01*
X88453498Y-154845982D02*
X87329973Y-155969507D01*
X90574817Y-156967301D02*
X89451292Y-158090826D01*
X90651461Y-155763307D02*
X89657492Y-154769338D01*
X87064983Y-157055135D02*
G75*
G02*
X87253330Y-157173500I-165221J-471943D01*
G01*
X87064984Y-157055136D02*
G75*
G02*
X87103304Y-156099585I165200J471919D01*
G01*
X87329973Y-155969506D02*
G75*
G02*
X87103304Y-156099585I-353558J353561D01*
G01*
X88247300Y-158167469D02*
G75*
G02*
X88365664Y-158355816I-353571J-353563D01*
G01*
X88583577Y-154619312D02*
G75*
G02*
X88453498Y-154845980I-483526J126826D01*
G01*
X88583579Y-154619314D02*
G75*
G02*
X89539129Y-154580990I483632J-126875D01*
G01*
X89321214Y-158317495D02*
G75*
G02*
X88365663Y-158355815I-483632J126885D01*
G01*
X89321214Y-158317495D02*
G75*
G02*
X89451293Y-158090826I483616J-126876D01*
G01*
X89657492Y-154769338D02*
G75*
G02*
X89539134Y-154580989I353501J353502D01*
G01*
X90574819Y-156967301D02*
G75*
G02*
X90801485Y-156837215I353645J-353683D01*
G01*
X90839808Y-155881672D02*
G75*
G02*
X90651461Y-155763308I165165J471856D01*
G01*
X90839808Y-155881672D02*
G75*
G02*
X90801488Y-156837224I-165209J-471919D01*
G01*
X141303075Y-134525685D02*
X141303075Y-133120001D01*
X143797526Y-132322844D02*
X142208621Y-132322844D01*
X143797526Y-135322842D02*
X142208621Y-135322842D01*
X144703073Y-134525685D02*
X144703073Y-133120001D01*
X141253590Y-132903123D02*
G75*
G02*
X141303075Y-133120001I-450543J-216885D01*
G01*
X141253590Y-132903124D02*
G75*
G02*
X141956363Y-132254544I450511J216883D01*
G01*
X141303075Y-134525686D02*
G75*
G02*
X141253590Y-134742563I-500028J8D01*
G01*
X141956363Y-135391142D02*
G75*
G02*
X141253590Y-134742562I-252258J431701D01*
G01*
X141956363Y-135391142D02*
G75*
G02*
X142208622Y-135322843I252253J-431683D01*
G01*
X142208622Y-132322843D02*
G75*
G02*
X141956363Y-132254544I2J500009D01*
G01*
X143797527Y-135322843D02*
G75*
G02*
X144049789Y-135391135I-27J-500157D01*
G01*
X144049785Y-132254544D02*
G75*
G02*
X143797527Y-132322842I-252235J431624D01*
G01*
X144049785Y-132254546D02*
G75*
G02*
X144752559Y-132903124I252265J-431694D01*
G01*
X144703073Y-133120001D02*
G75*
G02*
X144752564Y-132903126I499927J1D01*
G01*
X144752558Y-134742563D02*
G75*
G02*
X144049784Y-135391145I-450518J-216877D01*
G01*
X144752558Y-134742563D02*
G75*
G02*
X144703086Y-134525686I450142J216763D01*
G01*
X178785773Y-75731549D02*
X178883829Y-74329289D01*
X181218541Y-76700768D02*
X179633507Y-76589932D01*
X181427810Y-73708078D02*
X179842776Y-73597242D01*
X182177489Y-75968721D02*
X182275545Y-74566461D01*
X178785773Y-75731550D02*
G75*
G02*
X178721280Y-75944447I-498809J34888D01*
G01*
X178849593Y-74109488D02*
G75*
G02*
X178883829Y-74329289I-464583J-184929D01*
G01*
X178849593Y-74109489D02*
G75*
G02*
X179595896Y-73511512I464543J184928D01*
G01*
X179377099Y-76640469D02*
G75*
G02*
X178721280Y-75944446I-221532J448244D01*
G01*
X179377099Y-76640469D02*
G75*
G02*
X179633507Y-76589933I221520J-448200D01*
G01*
X179842777Y-73597241D02*
G75*
G02*
X179595897Y-73511510I34878J498778D01*
G01*
X181218542Y-76700769D02*
G75*
G02*
X181465426Y-76786492I-34916J-498937D01*
G01*
X181684219Y-73657541D02*
G75*
G02*
X181427811Y-73708078I-221528J448229D01*
G01*
X181684219Y-73657543D02*
G75*
G02*
X182340040Y-74353564I221537J-448240D01*
G01*
X182211725Y-76188521D02*
G75*
G02*
X181465419Y-76786502I-464549J-184924D01*
G01*
X182211725Y-76188521D02*
G75*
G02*
X182177489Y-75968722I464472J184912D01*
G01*
X182275545Y-74566461D02*
G75*
G02*
X182340035Y-74353561I498809J-34879D01*
G01*
X121741429Y-137645232D02*
X121377611Y-136287445D01*
X123580747Y-134871839D02*
X122045982Y-135283078D01*
X124357203Y-137769615D02*
X122822439Y-138180854D01*
X125025575Y-136765248D02*
X124661757Y-135407461D01*
X121273680Y-136090765D02*
G75*
G02*
X121377611Y-136287445I-379057J-326104D01*
G01*
X121273681Y-136090766D02*
G75*
G02*
X121784642Y-135282395I379026J326094D01*
G01*
X121741429Y-137645233D02*
G75*
G02*
X121749761Y-137867527I-482983J-129407D01*
G01*
X122045983Y-135283077D02*
G75*
G02*
X121784642Y-135282394I-129410J482972D01*
G01*
X122596454Y-138312116D02*
G75*
G02*
X121749762Y-137867527I-355398J351697D01*
G01*
X122596454Y-138312116D02*
G75*
G02*
X122822440Y-138180855I355477J-351842D01*
G01*
X123806733Y-134740577D02*
G75*
G02*
X123580747Y-134871838I-355371J351660D01*
G01*
X123806733Y-134740579D02*
G75*
G02*
X124653425Y-135185165I355400J-351693D01*
G01*
X124357204Y-137769616D02*
G75*
G02*
X124618546Y-137770291I129424J-483121D01*
G01*
X124661757Y-135407461D02*
G75*
G02*
X124653430Y-135185166I482892J129392D01*
G01*
X125129506Y-136961928D02*
G75*
G02*
X124618543Y-137770301I-379035J-326090D01*
G01*
X125129506Y-136961928D02*
G75*
G02*
X125025575Y-136765249I378965J326057D01*
G01*
X157389474Y-84430945D02*
X157389474Y-83025261D01*
X159883925Y-82228104D02*
X158295020Y-82228104D01*
X159883925Y-85228102D02*
X158295020Y-85228102D01*
X160789472Y-84430945D02*
X160789472Y-83025261D01*
X157339989Y-82808383D02*
G75*
G02*
X157389474Y-83025261I-450543J-216885D01*
G01*
X157339989Y-82808384D02*
G75*
G02*
X158042762Y-82159804I450511J216883D01*
G01*
X157389474Y-84430946D02*
G75*
G02*
X157339989Y-84647823I-500028J8D01*
G01*
X158042762Y-85296402D02*
G75*
G02*
X157339989Y-84647822I-252258J431701D01*
G01*
X158042762Y-85296402D02*
G75*
G02*
X158295021Y-85228103I252253J-431683D01*
G01*
X158295021Y-82228103D02*
G75*
G02*
X158042762Y-82159804I2J500009D01*
G01*
X159883926Y-85228103D02*
G75*
G02*
X160136188Y-85296395I-27J-500157D01*
G01*
X160136184Y-82159804D02*
G75*
G02*
X159883926Y-82228102I-252235J431624D01*
G01*
X160136184Y-82159806D02*
G75*
G02*
X160838958Y-82808384I252265J-431694D01*
G01*
X160789472Y-83025261D02*
G75*
G02*
X160838963Y-82808386I499927J1D01*
G01*
X160838957Y-84647823D02*
G75*
G02*
X160136183Y-85296405I-450518J-216877D01*
G01*
X160838957Y-84647823D02*
G75*
G02*
X160789485Y-84430946I450142J216763D01*
G01*
X216279771Y-107059234D02*
X216523865Y-105674906D01*
X218597901Y-108277437D02*
X217033135Y-108001527D01*
X219118845Y-105323016D02*
X217554079Y-105047106D01*
X219628115Y-107649638D02*
X219872210Y-106265309D01*
X216279771Y-107059235D02*
G75*
G02*
X216193377Y-107264224I-492431J86837D01*
G01*
X216512792Y-105452729D02*
G75*
G02*
X216523865Y-105674906I-481360J-135355D01*
G01*
X216512792Y-105452730D02*
G75*
G02*
X217317513Y-104936039I481328J135357D01*
G01*
X216772849Y-108024985D02*
G75*
G02*
X216193377Y-107264223I-173462J468947D01*
G01*
X216772849Y-108024985D02*
G75*
G02*
X217033135Y-108001528I173459J-468928D01*
G01*
X217554080Y-105047105D02*
G75*
G02*
X217317513Y-104936039I86828J492413D01*
G01*
X218597901Y-108277438D02*
G75*
G02*
X218834472Y-108388498I-86878J-492554D01*
G01*
X219379131Y-105299558D02*
G75*
G02*
X219118846Y-105323016I-173461J468929D01*
G01*
X219379131Y-105299560D02*
G75*
G02*
X219958605Y-106060320I173470J-468941D01*
G01*
X219639188Y-107871814D02*
G75*
G02*
X218834465Y-108388506I-481334J-135350D01*
G01*
X219639188Y-107871814D02*
G75*
G02*
X219628118Y-107649640I480845J135321D01*
G01*
X219872210Y-106265309D02*
G75*
G02*
X219958601Y-106060317I492430J-86828D01*
G01*
X176165773Y-113741549D02*
X176263829Y-112339289D01*
X178598541Y-114710768D02*
X177013507Y-114599932D01*
X178807810Y-111718078D02*
X177222776Y-111607242D01*
X179557489Y-113978721D02*
X179655545Y-112576461D01*
X176165773Y-113741550D02*
G75*
G02*
X176101280Y-113954447I-498809J34888D01*
G01*
X176229593Y-112119488D02*
G75*
G02*
X176263829Y-112339289I-464583J-184929D01*
G01*
X176229593Y-112119489D02*
G75*
G02*
X176975896Y-111521512I464543J184928D01*
G01*
X176757099Y-114650469D02*
G75*
G02*
X176101280Y-113954446I-221532J448244D01*
G01*
X176757099Y-114650469D02*
G75*
G02*
X177013507Y-114599933I221520J-448200D01*
G01*
X177222777Y-111607241D02*
G75*
G02*
X176975897Y-111521510I34878J498778D01*
G01*
X178598542Y-114710769D02*
G75*
G02*
X178845426Y-114796492I-34916J-498937D01*
G01*
X179064219Y-111667541D02*
G75*
G02*
X178807811Y-111718078I-221528J448229D01*
G01*
X179064219Y-111667543D02*
G75*
G02*
X179720040Y-112363564I221537J-448240D01*
G01*
X179591725Y-114198521D02*
G75*
G02*
X178845419Y-114796502I-464549J-184924D01*
G01*
X179591725Y-114198521D02*
G75*
G02*
X179557489Y-113978722I464472J184912D01*
G01*
X179655545Y-112576461D02*
G75*
G02*
X179720035Y-112363561I498809J-34879D01*
G01*
X119340106Y-96440425D02*
X119340106Y-95034741D01*
X121834557Y-94237584D02*
X120245652Y-94237584D01*
X121834557Y-97237582D02*
X120245652Y-97237582D01*
X122740104Y-96440425D02*
X122740104Y-95034741D01*
X119290621Y-94817863D02*
G75*
G02*
X119340106Y-95034741I-450543J-216885D01*
G01*
X119290621Y-94817864D02*
G75*
G02*
X119993394Y-94169284I450511J216883D01*
G01*
X119340106Y-96440426D02*
G75*
G02*
X119290621Y-96657303I-500028J8D01*
G01*
X119993394Y-97305882D02*
G75*
G02*
X119290621Y-96657302I-252258J431701D01*
G01*
X119993394Y-97305882D02*
G75*
G02*
X120245653Y-97237583I252253J-431683D01*
G01*
X120245653Y-94237583D02*
G75*
G02*
X119993394Y-94169284I2J500009D01*
G01*
X121834558Y-97237583D02*
G75*
G02*
X122086820Y-97305875I-27J-500157D01*
G01*
X122086816Y-94169284D02*
G75*
G02*
X121834558Y-94237582I-252235J431624D01*
G01*
X122086816Y-94169286D02*
G75*
G02*
X122789590Y-94817864I252265J-431694D01*
G01*
X122740104Y-95034741D02*
G75*
G02*
X122789595Y-94817866I499927J1D01*
G01*
X122789589Y-96657303D02*
G75*
G02*
X122086815Y-97305885I-450518J-216877D01*
G01*
X122789589Y-96657303D02*
G75*
G02*
X122740117Y-96440426I450142J216763D01*
G01*
X212999771Y-125859234D02*
X213243865Y-124474906D01*
X215317901Y-127077437D02*
X213753135Y-126801527D01*
X215838845Y-124123016D02*
X214274079Y-123847106D01*
X216348115Y-126449638D02*
X216592210Y-125065309D01*
X212999771Y-125859235D02*
G75*
G02*
X212913377Y-126064224I-492431J86837D01*
G01*
X213232792Y-124252729D02*
G75*
G02*
X213243865Y-124474906I-481360J-135355D01*
G01*
X213232792Y-124252730D02*
G75*
G02*
X214037513Y-123736039I481328J135357D01*
G01*
X213492849Y-126824985D02*
G75*
G02*
X212913377Y-126064223I-173462J468947D01*
G01*
X213492849Y-126824985D02*
G75*
G02*
X213753135Y-126801528I173459J-468928D01*
G01*
X214274080Y-123847105D02*
G75*
G02*
X214037513Y-123736039I86828J492413D01*
G01*
X215317901Y-127077438D02*
G75*
G02*
X215554472Y-127188498I-86878J-492554D01*
G01*
X216099131Y-124099558D02*
G75*
G02*
X215838846Y-124123016I-173461J468929D01*
G01*
X216099131Y-124099560D02*
G75*
G02*
X216678605Y-124860320I173470J-468941D01*
G01*
X216359188Y-126671814D02*
G75*
G02*
X215554465Y-127188506I-481334J-135350D01*
G01*
X216359188Y-126671814D02*
G75*
G02*
X216348118Y-126449640I480845J135321D01*
G01*
X216592210Y-125065309D02*
G75*
G02*
X216678601Y-124860317I492430J-86828D01*
G01*
X119323075Y-115555685D02*
X119323075Y-114150001D01*
X121817526Y-113352844D02*
X120228621Y-113352844D01*
X121817526Y-116352842D02*
X120228621Y-116352842D01*
X122723073Y-115555685D02*
X122723073Y-114150001D01*
X119273590Y-113933123D02*
G75*
G02*
X119323075Y-114150001I-450543J-216885D01*
G01*
X119273590Y-113933124D02*
G75*
G02*
X119976363Y-113284544I450511J216883D01*
G01*
X119323075Y-115555686D02*
G75*
G02*
X119273590Y-115772563I-500028J8D01*
G01*
X119976363Y-116421142D02*
G75*
G02*
X119273590Y-115772562I-252258J431701D01*
G01*
X119976363Y-116421142D02*
G75*
G02*
X120228622Y-116352843I252253J-431683D01*
G01*
X120228622Y-113352843D02*
G75*
G02*
X119976363Y-113284544I2J500009D01*
G01*
X121817527Y-116352843D02*
G75*
G02*
X122069789Y-116421135I-27J-500157D01*
G01*
X122069785Y-113284544D02*
G75*
G02*
X121817527Y-113352842I-252235J431624D01*
G01*
X122069785Y-113284546D02*
G75*
G02*
X122772559Y-113933124I252265J-431694D01*
G01*
X122723073Y-114150001D02*
G75*
G02*
X122772564Y-113933126I499927J1D01*
G01*
X122772558Y-115772563D02*
G75*
G02*
X122069784Y-116421145I-450518J-216877D01*
G01*
X122772558Y-115772563D02*
G75*
G02*
X122723086Y-115555686I450142J216763D01*
G01*
X119363075Y-77385685D02*
X119363075Y-75980001D01*
X121857526Y-75182844D02*
X120268621Y-75182844D01*
X121857526Y-78182842D02*
X120268621Y-78182842D01*
X122763073Y-77385685D02*
X122763073Y-75980001D01*
X119313590Y-75763123D02*
G75*
G02*
X119363075Y-75980001I-450543J-216885D01*
G01*
X119313590Y-75763124D02*
G75*
G02*
X120016363Y-75114544I450511J216883D01*
G01*
X119363075Y-77385686D02*
G75*
G02*
X119313590Y-77602563I-500028J8D01*
G01*
X120016363Y-78251142D02*
G75*
G02*
X119313590Y-77602562I-252258J431701D01*
G01*
X120016363Y-78251142D02*
G75*
G02*
X120268622Y-78182843I252253J-431683D01*
G01*
X120268622Y-75182843D02*
G75*
G02*
X120016363Y-75114544I2J500009D01*
G01*
X121857527Y-78182843D02*
G75*
G02*
X122109789Y-78251135I-27J-500157D01*
G01*
X122109785Y-75114544D02*
G75*
G02*
X121857527Y-75182842I-252235J431624D01*
G01*
X122109785Y-75114546D02*
G75*
G02*
X122812559Y-75763124I252265J-431694D01*
G01*
X122763073Y-75980001D02*
G75*
G02*
X122812564Y-75763126I499927J1D01*
G01*
X122812558Y-77602563D02*
G75*
G02*
X122109784Y-78251145I-450518J-216877D01*
G01*
X122812558Y-77602563D02*
G75*
G02*
X122763086Y-77385686I450142J216763D01*
G01*
X177425773Y-94711549D02*
X177523829Y-93309289D01*
X179858541Y-95680768D02*
X178273507Y-95569932D01*
X180067810Y-92688078D02*
X178482776Y-92577242D01*
X180817489Y-94948721D02*
X180915545Y-93546461D01*
X177425773Y-94711550D02*
G75*
G02*
X177361280Y-94924447I-498809J34888D01*
G01*
X177489593Y-93089488D02*
G75*
G02*
X177523829Y-93309289I-464583J-184929D01*
G01*
X177489593Y-93089489D02*
G75*
G02*
X178235896Y-92491512I464543J184928D01*
G01*
X178017099Y-95620469D02*
G75*
G02*
X177361280Y-94924446I-221532J448244D01*
G01*
X178017099Y-95620469D02*
G75*
G02*
X178273507Y-95569933I221520J-448200D01*
G01*
X178482777Y-92577241D02*
G75*
G02*
X178235897Y-92491510I34878J498778D01*
G01*
X179858542Y-95680769D02*
G75*
G02*
X180105426Y-95766492I-34916J-498937D01*
G01*
X180324219Y-92637541D02*
G75*
G02*
X180067811Y-92688078I-221528J448229D01*
G01*
X180324219Y-92637543D02*
G75*
G02*
X180980040Y-93333564I221537J-448240D01*
G01*
X180851725Y-95168521D02*
G75*
G02*
X180105419Y-95766502I-464549J-184924D01*
G01*
X180851725Y-95168521D02*
G75*
G02*
X180817489Y-94948722I464472J184912D01*
G01*
X180915545Y-93546461D02*
G75*
G02*
X180980035Y-93333561I498809J-34879D01*
G01*
X157403075Y-65425685D02*
X157403075Y-64020001D01*
X159897526Y-63222844D02*
X158308621Y-63222844D01*
X159897526Y-66222842D02*
X158308621Y-66222842D01*
X160803073Y-65425685D02*
X160803073Y-64020001D01*
X157353590Y-63803123D02*
G75*
G02*
X157403075Y-64020001I-450543J-216885D01*
G01*
X157353590Y-63803124D02*
G75*
G02*
X158056363Y-63154544I450511J216883D01*
G01*
X157403075Y-65425686D02*
G75*
G02*
X157353590Y-65642563I-500028J8D01*
G01*
X158056363Y-66291142D02*
G75*
G02*
X157353590Y-65642562I-252258J431701D01*
G01*
X158056363Y-66291142D02*
G75*
G02*
X158308622Y-66222843I252253J-431683D01*
G01*
X158308622Y-63222843D02*
G75*
G02*
X158056363Y-63154544I2J500009D01*
G01*
X159897527Y-66222843D02*
G75*
G02*
X160149789Y-66291135I-27J-500157D01*
G01*
X160149785Y-63154544D02*
G75*
G02*
X159897527Y-63222842I-252235J431624D01*
G01*
X160149785Y-63154546D02*
G75*
G02*
X160852559Y-63803124I252265J-431694D01*
G01*
X160803073Y-64020001D02*
G75*
G02*
X160852564Y-63803126I499927J1D01*
G01*
X160852558Y-65642563D02*
G75*
G02*
X160149784Y-66291145I-450518J-216877D01*
G01*
X160852558Y-65642563D02*
G75*
G02*
X160803086Y-65425686I450142J216763D01*
G01*
X103629458Y-145673796D02*
X102926616Y-144456438D01*
X104688295Y-142518854D02*
X103312263Y-143313307D01*
X106188294Y-145116929D02*
X104812262Y-145911381D01*
X106573942Y-143973797D02*
X105871100Y-142756439D01*
X102775321Y-144293359D02*
G75*
G02*
X102926616Y-144456438I-281759J-413120D01*
G01*
X102775322Y-144293359D02*
G75*
G02*
X103059651Y-143380287I281712J413081D01*
G01*
X103312263Y-143313305D02*
G75*
G02*
X103059651Y-143380286I-250010J433048D01*
G01*
X103629458Y-145673797D02*
G75*
G02*
X103695041Y-145886360I-433041J-250007D01*
G01*
X104627950Y-146096660D02*
G75*
G02*
X103695042Y-145886359I-434312J247735D01*
G01*
X104627950Y-146096660D02*
G75*
G02*
X104812263Y-145911382I434320J-247741D01*
G01*
X104872608Y-142333575D02*
G75*
G02*
X104688295Y-142518852I-434254J247680D01*
G01*
X104872609Y-142333577D02*
G75*
G02*
X105805518Y-142543875I434315J-247725D01*
G01*
X105871100Y-142756439D02*
G75*
G02*
X105805523Y-142543875I432949J249964D01*
G01*
X106188296Y-145116929D02*
G75*
G02*
X106440907Y-145049941I250055J-433162D01*
G01*
X106725237Y-144136876D02*
G75*
G02*
X106440907Y-145049952I-281722J-413080D01*
G01*
X106725237Y-144136876D02*
G75*
G02*
X106573943Y-143973798I281662J413030D01*
G01*
X193409771Y-127539234D02*
X193653865Y-126154906D01*
X195727901Y-128757437D02*
X194163135Y-128481527D01*
X196248845Y-125803016D02*
X194684079Y-125527106D01*
X196758115Y-128129638D02*
X197002210Y-126745309D01*
X193409771Y-127539235D02*
G75*
G02*
X193323377Y-127744224I-492431J86837D01*
G01*
X193642792Y-125932729D02*
G75*
G02*
X193653865Y-126154906I-481360J-135355D01*
G01*
X193642792Y-125932730D02*
G75*
G02*
X194447513Y-125416039I481328J135357D01*
G01*
X193902849Y-128504985D02*
G75*
G02*
X193323377Y-127744223I-173462J468947D01*
G01*
X193902849Y-128504985D02*
G75*
G02*
X194163135Y-128481528I173459J-468928D01*
G01*
X194684080Y-125527105D02*
G75*
G02*
X194447513Y-125416039I86828J492413D01*
G01*
X195727901Y-128757438D02*
G75*
G02*
X195964472Y-128868498I-86878J-492554D01*
G01*
X196509131Y-125779558D02*
G75*
G02*
X196248846Y-125803016I-173461J468929D01*
G01*
X196509131Y-125779560D02*
G75*
G02*
X197088605Y-126540320I173470J-468941D01*
G01*
X196769188Y-128351814D02*
G75*
G02*
X195964465Y-128868506I-481334J-135350D01*
G01*
X196769188Y-128351814D02*
G75*
G02*
X196758118Y-128129640I480845J135321D01*
G01*
X197002210Y-126745309D02*
G75*
G02*
X197088601Y-126540317I492430J-86828D01*
G01*
X138339474Y-112503542D02*
X138339474Y-111097858D01*
X140833925Y-110300701D02*
X139245020Y-110300701D01*
X140833925Y-113300699D02*
X139245020Y-113300699D01*
X141739472Y-112503542D02*
X141739472Y-111097858D01*
X138289989Y-110880980D02*
G75*
G02*
X138339474Y-111097858I-450543J-216885D01*
G01*
X138289989Y-110880981D02*
G75*
G02*
X138992762Y-110232401I450511J216883D01*
G01*
X138339474Y-112503543D02*
G75*
G02*
X138289989Y-112720420I-500028J8D01*
G01*
X138992762Y-113368999D02*
G75*
G02*
X138289989Y-112720419I-252258J431701D01*
G01*
X138992762Y-113368999D02*
G75*
G02*
X139245021Y-113300700I252253J-431683D01*
G01*
X139245021Y-110300700D02*
G75*
G02*
X138992762Y-110232401I2J500009D01*
G01*
X140833926Y-113300700D02*
G75*
G02*
X141086188Y-113368992I-27J-500157D01*
G01*
X141086184Y-110232401D02*
G75*
G02*
X140833926Y-110300699I-252235J431624D01*
G01*
X141086184Y-110232403D02*
G75*
G02*
X141788958Y-110880981I252265J-431694D01*
G01*
X141739472Y-111097858D02*
G75*
G02*
X141788963Y-110880983I499927J1D01*
G01*
X141788957Y-112720420D02*
G75*
G02*
X141086183Y-113369002I-450518J-216877D01*
G01*
X141788957Y-112720420D02*
G75*
G02*
X141739485Y-112503543I450142J216763D01*
G01*
X138353075Y-93485685D02*
X138353075Y-92080001D01*
X140847526Y-91282844D02*
X139258621Y-91282844D01*
X140847526Y-94282842D02*
X139258621Y-94282842D01*
X141753073Y-93485685D02*
X141753073Y-92080001D01*
X138303590Y-91863123D02*
G75*
G02*
X138353075Y-92080001I-450543J-216885D01*
G01*
X138303590Y-91863124D02*
G75*
G02*
X139006363Y-91214544I450511J216883D01*
G01*
X138353075Y-93485686D02*
G75*
G02*
X138303590Y-93702563I-500028J8D01*
G01*
X139006363Y-94351142D02*
G75*
G02*
X138303590Y-93702562I-252258J431701D01*
G01*
X139006363Y-94351142D02*
G75*
G02*
X139258622Y-94282843I252253J-431683D01*
G01*
X139258622Y-91282843D02*
G75*
G02*
X139006363Y-91214544I2J500009D01*
G01*
X140847527Y-94282843D02*
G75*
G02*
X141099789Y-94351135I-27J-500157D01*
G01*
X141099785Y-91214544D02*
G75*
G02*
X140847527Y-91282842I-252235J431624D01*
G01*
X141099785Y-91214546D02*
G75*
G02*
X141802559Y-91863124I252265J-431694D01*
G01*
X141753073Y-92080001D02*
G75*
G02*
X141802564Y-91863126I499927J1D01*
G01*
X141802558Y-93702563D02*
G75*
G02*
X141099784Y-94351145I-450518J-216877D01*
G01*
X141802558Y-93702563D02*
G75*
G02*
X141753086Y-93485686I450142J216763D01*
G01*
X200019771Y-89979234D02*
X200263865Y-88594906D01*
X202337901Y-91197437D02*
X200773135Y-90921527D01*
X202858845Y-88243016D02*
X201294079Y-87967106D01*
X203368115Y-90569638D02*
X203612210Y-89185309D01*
X200019771Y-89979235D02*
G75*
G02*
X199933377Y-90184224I-492431J86837D01*
G01*
X200252792Y-88372729D02*
G75*
G02*
X200263865Y-88594906I-481360J-135355D01*
G01*
X200252792Y-88372730D02*
G75*
G02*
X201057513Y-87856039I481328J135357D01*
G01*
X200512849Y-90944985D02*
G75*
G02*
X199933377Y-90184223I-173462J468947D01*
G01*
X200512849Y-90944985D02*
G75*
G02*
X200773135Y-90921528I173459J-468928D01*
G01*
X201294080Y-87967105D02*
G75*
G02*
X201057513Y-87856039I86828J492413D01*
G01*
X202337901Y-91197438D02*
G75*
G02*
X202574472Y-91308498I-86878J-492554D01*
G01*
X203119131Y-88219558D02*
G75*
G02*
X202858846Y-88243016I-173461J468929D01*
G01*
X203119131Y-88219560D02*
G75*
G02*
X203698605Y-88980320I173470J-468941D01*
G01*
X203379188Y-90791814D02*
G75*
G02*
X202574465Y-91308506I-481334J-135350D01*
G01*
X203379188Y-90791814D02*
G75*
G02*
X203368118Y-90569640I480845J135321D01*
G01*
X203612210Y-89185309D02*
G75*
G02*
X203698601Y-88980317I492430J-86828D01*
G01*
X95223790Y-128469878D02*
X94520948Y-127252520D01*
X96282627Y-125314936D02*
X94906595Y-126109389D01*
X97782626Y-127913011D02*
X96406594Y-128707463D01*
X98168274Y-126769879D02*
X97465432Y-125552521D01*
X94369653Y-127089441D02*
G75*
G02*
X94520948Y-127252520I-281724J-413088D01*
G01*
X94369654Y-127089441D02*
G75*
G02*
X94653983Y-126176369I281712J413081D01*
G01*
X94906595Y-126109387D02*
G75*
G02*
X94653983Y-126176367I-250002J433021D01*
G01*
X95223790Y-128469879D02*
G75*
G02*
X95289373Y-128682442I-433041J-250007D01*
G01*
X96222282Y-128892742D02*
G75*
G02*
X95289371Y-128682441I-434313J247736D01*
G01*
X96222282Y-128892742D02*
G75*
G02*
X96406595Y-128707464I434299J-247722D01*
G01*
X96466940Y-125129657D02*
G75*
G02*
X96282631Y-125314941I-434357J247759D01*
G01*
X96466941Y-125129659D02*
G75*
G02*
X97399850Y-125339957I434315J-247725D01*
G01*
X97465432Y-125552521D02*
G75*
G02*
X97399845Y-125339957I433036J250014D01*
G01*
X97782628Y-127913011D02*
G75*
G02*
X98035239Y-127846036I250005J-433076D01*
G01*
X98319569Y-126932958D02*
G75*
G02*
X98035239Y-127846034I-281722J-413080D01*
G01*
X98319569Y-126932958D02*
G75*
G02*
X98168278Y-126769878I281366J412743D01*
G01*
X157389474Y-103503542D02*
X157389474Y-102097858D01*
X159883925Y-101300701D02*
X158295020Y-101300701D01*
X159883925Y-104300699D02*
X158295020Y-104300699D01*
X160789472Y-103503542D02*
X160789472Y-102097858D01*
X157339989Y-101880980D02*
G75*
G02*
X157389474Y-102097858I-450543J-216885D01*
G01*
X157339989Y-101880981D02*
G75*
G02*
X158042762Y-101232401I450511J216883D01*
G01*
X157389474Y-103503543D02*
G75*
G02*
X157339989Y-103720420I-500028J8D01*
G01*
X158042762Y-104368999D02*
G75*
G02*
X157339989Y-103720419I-252258J431701D01*
G01*
X158042762Y-104368999D02*
G75*
G02*
X158295021Y-104300700I252253J-431683D01*
G01*
X158295021Y-101300700D02*
G75*
G02*
X158042762Y-101232401I2J500009D01*
G01*
X159883926Y-104300700D02*
G75*
G02*
X160136188Y-104368992I-27J-500157D01*
G01*
X160136184Y-101232401D02*
G75*
G02*
X159883926Y-101300699I-252235J431624D01*
G01*
X160136184Y-101232403D02*
G75*
G02*
X160838958Y-101880981I252265J-431694D01*
G01*
X160789472Y-102097858D02*
G75*
G02*
X160838963Y-101880983I499927J1D01*
G01*
X160838957Y-103720420D02*
G75*
G02*
X160136183Y-104369002I-450518J-216877D01*
G01*
X160838957Y-103720420D02*
G75*
G02*
X160789485Y-103503543I450142J216763D01*
G01*
X196696836Y-108676788D02*
X196940930Y-107292460D01*
X199014966Y-109894991D02*
X197450200Y-109619081D01*
X199535910Y-106940570D02*
X197971144Y-106664660D01*
X200045180Y-109267192D02*
X200289275Y-107882863D01*
X196696836Y-108676789D02*
G75*
G02*
X196610442Y-108881778I-492431J86837D01*
G01*
X196929857Y-107070283D02*
G75*
G02*
X196940930Y-107292460I-481360J-135355D01*
G01*
X196929857Y-107070284D02*
G75*
G02*
X197734578Y-106553593I481328J135357D01*
G01*
X197189914Y-109642539D02*
G75*
G02*
X196610442Y-108881777I-173462J468947D01*
G01*
X197189914Y-109642539D02*
G75*
G02*
X197450200Y-109619082I173459J-468928D01*
G01*
X197971145Y-106664659D02*
G75*
G02*
X197734578Y-106553593I86828J492413D01*
G01*
X199014966Y-109894992D02*
G75*
G02*
X199251537Y-110006052I-86878J-492554D01*
G01*
X199796196Y-106917112D02*
G75*
G02*
X199535911Y-106940570I-173461J468929D01*
G01*
X199796196Y-106917114D02*
G75*
G02*
X200375670Y-107677874I173470J-468941D01*
G01*
X200056253Y-109489368D02*
G75*
G02*
X199251530Y-110006060I-481334J-135350D01*
G01*
X200056253Y-109489368D02*
G75*
G02*
X200045183Y-109267194I480845J135321D01*
G01*
X200289275Y-107882863D02*
G75*
G02*
X200375666Y-107677871I492430J-86828D01*
G01*
X138363075Y-74405685D02*
X138363075Y-73000001D01*
X140857526Y-72202844D02*
X139268621Y-72202844D01*
X140857526Y-75202842D02*
X139268621Y-75202842D01*
X141763073Y-74405685D02*
X141763073Y-73000001D01*
X138313590Y-72783123D02*
G75*
G02*
X138363075Y-73000001I-450543J-216885D01*
G01*
X138313590Y-72783124D02*
G75*
G02*
X139016363Y-72134544I450511J216883D01*
G01*
X138363075Y-74405686D02*
G75*
G02*
X138313590Y-74622563I-500028J8D01*
G01*
X139016363Y-75271142D02*
G75*
G02*
X138313590Y-74622562I-252258J431701D01*
G01*
X139016363Y-75271142D02*
G75*
G02*
X139268622Y-75202843I252253J-431683D01*
G01*
X139268622Y-72202843D02*
G75*
G02*
X139016363Y-72134544I2J500009D01*
G01*
X140857527Y-75202843D02*
G75*
G02*
X141109789Y-75271135I-27J-500157D01*
G01*
X141109785Y-72134544D02*
G75*
G02*
X140857527Y-72202842I-252235J431624D01*
G01*
X141109785Y-72134546D02*
G75*
G02*
X141812559Y-72783124I252265J-431694D01*
G01*
X141763073Y-73000001D02*
G75*
G02*
X141812564Y-72783126I499927J1D01*
G01*
X141812558Y-74622563D02*
G75*
G02*
X141109784Y-75271145I-450518J-216877D01*
G01*
X141812558Y-74622563D02*
G75*
G02*
X141763086Y-74405686I450142J216763D01*
G01*
M02*
